<svg width="168" height="80" viewBox="0 0 168 80" fill="none" xmlns="http://www.w3.org/2000/svg">
<g clip-path="url(#clip0_90_2)">
<g opacity="0.5">
<g clip-path="url(#clip1_90_2)">
<path d="M68.2008 20.3182C68.2008 20.3182 68.1875 20.3182 68.1809 20.3116C66.3511 19.3264 64.0373 19.214 61.982 20.0008C61.5378 20.1727 61.1334 20.3975 60.7422 20.6421C60.1853 19.419 59.4892 18.3083 58.6406 17.3364C55.6439 13.938 51.129 12.0537 45.2151 11.7364L44.9964 7.59752C45.7721 7.18099 46.4085 6.53306 46.7665 5.76612C47.7345 3.74959 46.5411 1.77935 45.0229 0.800835C44.1743 0.219017 43.087 -0.0586687 41.9466 0.0140585C39.4671 0.14629 37.8295 2.01736 37.4914 3.8091C37.1466 5.62066 38.0218 7.20744 39.8383 8.07355C39.7654 9.10496 39.666 10.5331 39.5798 11.8289C35.0185 12.2256 27.5864 13.7529 24.2052 19.3859C23.8803 19.9347 23.6218 20.4901 23.4162 21.0587C23.3234 20.9992 23.2372 20.9264 23.1378 20.8735C20.8969 19.5777 18.2184 19.3529 16.1499 20.2917C14.1875 21.1777 12.1455 23.4454 12.0063 26.4934C11.8671 29.5744 13.7433 32.5694 16.3754 33.462C16.9256 33.6471 17.4958 33.7396 18.066 33.7396C19.9555 33.7396 21.54 32.7347 22.4549 32.0603C23.2173 34.381 24.7422 35.776 25.4118 36.3777C27.666 38.414 31.3057 39.8091 41.7278 39.9876C42.3842 40.0008 43.0074 40.0008 43.6107 40.0008C54.1256 40.0008 57.1621 38.3479 58.7466 36.7281C60.4638 34.9694 61.4185 32.7545 61.6505 32.0272C62.9897 33.0851 64.4218 33.6471 65.8339 33.6471C66.3113 33.6471 66.7953 33.581 67.2594 33.4553C69.9776 32.7082 71.9665 29.8917 71.9997 26.7644C72.0328 23.538 69.9776 21.2768 68.2074 20.3248L68.2008 20.3182ZM62.4461 21.2835C63.1687 21.0058 63.9776 20.8603 64.7732 20.8603C65.7942 20.8603 66.7687 21.0917 67.5908 21.5347C69.0295 22.3083 70.7002 24.1397 70.6737 26.7446C70.6472 29.2306 69.0362 31.5446 66.9146 32.1264C64.8792 32.6884 63.0958 31.5314 62.035 30.5859C62.4461 28.543 62.2472 26.8041 62.108 25.6868C62.108 25.6868 62.108 25.6669 62.108 25.6603V25.6074C61.9422 24.2917 61.6571 23.0686 61.266 21.9314C61.624 21.6802 62.0085 21.4554 62.4461 21.2901V21.2835ZM22.508 25.2438L22.3555 26.3016C22.1234 27.895 21.9312 29.2372 22.1168 30.619C22.1168 30.619 22.1035 30.6322 22.0969 30.6322C21.2814 31.2669 19.1201 32.9463 16.7864 32.1595C14.7046 31.452 13.2195 29.0454 13.3323 26.5595C13.445 24.1 15.0958 22.2686 16.687 21.5479C17.3632 21.2438 18.119 21.0851 18.9411 21.0851C20.1544 21.0851 21.3809 21.4289 22.4947 22.0702C22.6737 22.176 22.8461 22.2818 23.0118 22.4008C22.7731 23.3793 22.6339 24.3446 22.508 25.2504V25.2438ZM60.424 31.5314C60.424 31.5314 59.6152 33.9049 57.8118 35.7496C56.9102 36.6752 54.782 38.8372 41.7411 38.6124C29.6748 38.4074 27.4604 36.4107 26.2737 35.3396C25.677 34.7975 24.2715 33.5347 23.6417 31.4587C23.1709 29.8983 23.3765 28.4702 23.6615 26.5L23.814 25.4289C24.0527 23.7231 24.3179 21.7859 25.3256 20.1C27.0494 17.224 30.1853 15.1744 34.6339 14.024C36.1588 13.6273 37.7831 13.3628 39.4803 13.2041C39.4604 13.5149 39.4406 13.8058 39.4207 14.057C39.4207 14.0636 39.4207 14.0769 39.4207 14.0901C39.4074 14.4868 39.6859 14.7116 39.9709 14.7314C39.9842 14.7314 39.9975 14.7314 40.0107 14.7314C40.2825 14.7314 40.561 14.5463 40.6008 14.176C40.7267 12.5628 40.9787 9.30331 41.098 7.69008C41.1245 7.38595 40.9323 7.10827 40.6604 7.02893C39.6196 6.6719 38.9102 5.93802 38.7179 5.01901C38.5124 4.04711 38.9102 2.97604 39.7787 2.16943C41.2903 0.880173 43.6969 0.966124 45.0361 2.36116C45.7389 3.02232 46.0439 3.84215 45.898 4.67521C45.7522 5.53471 45.1157 6.28843 44.2074 6.68513C43.982 6.77769 43.8428 7.00909 43.856 7.26033L44.3267 14.0504C44.3599 14.381 44.6185 14.5397 44.8571 14.5198C45.1024 14.5066 45.3411 14.3149 45.3279 13.9777L45.2814 13.1116C50.7643 13.4355 54.9345 15.1545 57.6594 18.2488C59.3566 20.1727 60.4041 22.7049 60.782 25.7661L60.7953 25.852C60.961 27.1744 61.2063 29.1777 60.424 31.5182V31.5314Z" fill="white"/>
<path d="M40.6939 26.0826C40.6939 23.7487 38.884 21.8578 36.663 21.8578C34.853 21.8578 33.3216 23.114 32.8111 24.833C32.4199 24.833 32.0354 24.8264 31.6442 24.8065C31.5448 24.7933 31.4453 24.8396 31.3658 24.9057C31.2862 24.9784 31.2398 25.0842 31.2332 25.1966C31.2332 25.309 31.2663 25.4148 31.3392 25.4941C31.4122 25.5735 31.505 25.6131 31.6044 25.6197C31.9492 25.633 32.3006 25.6396 32.6453 25.6396C32.632 25.785 32.6254 25.9305 32.6254 26.0826C32.6254 28.4164 34.4354 30.3073 36.6564 30.3073C38.8774 30.3073 40.6873 28.4098 40.6873 26.0826H40.6939ZM36.663 22.671C37.7635 22.671 38.7315 23.2528 39.3149 24.1255C38.3735 24.3305 37.4188 24.5024 36.4641 24.6148C35.5293 24.7272 34.5879 24.7867 33.653 24.8131C34.1304 23.5569 35.2972 22.6644 36.663 22.6644V22.671ZM36.663 29.4941C34.8729 29.4941 33.4144 27.9602 33.4144 26.0826C33.4144 25.9305 33.4409 25.7784 33.4608 25.633C33.6 25.633 33.7392 25.6264 33.8785 25.6197C33.9912 26.2412 34.2961 27.1933 35.1514 27.7817C35.7945 28.2247 36.4575 28.2776 36.7293 28.2776H36.7425C36.9414 28.2776 37.6376 28.2313 38.274 27.7751C39.0895 27.1933 39.5403 26.1222 39.5072 24.9189C39.5669 24.9057 39.6332 24.8925 39.6928 24.8792C39.8254 25.2561 39.9116 25.6528 39.9116 26.0826C39.9116 27.9668 38.453 29.4941 36.663 29.4941ZM33.4343 20.8131C33.4873 20.8396 33.547 20.8528 33.6066 20.8528C33.7591 20.8528 33.8917 20.7602 33.958 20.6214C34.0111 20.5024 34.1768 20.2049 34.495 19.9999C34.7536 19.8412 34.9724 19.8214 35.0718 19.828C35.1779 19.828 35.2707 19.795 35.3503 19.7288C35.4298 19.6561 35.4762 19.5503 35.4829 19.4379C35.4895 19.2131 35.3238 19.0214 35.105 19.0148C34.9127 19.0082 34.5216 19.0346 34.0906 19.3057C33.5867 19.6231 33.3348 20.0859 33.2486 20.271C33.1558 20.4693 33.2354 20.714 33.4276 20.8131H33.4343ZM52.3359 24.5024C52.2497 24.4429 52.1503 24.4164 52.0508 24.4363C51.7525 24.4892 51.4542 24.5288 51.1558 24.5619C50.5724 22.9883 49.1072 21.8644 47.4033 21.8644C46.0111 21.8644 44.7845 22.6049 44.0619 23.7288C43.9823 23.7156 43.9028 23.7156 43.8298 23.7553C43.7304 23.8016 43.6575 23.8875 43.6243 23.9933C43.5779 24.1388 43.6177 24.2908 43.7105 24.4032C43.4917 24.9189 43.3724 25.4941 43.3724 26.0958C43.3724 28.4297 45.1823 30.3206 47.4033 30.3206C49.6243 30.3206 51.4343 28.423 51.4343 26.0958C51.4343 25.8379 51.4077 25.5933 51.368 25.3487C51.6398 25.3156 51.9116 25.2892 52.1768 25.2495C52.389 25.2164 52.5348 25.0049 52.5017 24.7801C52.4818 24.6677 52.4287 24.5751 52.3359 24.509V24.5024ZM47.4033 22.6776C48.6961 22.6776 49.8033 23.4776 50.3271 24.628C49.7238 24.6611 49.1271 24.6677 48.537 24.6346C47.2906 24.5685 46.0641 24.3371 44.8774 23.9735C45.474 23.1867 46.3823 22.671 47.41 22.671L47.4033 22.6776ZM47.4033 29.5007C45.6133 29.5007 44.1547 27.9668 44.1547 26.0892C44.1547 25.5933 44.2608 25.1239 44.4464 24.6941C44.5061 24.714 44.5658 24.7338 44.6254 24.7536C44.5856 25.2759 44.5724 26.8032 45.6464 27.7619C46.2829 28.3305 47.0188 28.4495 47.1647 28.4627C47.2243 28.4627 47.3238 28.4759 47.4564 28.4759C47.7746 28.4759 48.2652 28.423 48.7492 28.1652C49.6442 27.6892 50.2276 26.6578 50.3205 25.428C50.4133 25.428 50.4995 25.428 50.5923 25.4148C50.6321 25.633 50.6586 25.8511 50.6586 26.0759C50.6586 27.9602 49.2 29.4875 47.41 29.4875L47.4033 29.5007ZM48.5171 19.9536C48.61 19.9404 48.9547 19.9206 49.2995 20.1123C49.558 20.2512 49.6906 20.4429 49.7437 20.5421C49.8166 20.6677 49.9426 20.747 50.0884 20.747H50.1547C50.2011 20.7338 50.2409 20.714 50.2807 20.6941C50.4663 20.5817 50.5326 20.3371 50.4265 20.1388C50.3337 19.9602 50.1017 19.6297 49.6575 19.385C49.1337 19.1007 48.6298 19.1206 48.4309 19.1404C48.2188 19.1669 48.0597 19.3652 48.0796 19.59C48.0928 19.6958 48.1392 19.795 48.2188 19.8611C48.2984 19.9272 48.4044 19.9669 48.5105 19.9536H48.5171ZM41.1249 30.8363C41.1249 31.385 41.6221 31.828 42.2387 31.828C42.8553 31.828 43.3525 31.385 43.3525 30.8363C43.3525 30.2875 42.8553 29.8445 42.2387 29.8445C41.6221 29.8445 41.1249 30.2875 41.1249 30.8363ZM44.1083 32.8925C44.0022 32.8726 43.9028 32.8925 43.8166 32.952C43.4851 33.1768 42.789 33.547 41.8939 33.4611C41.2774 33.4016 40.8 33.1503 40.5083 32.9454C40.4221 32.4693 40.1834 32.1123 40.0575 31.9536C39.9912 31.8677 39.8917 31.8148 39.7923 31.8082C39.6862 31.8082 39.5867 31.8346 39.5072 31.9007C39.3414 32.0462 39.3216 32.304 39.4608 32.4759C39.5735 32.6148 39.8321 32.9982 39.7591 33.4875C39.6862 33.9635 39.3414 34.2478 39.2022 34.347C39.0232 34.4726 38.9768 34.7239 39.0895 34.909C39.1624 35.0214 39.2884 35.0941 39.421 35.0941C39.4939 35.0941 39.5735 35.0677 39.6398 35.028C39.8453 34.8892 40.3028 34.5057 40.4818 33.8644C40.8332 34.0495 41.2906 34.228 41.8343 34.2809C41.9536 34.2941 42.0663 34.2941 42.1724 34.2941H42.1923C43.1602 34.2941 43.9028 33.8842 44.2608 33.6396C44.4398 33.5206 44.4928 33.2627 44.3735 33.0776C44.3138 32.985 44.2276 32.9189 44.1216 32.8991L44.1083 32.8925ZM42.3713 21.5867H42.3912C43.6707 21.5867 44.5658 20.1718 44.5724 18.9024C44.5724 17.871 43.9691 16.6545 42.9547 16.4098C42.4111 16.2776 41.7945 16.4429 41.2774 16.8594C40.6475 17.3553 40.2497 18.1156 40.2166 18.8826C40.1834 19.59 40.4619 20.3569 40.9459 20.8859C41.3437 21.3288 41.8542 21.5735 42.3779 21.5801L42.3713 21.5867ZM41.6553 17.3685C41.947 17.1371 42.2718 17.0115 42.5768 17.0115C42.6564 17.0115 42.7425 17.0181 42.8155 17.0379C43.5182 17.2098 43.9558 18.1355 43.9558 18.8958C43.9558 19.8611 43.2862 20.9388 42.3978 20.9388C42.0398 20.9388 41.6884 20.7669 41.4033 20.4429C41.0321 20.033 40.8199 19.4512 40.8464 18.909C40.8729 18.3338 41.1845 17.7388 41.6619 17.3619L41.6553 17.3685Z" fill="white"/>
</g>
<g clip-path="url(#clip2_90_2)">
<path d="M110.201 60.3182C110.201 60.3182 110.188 60.3182 110.181 60.3116C108.351 59.3264 106.037 59.214 103.982 60.0008C103.538 60.1727 103.133 60.3975 102.742 60.6421C102.185 59.419 101.489 58.3083 100.641 57.3364C97.6439 53.938 93.129 52.0537 87.2151 51.7364L86.9964 47.5975C87.7721 47.181 88.4085 46.5331 88.7665 45.7661C89.7345 43.7496 88.5411 41.7793 87.0229 40.8008C86.1743 40.219 85.087 39.9413 83.9466 40.0141C81.4671 40.1463 79.8295 42.0174 79.4914 43.8091C79.1466 45.6207 80.0218 47.2074 81.8383 48.0736C81.7654 49.105 81.666 50.5331 81.5798 51.8289C77.0185 52.2256 69.5864 53.7529 66.2052 59.3859C65.8803 59.9347 65.6218 60.4901 65.4162 61.0587C65.3234 60.9992 65.2372 60.9264 65.1378 60.8735C62.8969 59.5777 60.2184 59.3529 58.1499 60.2917C56.1875 61.1777 54.1455 63.4454 54.0063 66.4934C53.8671 69.5744 55.7433 72.5694 58.3754 73.462C58.9256 73.6471 59.4958 73.7396 60.066 73.7396C61.9555 73.7396 63.54 72.7347 64.4549 72.0603C65.2173 74.381 66.7422 75.776 67.4118 76.3777C69.666 78.414 73.3057 79.8091 83.7278 79.9876C84.3842 80.0008 85.0074 80.0008 85.6107 80.0008C96.1256 80.0008 99.1621 78.3479 100.747 76.7281C102.464 74.9694 103.418 72.7545 103.651 72.0272C104.99 73.0851 106.422 73.6471 107.834 73.6471C108.311 73.6471 108.795 73.581 109.259 73.4553C111.978 72.7082 113.967 69.8917 114 66.7644C114.033 63.538 111.978 61.2768 110.207 60.3248L110.201 60.3182ZM104.446 61.2835C105.169 61.0058 105.978 60.8603 106.773 60.8603C107.794 60.8603 108.769 61.0917 109.591 61.5347C111.03 62.3083 112.7 64.1397 112.674 66.7446C112.647 69.2306 111.036 71.5446 108.915 72.1264C106.879 72.6884 105.096 71.5314 104.035 70.5859C104.446 68.543 104.247 66.8041 104.108 65.6868C104.108 65.6868 104.108 65.6669 104.108 65.6603V65.6074C103.942 64.2917 103.657 63.0686 103.266 61.9314C103.624 61.6802 104.009 61.4554 104.446 61.2901V61.2835ZM64.508 65.2438L64.3555 66.3016C64.1234 67.895 63.9312 69.2372 64.1168 70.619C64.1168 70.619 64.1035 70.6322 64.0969 70.6322C63.2814 71.2669 61.1201 72.9463 58.7864 72.1595C56.7046 71.452 55.2195 69.0454 55.3323 66.5595C55.445 64.1 57.0958 62.2686 58.687 61.5479C59.3632 61.2438 60.119 61.0851 60.9411 61.0851C62.1544 61.0851 63.3809 61.4289 64.4947 62.0702C64.6737 62.176 64.8461 62.2818 65.0118 62.4008C64.7731 63.3793 64.6339 64.3446 64.508 65.2504V65.2438ZM102.424 71.5314C102.424 71.5314 101.615 73.9049 99.8118 75.7496C98.9102 76.6752 96.782 78.8372 83.7411 78.6124C71.6748 78.4074 69.4604 76.4107 68.2737 75.3396C67.677 74.7975 66.2715 73.5347 65.6417 71.4587C65.1709 69.8983 65.3765 68.4702 65.6615 66.5L65.814 65.4289C66.0527 63.7231 66.3179 61.7859 67.3256 60.1C69.0494 57.224 72.1853 55.1744 76.6339 54.024C78.1588 53.6273 79.7831 53.3628 81.4803 53.2041C81.4604 53.5149 81.4406 53.8058 81.4207 54.057C81.4207 54.0636 81.4207 54.0769 81.4207 54.0901C81.4074 54.4868 81.6859 54.7116 81.9709 54.7314C81.9842 54.7314 81.9975 54.7314 82.0107 54.7314C82.2825 54.7314 82.561 54.5463 82.6008 54.176C82.7267 52.5628 82.9787 49.3033 83.098 47.6901C83.1245 47.386 82.9323 47.1083 82.6604 47.0289C81.6196 46.6719 80.9102 45.938 80.7179 45.019C80.5124 44.0471 80.9102 42.976 81.7787 42.1694C83.2903 40.8802 85.6969 40.9661 87.0361 42.3612C87.7389 43.0223 88.0439 43.8422 87.898 44.6752C87.7522 45.5347 87.1157 46.2884 86.2074 46.6851C85.982 46.7777 85.8428 47.0091 85.856 47.2603L86.3267 54.0504C86.3599 54.381 86.6185 54.5397 86.8571 54.5198C87.1024 54.5066 87.3411 54.3149 87.3279 53.9777L87.2814 53.1116C92.7643 53.4355 96.9345 55.1545 99.6594 58.2488C101.357 60.1727 102.404 62.7049 102.782 65.7661L102.795 65.852C102.961 67.1744 103.206 69.1777 102.424 71.5182V71.5314Z" fill="white"/>
<path d="M82.6939 66.0826C82.6939 63.7487 80.884 61.8578 78.663 61.8578C76.853 61.8578 75.3216 63.114 74.8111 64.833C74.4199 64.833 74.0354 64.8264 73.6442 64.8065C73.5448 64.7933 73.4453 64.8396 73.3658 64.9057C73.2862 64.9784 73.2398 65.0842 73.2332 65.1966C73.2332 65.309 73.2663 65.4148 73.3392 65.4941C73.4122 65.5735 73.505 65.6131 73.6044 65.6197C73.9492 65.633 74.3006 65.6396 74.6453 65.6396C74.632 65.785 74.6254 65.9305 74.6254 66.0826C74.6254 68.4164 76.4354 70.3073 78.6564 70.3073C80.8774 70.3073 82.6873 68.4098 82.6873 66.0826H82.6939ZM78.663 62.671C79.7635 62.671 80.7315 63.2528 81.3149 64.1255C80.3735 64.3305 79.4188 64.5024 78.4641 64.6148C77.5293 64.7272 76.5879 64.7867 75.653 64.8131C76.1304 63.5569 77.2972 62.6644 78.663 62.6644V62.671ZM78.663 69.4941C76.8729 69.4941 75.4144 67.9602 75.4144 66.0826C75.4144 65.9305 75.4409 65.7784 75.4608 65.633C75.6 65.633 75.7392 65.6264 75.8785 65.6197C75.9912 66.2412 76.2961 67.1933 77.1514 67.7817C77.7945 68.2247 78.4575 68.2776 78.7293 68.2776H78.7425C78.9414 68.2776 79.6376 68.2313 80.274 67.7751C81.0895 67.1933 81.5403 66.1222 81.5072 64.9189C81.5669 64.9057 81.6332 64.8925 81.6928 64.8792C81.8254 65.2561 81.9116 65.6528 81.9116 66.0826C81.9116 67.9668 80.453 69.4941 78.663 69.4941ZM75.4343 60.8131C75.4873 60.8396 75.547 60.8528 75.6066 60.8528C75.7591 60.8528 75.8917 60.7602 75.958 60.6214C76.0111 60.5024 76.1768 60.2049 76.495 59.9999C76.7536 59.8412 76.9724 59.8214 77.0718 59.828C77.1779 59.828 77.2707 59.795 77.3503 59.7288C77.4298 59.6561 77.4762 59.5503 77.4829 59.4379C77.4895 59.2131 77.3238 59.0214 77.105 59.0148C76.9127 59.0082 76.5216 59.0346 76.0906 59.3057C75.5867 59.6231 75.3348 60.0859 75.2486 60.271C75.1558 60.4693 75.2354 60.714 75.4276 60.8131H75.4343ZM94.3359 64.5024C94.2497 64.4429 94.1503 64.4164 94.0508 64.4363C93.7525 64.4892 93.4542 64.5288 93.1558 64.5619C92.5724 62.9883 91.1072 61.8644 89.4033 61.8644C88.0111 61.8644 86.7845 62.6049 86.0619 63.7288C85.9823 63.7156 85.9028 63.7156 85.8298 63.7553C85.7304 63.8016 85.6575 63.8875 85.6243 63.9933C85.5779 64.1388 85.6177 64.2908 85.7105 64.4032C85.4917 64.9189 85.3724 65.4941 85.3724 66.0958C85.3724 68.4297 87.1823 70.3206 89.4033 70.3206C91.6243 70.3206 93.4343 68.423 93.4343 66.0958C93.4343 65.8379 93.4077 65.5933 93.368 65.3487C93.6398 65.3156 93.9116 65.2892 94.1768 65.2495C94.389 65.2164 94.5348 65.0049 94.5017 64.7801C94.4818 64.6677 94.4287 64.5751 94.3359 64.509V64.5024ZM89.4033 62.6776C90.6961 62.6776 91.8033 63.4776 92.3271 64.628C91.7238 64.6611 91.1271 64.6677 90.537 64.6346C89.2906 64.5685 88.0641 64.3371 86.8774 63.9735C87.474 63.1867 88.3823 62.671 89.41 62.671L89.4033 62.6776ZM89.4033 69.5007C87.6133 69.5007 86.1547 67.9668 86.1547 66.0892C86.1547 65.5933 86.2608 65.1239 86.4464 64.6941C86.5061 64.714 86.5658 64.7338 86.6254 64.7536C86.5856 65.2759 86.5724 66.8032 87.6464 67.7619C88.2829 68.3305 89.0188 68.4495 89.1647 68.4627C89.2243 68.4627 89.3238 68.4759 89.4564 68.4759C89.7746 68.4759 90.2652 68.423 90.7492 68.1652C91.6442 67.6892 92.2276 66.6578 92.3205 65.428C92.4133 65.428 92.4995 65.428 92.5923 65.4148C92.6321 65.633 92.6586 65.8511 92.6586 66.0759C92.6586 67.9602 91.2 69.4875 89.41 69.4875L89.4033 69.5007ZM90.5171 59.9536C90.61 59.9404 90.9547 59.9206 91.2995 60.1123C91.558 60.2512 91.6906 60.4429 91.7437 60.5421C91.8166 60.6677 91.9426 60.747 92.0884 60.747H92.1547C92.2011 60.7338 92.2409 60.714 92.2807 60.6941C92.4663 60.5817 92.5326 60.3371 92.4265 60.1388C92.3337 59.9602 92.1017 59.6297 91.6575 59.385C91.1337 59.1007 90.6298 59.1206 90.4309 59.1404C90.2188 59.1669 90.0597 59.3652 90.0796 59.59C90.0928 59.6958 90.1392 59.795 90.2188 59.8611C90.2984 59.9272 90.4044 59.9669 90.5105 59.9536H90.5171ZM83.1249 70.8363C83.1249 71.385 83.6221 71.828 84.2387 71.828C84.8553 71.828 85.3525 71.385 85.3525 70.8363C85.3525 70.2875 84.8553 69.8445 84.2387 69.8445C83.6221 69.8445 83.1249 70.2875 83.1249 70.8363ZM86.1083 72.8925C86.0022 72.8726 85.9028 72.8925 85.8166 72.952C85.4851 73.1768 84.789 73.547 83.8939 73.4611C83.2774 73.4016 82.8 73.1503 82.5083 72.9454C82.4221 72.4693 82.1834 72.1123 82.0575 71.9536C81.9912 71.8677 81.8917 71.8148 81.7923 71.8082C81.6862 71.8082 81.5867 71.8346 81.5072 71.9007C81.3414 72.0462 81.3216 72.304 81.4608 72.4759C81.5735 72.6148 81.8321 72.9982 81.7591 73.4875C81.6862 73.9635 81.3414 74.2478 81.2022 74.347C81.0232 74.4726 80.9768 74.7239 81.0895 74.909C81.1624 75.0214 81.2884 75.0941 81.421 75.0941C81.4939 75.0941 81.5735 75.0677 81.6398 75.028C81.8453 74.8892 82.3028 74.5057 82.4818 73.8644C82.8332 74.0495 83.2906 74.228 83.8343 74.2809C83.9536 74.2941 84.0663 74.2941 84.1724 74.2941H84.1923C85.1602 74.2941 85.9028 73.8842 86.2608 73.6396C86.4398 73.5206 86.4928 73.2627 86.3735 73.0776C86.3138 72.985 86.2276 72.9189 86.1216 72.8991L86.1083 72.8925ZM84.3713 61.5867H84.3912C85.6707 61.5867 86.5658 60.1718 86.5724 58.9024C86.5724 57.871 85.9691 56.6545 84.9547 56.4098C84.4111 56.2776 83.7945 56.4429 83.2774 56.8594C82.6475 57.3553 82.2497 58.1156 82.2166 58.8826C82.1834 59.59 82.4619 60.3569 82.9459 60.8859C83.3437 61.3288 83.8542 61.5735 84.3779 61.5801L84.3713 61.5867ZM83.6553 57.3685C83.947 57.1371 84.2718 57.0115 84.5768 57.0115C84.6564 57.0115 84.7425 57.0181 84.8155 57.0379C85.5182 57.2098 85.9558 58.1355 85.9558 58.8958C85.9558 59.8611 85.2862 60.9388 84.3978 60.9388C84.0398 60.9388 83.6884 60.7669 83.4033 60.4429C83.0321 60.033 82.8199 59.4512 82.8464 58.909C82.8729 58.3338 83.1845 57.7388 83.6619 57.3619L83.6553 57.3685Z" fill="white"/>
</g>
<g clip-path="url(#clip3_90_2)">
<path d="M26.2008 60.3182C26.2008 60.3182 26.1875 60.3182 26.1809 60.3116C24.3511 59.3264 22.0373 59.214 19.982 60.0008C19.5378 60.1727 19.1334 60.3975 18.7422 60.6421C18.1853 59.419 17.4892 58.3083 16.6406 57.3364C13.6439 53.938 9.12896 52.0537 3.21515 51.7364L2.99636 47.5975C3.77205 47.181 4.40852 46.5331 4.76653 45.7661C5.73448 43.7496 4.54111 41.7793 3.02288 40.8008C2.17426 40.219 1.08697 39.9413 -0.0533657 40.0141C-2.53292 40.1463 -4.17049 42.0174 -4.50862 43.8091C-4.85337 45.6207 -3.97823 47.2074 -2.16165 48.0736C-2.23458 49.105 -2.33403 50.5331 -2.42022 51.8289C-6.98155 52.2256 -14.4136 53.7529 -17.7948 59.3859C-18.1197 59.9347 -18.3782 60.4901 -18.5838 61.0587C-18.6766 60.9992 -18.7628 60.9264 -18.8622 60.8735C-21.1031 59.5777 -23.7816 59.3529 -25.8501 60.2917C-27.8125 61.1777 -29.8545 63.4454 -29.9937 66.4934C-30.1329 69.5744 -28.2567 72.5694 -25.6246 73.462C-25.0744 73.6471 -24.5042 73.7396 -23.934 73.7396C-22.0445 73.7396 -20.46 72.7347 -19.5451 72.0603C-18.7827 74.381 -17.2578 75.776 -16.5882 76.3777C-14.334 78.414 -10.6943 79.8091 -0.27215 79.9876C0.384205 80.0008 1.00741 80.0008 1.61073 80.0008C12.1256 80.0008 15.1621 78.3479 16.7466 76.7281C18.4638 74.9694 19.4185 72.7545 19.6505 72.0272C20.9897 73.0851 22.4218 73.6471 23.8339 73.6471C24.3113 73.6471 24.7953 73.581 25.2594 73.4553C27.9776 72.7082 29.9665 69.8917 29.9997 66.7644C30.0328 63.538 27.9776 61.2768 26.2074 60.3248L26.2008 60.3182ZM20.4461 61.2835C21.1687 61.0058 21.9776 60.8603 22.7732 60.8603C23.7942 60.8603 24.7687 61.0917 25.5908 61.5347C27.0295 62.3083 28.7002 64.1397 28.6737 66.7446C28.6472 69.2306 27.0362 71.5446 24.9146 72.1264C22.8792 72.6884 21.0958 71.5314 20.035 70.5859C20.4461 68.543 20.2472 66.8041 20.108 65.6868C20.108 65.6868 20.108 65.6669 20.108 65.6603V65.6074C19.9422 64.2917 19.6571 63.0686 19.266 61.9314C19.624 61.6802 20.0085 61.4554 20.4461 61.2901V61.2835ZM-19.492 65.2438L-19.6445 66.3016C-19.8766 67.895 -20.0688 69.2372 -19.8832 70.619C-19.8832 70.619 -19.8965 70.6322 -19.9031 70.6322C-20.7186 71.2669 -22.8799 72.9463 -25.2136 72.1595C-27.2954 71.452 -28.7805 69.0454 -28.6677 66.5595C-28.555 64.1 -26.9042 62.2686 -25.313 61.5479C-24.6368 61.2438 -23.881 61.0851 -23.0589 61.0851C-21.8456 61.0851 -20.6191 61.4289 -19.5053 62.0702C-19.3263 62.176 -19.1539 62.2818 -18.9882 62.4008C-19.2269 63.3793 -19.3661 64.3446 -19.492 65.2504V65.2438ZM18.424 71.5314C18.424 71.5314 17.6152 73.9049 15.8118 75.7496C14.9102 76.6752 12.782 78.8372 -0.25889 78.6124C-12.3252 78.4074 -14.5396 76.4107 -15.7263 75.3396C-16.323 74.7975 -17.7285 73.5347 -18.3583 71.4587C-18.8291 69.8983 -18.6235 68.4702 -18.3385 66.5L-18.186 65.4289C-17.9473 63.7231 -17.6821 61.7859 -16.6744 60.1C-14.9506 57.224 -11.8147 55.1744 -7.36608 54.024C-5.84121 53.6273 -4.2169 53.3628 -2.51966 53.2041C-2.53955 53.5149 -2.55944 53.8058 -2.57933 54.057C-2.57933 54.0636 -2.57933 54.0769 -2.57933 54.0901C-2.59259 54.4868 -2.31414 54.7116 -2.02906 54.7314C-2.0158 54.7314 -2.00254 54.7314 -1.98928 54.7314C-1.71745 54.7314 -1.439 54.5463 -1.39922 54.176C-1.27325 52.5628 -1.02132 49.3033 -0.901985 47.6901C-0.875465 47.386 -1.06773 47.1083 -1.33955 47.0289C-2.38044 46.6719 -3.08983 45.938 -3.2821 45.019C-3.48762 44.0471 -3.08983 42.976 -2.22132 42.1694C-0.709717 40.8802 1.69691 40.9661 3.03614 42.3612C3.7389 43.0223 4.04388 43.8422 3.89802 44.6752C3.75216 45.5347 3.1157 46.2884 2.20741 46.6851C1.982 46.7777 1.84277 47.0091 1.85603 47.2603L2.32674 54.0504C2.35989 54.381 2.61846 54.5397 2.85714 54.5198C3.10244 54.5066 3.34111 54.3149 3.32785 53.9777L3.28144 53.1116C8.76432 53.4355 12.9345 55.1545 15.6594 58.2488C17.3566 60.1727 18.4041 62.7049 18.782 65.7661L18.7953 65.852C18.961 67.1744 19.2063 69.1777 18.424 71.5182V71.5314Z" fill="white"/>
<path d="M-1.30607 66.0826C-1.30607 63.7487 -3.11601 61.8578 -5.33701 61.8578C-7.14696 61.8578 -8.67845 63.114 -9.18895 64.833C-9.58011 64.833 -9.96464 64.8264 -10.3558 64.8065C-10.4552 64.7933 -10.5547 64.8396 -10.6342 64.9057C-10.7138 64.9784 -10.7602 65.0842 -10.7668 65.1966C-10.7668 65.309 -10.7337 65.4148 -10.6608 65.4941C-10.5878 65.5735 -10.495 65.6131 -10.3956 65.6197C-10.0508 65.633 -9.69944 65.6396 -9.35469 65.6396C-9.36795 65.785 -9.37458 65.9305 -9.37458 66.0826C-9.37458 68.4164 -7.56464 70.3073 -5.34364 70.3073C-3.12265 70.3073 -1.3127 68.4098 -1.3127 66.0826H-1.30607ZM-5.33701 62.671C-4.23646 62.671 -3.2685 63.2528 -2.68508 64.1255C-3.62651 64.3305 -4.58121 64.5024 -5.5359 64.6148C-6.47071 64.7272 -7.41215 64.7867 -8.34696 64.8131C-7.86961 63.5569 -6.70276 62.6644 -5.33701 62.6644V62.671ZM-5.33701 69.4941C-7.12707 69.4941 -8.58563 67.9602 -8.58563 66.0826C-8.58563 65.9305 -8.55911 65.7784 -8.53922 65.633C-8.4 65.633 -8.26077 65.6264 -8.12154 65.6197C-8.00883 66.2412 -7.70386 67.1933 -6.84861 67.7817C-6.20552 68.2247 -5.54254 68.2776 -5.27071 68.2776H-5.25745C-5.05856 68.2776 -4.36242 68.2313 -3.72596 67.7751C-2.91049 67.1933 -2.45966 66.1222 -2.49281 64.9189C-2.43314 64.9057 -2.36684 64.8925 -2.30717 64.8792C-2.17458 65.2561 -2.08839 65.6528 -2.08839 66.0826C-2.08839 67.9668 -3.54695 69.4941 -5.33701 69.4941ZM-8.56574 60.8131C-8.5127 60.8396 -8.45303 60.8528 -8.39336 60.8528C-8.24088 60.8528 -8.10828 60.7602 -8.04198 60.6214C-7.98895 60.5024 -7.8232 60.2049 -7.50497 59.9999C-7.2464 59.8412 -7.02762 59.8214 -6.92817 59.828C-6.82209 59.828 -6.72927 59.795 -6.64972 59.7288C-6.57016 59.6561 -6.52375 59.5503 -6.51712 59.4379C-6.51049 59.2131 -6.67624 59.0214 -6.89502 59.0148C-7.08729 59.0082 -7.47845 59.0346 -7.90939 59.3057C-8.41325 59.6231 -8.66519 60.0859 -8.75138 60.271C-8.84419 60.4693 -8.76464 60.714 -8.57237 60.8131H-8.56574ZM10.3359 64.5024C10.2497 64.4429 10.1503 64.4164 10.0508 64.4363C9.7525 64.4892 9.45415 64.5288 9.15581 64.5619C8.57239 62.9883 7.10719 61.8644 5.40332 61.8644C4.01106 61.8644 2.78454 62.6049 2.06189 63.7288C1.98233 63.7156 1.90277 63.7156 1.82984 63.7553C1.73039 63.8016 1.65747 63.8875 1.62432 63.9933C1.57791 64.1388 1.61769 64.2908 1.71051 64.4032C1.49172 64.9189 1.37238 65.4941 1.37238 66.0958C1.37238 68.4297 3.18233 70.3206 5.40332 70.3206C7.62432 70.3206 9.43426 68.423 9.43426 66.0958C9.43426 65.8379 9.40775 65.5933 9.36797 65.3487C9.63979 65.3156 9.91161 65.2892 10.1768 65.2495C10.389 65.2164 10.5348 65.0049 10.5017 64.7801C10.4818 64.6677 10.4287 64.5751 10.3359 64.509V64.5024ZM5.40332 62.6776C6.69614 62.6776 7.80333 63.4776 8.32708 64.628C7.72377 64.6611 7.12708 64.6677 6.53703 64.6346C5.29062 64.5685 4.0641 64.3371 2.87736 63.9735C3.47404 63.1867 4.38233 62.671 5.40995 62.671L5.40332 62.6776ZM5.40332 69.5007C3.61327 69.5007 2.1547 67.9668 2.1547 66.0892C2.1547 65.5933 2.26078 65.1239 2.44642 64.6941C2.50608 64.714 2.56575 64.7338 2.62542 64.7536C2.58564 65.2759 2.57238 66.8032 3.64642 67.7619C4.28288 68.3305 5.01879 68.4495 5.16465 68.4627C5.22432 68.4627 5.32376 68.4759 5.45636 68.4759C5.7746 68.4759 6.2652 68.423 6.74918 68.1652C7.64421 67.6892 8.22763 66.6578 8.32045 65.428C8.41327 65.428 8.49946 65.428 8.59227 65.4148C8.63205 65.633 8.65858 65.8511 8.65858 66.0759C8.65858 67.9602 7.20001 69.4875 5.40995 69.4875L5.40332 69.5007ZM6.51714 59.9536C6.60995 59.9404 6.9547 59.9206 7.29946 60.1123C7.55802 60.2512 7.69062 60.4429 7.74366 60.5421C7.81658 60.6677 7.94255 60.747 8.08841 60.747H8.15471C8.20111 60.7338 8.24089 60.714 8.28067 60.6941C8.46631 60.5817 8.53261 60.3371 8.42653 60.1388C8.33371 59.9602 8.10167 59.6297 7.65747 59.385C7.13371 59.1007 6.62984 59.1206 6.43095 59.1404C6.21879 59.1669 6.05968 59.3652 6.07957 59.59C6.09282 59.6958 6.13924 59.795 6.21879 59.8611C6.29835 59.9272 6.40443 59.9669 6.51051 59.9536H6.51714ZM-0.875131 70.8363C-0.875131 71.385 -0.377892 71.828 0.238682 71.828C0.855257 71.828 1.3525 71.385 1.3525 70.8363C1.3525 70.2875 0.855257 69.8445 0.238682 69.8445C-0.377892 69.8445 -0.875131 70.2875 -0.875131 70.8363ZM2.1083 72.8925C2.00222 72.8726 1.90277 72.8925 1.81658 72.952C1.48509 73.1768 0.788959 73.547 -0.10607 73.4611C-0.722644 73.4016 -1.19999 73.1503 -1.4917 72.9454C-1.57789 72.4693 -1.81657 72.1123 -1.94253 71.9536C-2.00883 71.8677 -2.10828 71.8148 -2.20773 71.8082C-2.31381 71.8082 -2.41325 71.8346 -2.49281 71.9007C-2.65856 72.0462 -2.67845 72.304 -2.53922 72.4759C-2.42651 72.6148 -2.16795 72.9982 -2.24088 73.4875C-2.31381 73.9635 -2.65856 74.2478 -2.79778 74.347C-2.97679 74.4726 -3.0232 74.7239 -2.91049 74.909C-2.83756 75.0214 -2.71159 75.0941 -2.579 75.0941C-2.50607 75.0941 -2.42651 75.0677 -2.36022 75.028C-2.15469 74.8892 -1.69723 74.5057 -1.51823 73.8644C-1.16684 74.0495 -0.709385 74.228 -0.165738 74.2809C-0.046401 74.2941 0.0663052 74.2941 0.172382 74.2941H0.192273C1.16023 74.2941 1.90277 73.8842 2.26078 73.6396C2.43979 73.5206 2.49283 73.2627 2.37349 73.0776C2.31382 72.985 2.22763 72.9189 2.12156 72.8991L2.1083 72.8925ZM0.37128 61.5867H0.391169C1.67073 61.5867 2.56575 60.1718 2.57238 58.9024C2.57238 57.871 1.96907 56.6545 0.954703 56.4098C0.411057 56.2776 -0.205517 56.4429 -0.722645 56.8594C-1.35248 57.3553 -1.75027 58.1156 -1.78342 58.8826C-1.81657 59.59 -1.53811 60.3569 -1.05414 60.8859C-0.656346 61.3288 -0.145849 61.5735 0.377908 61.5801L0.37128 61.5867ZM-0.344744 57.3685C-0.053031 57.1371 0.271831 57.0115 0.576803 57.0115C0.656361 57.0115 0.742549 57.0181 0.815477 57.0379C1.51824 57.2098 1.95581 58.1355 1.95581 58.8958C1.95581 59.8611 1.28619 60.9388 0.397797 60.9388C0.0397854 60.9388 -0.311596 60.7669 -0.596679 60.4429C-0.967949 60.033 -1.1801 59.4512 -1.15358 58.909C-1.12707 58.3338 -0.815461 57.7388 -0.338113 57.3619L-0.344744 57.3685Z" fill="white"/>
</g>
<g clip-path="url(#clip4_90_2)">
<path d="M152.201 20.3182C152.201 20.3182 152.188 20.3182 152.181 20.3116C150.351 19.3264 148.037 19.214 145.982 20.0008C145.538 20.1727 145.133 20.3975 144.742 20.6421C144.185 19.419 143.489 18.3083 142.641 17.3364C139.644 13.938 135.129 12.0537 129.215 11.7364L128.996 7.59752C129.772 7.18099 130.409 6.53306 130.767 5.76612C131.734 3.74959 130.541 1.77935 129.023 0.800835C128.174 0.219017 127.087 -0.0586687 125.947 0.0140585C123.467 0.14629 121.83 2.01736 121.491 3.8091C121.147 5.62066 122.022 7.20744 123.838 8.07355C123.765 9.10496 123.666 10.5331 123.58 11.8289C119.018 12.2256 111.586 13.7529 108.205 19.3859C107.88 19.9347 107.622 20.4901 107.416 21.0587C107.323 20.9992 107.237 20.9264 107.138 20.8735C104.897 19.5777 102.218 19.3529 100.15 20.2917C98.1875 21.1777 96.1455 23.4454 96.0063 26.4934C95.8671 29.5744 97.7433 32.5694 100.375 33.462C100.926 33.6471 101.496 33.7396 102.066 33.7396C103.955 33.7396 105.54 32.7347 106.455 32.0603C107.217 34.381 108.742 35.776 109.412 36.3777C111.666 38.414 115.306 39.8091 125.728 39.9876C126.384 40.0008 127.007 40.0008 127.611 40.0008C138.126 40.0008 141.162 38.3479 142.747 36.7281C144.464 34.9694 145.418 32.7545 145.651 32.0272C146.99 33.0851 148.422 33.6471 149.834 33.6471C150.311 33.6471 150.795 33.581 151.259 33.4553C153.978 32.7082 155.967 29.8917 156 26.7644C156.033 23.538 153.978 21.2768 152.207 20.3248L152.201 20.3182ZM146.446 21.2835C147.169 21.0058 147.978 20.8603 148.773 20.8603C149.794 20.8603 150.769 21.0917 151.591 21.5347C153.03 22.3083 154.7 24.1397 154.674 26.7446C154.647 29.2306 153.036 31.5446 150.915 32.1264C148.879 32.6884 147.096 31.5314 146.035 30.5859C146.446 28.543 146.247 26.8041 146.108 25.6868C146.108 25.6868 146.108 25.6669 146.108 25.6603V25.6074C145.942 24.2917 145.657 23.0686 145.266 21.9314C145.624 21.6802 146.009 21.4554 146.446 21.2901V21.2835ZM106.508 25.2438L106.355 26.3016C106.123 27.895 105.931 29.2372 106.117 30.619C106.117 30.619 106.104 30.6322 106.097 30.6322C105.281 31.2669 103.12 32.9463 100.786 32.1595C98.7046 31.452 97.2195 29.0454 97.3323 26.5595C97.445 24.1 99.0958 22.2686 100.687 21.5479C101.363 21.2438 102.119 21.0851 102.941 21.0851C104.154 21.0851 105.381 21.4289 106.495 22.0702C106.674 22.176 106.846 22.2818 107.012 22.4008C106.773 23.3793 106.634 24.3446 106.508 25.2504V25.2438ZM144.424 31.5314C144.424 31.5314 143.615 33.9049 141.812 35.7496C140.91 36.6752 138.782 38.8372 125.741 38.6124C113.675 38.4074 111.46 36.4107 110.274 35.3396C109.677 34.7975 108.271 33.5347 107.642 31.4587C107.171 29.8983 107.376 28.4702 107.662 26.5L107.814 25.4289C108.053 23.7231 108.318 21.7859 109.326 20.1C111.049 17.224 114.185 15.1744 118.634 14.024C120.159 13.6273 121.783 13.3628 123.48 13.2041C123.46 13.5149 123.441 13.8058 123.421 14.057C123.421 14.0636 123.421 14.0769 123.421 14.0901C123.407 14.4868 123.686 14.7116 123.971 14.7314C123.984 14.7314 123.997 14.7314 124.011 14.7314C124.283 14.7314 124.561 14.5463 124.601 14.176C124.727 12.5628 124.979 9.30331 125.098 7.69008C125.125 7.38595 124.932 7.10827 124.66 7.02893C123.62 6.6719 122.91 5.93802 122.718 5.01901C122.512 4.04711 122.91 2.97604 123.779 2.16943C125.29 0.880173 127.697 0.966124 129.036 2.36116C129.739 3.02232 130.044 3.84215 129.898 4.67521C129.752 5.53471 129.116 6.28843 128.207 6.68513C127.982 6.77769 127.843 7.00909 127.856 7.26033L128.327 14.0504C128.36 14.381 128.618 14.5397 128.857 14.5198C129.102 14.5066 129.341 14.3149 129.328 13.9777L129.281 13.1116C134.764 13.4355 138.934 15.1545 141.659 18.2488C143.357 20.1727 144.404 22.7049 144.782 25.7661L144.795 25.852C144.961 27.1744 145.206 29.1777 144.424 31.5182V31.5314Z" fill="white"/>
<path d="M124.694 26.0826C124.694 23.7487 122.884 21.8578 120.663 21.8578C118.853 21.8578 117.322 23.114 116.811 24.833C116.42 24.833 116.035 24.8264 115.644 24.8065C115.545 24.7933 115.445 24.8396 115.366 24.9057C115.286 24.9784 115.24 25.0842 115.233 25.1966C115.233 25.309 115.266 25.4148 115.339 25.4941C115.412 25.5735 115.505 25.6131 115.604 25.6197C115.949 25.633 116.301 25.6396 116.645 25.6396C116.632 25.785 116.625 25.9305 116.625 26.0826C116.625 28.4164 118.435 30.3073 120.656 30.3073C122.877 30.3073 124.687 28.4098 124.687 26.0826H124.694ZM120.663 22.671C121.764 22.671 122.731 23.2528 123.315 24.1255C122.373 24.3305 121.419 24.5024 120.464 24.6148C119.529 24.7272 118.588 24.7867 117.653 24.8131C118.13 23.5569 119.297 22.6644 120.663 22.6644V22.671ZM120.663 29.4941C118.873 29.4941 117.414 27.9602 117.414 26.0826C117.414 25.9305 117.441 25.7784 117.461 25.633C117.6 25.633 117.739 25.6264 117.878 25.6197C117.991 26.2412 118.296 27.1933 119.151 27.7817C119.794 28.2247 120.457 28.2776 120.729 28.2776H120.743C120.941 28.2776 121.638 28.2313 122.274 27.7751C123.09 27.1933 123.54 26.1222 123.507 24.9189C123.567 24.9057 123.633 24.8925 123.693 24.8792C123.825 25.2561 123.912 25.6528 123.912 26.0826C123.912 27.9668 122.453 29.4941 120.663 29.4941ZM117.434 20.8131C117.487 20.8396 117.547 20.8528 117.607 20.8528C117.759 20.8528 117.892 20.7602 117.958 20.6214C118.011 20.5024 118.177 20.2049 118.495 19.9999C118.754 19.8412 118.972 19.8214 119.072 19.828C119.178 19.828 119.271 19.795 119.35 19.7288C119.43 19.6561 119.476 19.5503 119.483 19.4379C119.49 19.2131 119.324 19.0214 119.105 19.0148C118.913 19.0082 118.522 19.0346 118.091 19.3057C117.587 19.6231 117.335 20.0859 117.249 20.271C117.156 20.4693 117.235 20.714 117.428 20.8131H117.434ZM136.336 24.5024C136.25 24.4429 136.15 24.4164 136.051 24.4363C135.752 24.4892 135.454 24.5288 135.156 24.5619C134.572 22.9883 133.107 21.8644 131.403 21.8644C130.011 21.8644 128.785 22.6049 128.062 23.7288C127.982 23.7156 127.903 23.7156 127.83 23.7553C127.73 23.8016 127.657 23.8875 127.624 23.9933C127.578 24.1388 127.618 24.2908 127.711 24.4032C127.492 24.9189 127.372 25.4941 127.372 26.0958C127.372 28.4297 129.182 30.3206 131.403 30.3206C133.624 30.3206 135.434 28.423 135.434 26.0958C135.434 25.8379 135.408 25.5933 135.368 25.3487C135.64 25.3156 135.912 25.2892 136.177 25.2495C136.389 25.2164 136.535 25.0049 136.502 24.7801C136.482 24.6677 136.429 24.5751 136.336 24.509V24.5024ZM131.403 22.6776C132.696 22.6776 133.803 23.4776 134.327 24.628C133.724 24.6611 133.127 24.6677 132.537 24.6346C131.291 24.5685 130.064 24.3371 128.877 23.9735C129.474 23.1867 130.382 22.671 131.41 22.671L131.403 22.6776ZM131.403 29.5007C129.613 29.5007 128.155 27.9668 128.155 26.0892C128.155 25.5933 128.261 25.1239 128.446 24.6941C128.506 24.714 128.566 24.7338 128.625 24.7536C128.586 25.2759 128.572 26.8032 129.646 27.7619C130.283 28.3305 131.019 28.4495 131.165 28.4627C131.224 28.4627 131.324 28.4759 131.456 28.4759C131.775 28.4759 132.265 28.423 132.749 28.1652C133.644 27.6892 134.228 26.6578 134.32 25.428C134.413 25.428 134.499 25.428 134.592 25.4148C134.632 25.633 134.659 25.8511 134.659 26.0759C134.659 27.9602 133.2 29.4875 131.41 29.4875L131.403 29.5007ZM132.517 19.9536C132.61 19.9404 132.955 19.9206 133.299 20.1123C133.558 20.2512 133.691 20.4429 133.744 20.5421C133.817 20.6677 133.943 20.747 134.088 20.747H134.155C134.201 20.7338 134.241 20.714 134.281 20.6941C134.466 20.5817 134.533 20.3371 134.427 20.1388C134.334 19.9602 134.102 19.6297 133.657 19.385C133.134 19.1007 132.63 19.1206 132.431 19.1404C132.219 19.1669 132.06 19.3652 132.08 19.59C132.093 19.6958 132.139 19.795 132.219 19.8611C132.298 19.9272 132.404 19.9669 132.511 19.9536H132.517ZM125.125 30.8363C125.125 31.385 125.622 31.828 126.239 31.828C126.855 31.828 127.352 31.385 127.352 30.8363C127.352 30.2875 126.855 29.8445 126.239 29.8445C125.622 29.8445 125.125 30.2875 125.125 30.8363ZM128.108 32.8925C128.002 32.8726 127.903 32.8925 127.817 32.952C127.485 33.1768 126.789 33.547 125.894 33.4611C125.277 33.4016 124.8 33.1503 124.508 32.9454C124.422 32.4693 124.183 32.1123 124.057 31.9536C123.991 31.8677 123.892 31.8148 123.792 31.8082C123.686 31.8082 123.587 31.8346 123.507 31.9007C123.341 32.0462 123.322 32.304 123.461 32.4759C123.573 32.6148 123.832 32.9982 123.759 33.4875C123.686 33.9635 123.341 34.2478 123.202 34.347C123.023 34.4726 122.977 34.7239 123.09 34.909C123.162 35.0214 123.288 35.0941 123.421 35.0941C123.494 35.0941 123.573 35.0677 123.64 35.028C123.845 34.8892 124.303 34.5057 124.482 33.8644C124.833 34.0495 125.291 34.228 125.834 34.2809C125.954 34.2941 126.066 34.2941 126.172 34.2941H126.192C127.16 34.2941 127.903 33.8842 128.261 33.6396C128.44 33.5206 128.493 33.2627 128.373 33.0776C128.314 32.985 128.228 32.9189 128.122 32.8991L128.108 32.8925ZM126.371 21.5867H126.391C127.671 21.5867 128.566 20.1718 128.572 18.9024C128.572 17.871 127.969 16.6545 126.955 16.4098C126.411 16.2776 125.794 16.4429 125.277 16.8594C124.648 17.3553 124.25 18.1156 124.217 18.8826C124.183 19.59 124.462 20.3569 124.946 20.8859C125.344 21.3288 125.854 21.5735 126.378 21.5801L126.371 21.5867ZM125.655 17.3685C125.947 17.1371 126.272 17.0115 126.577 17.0115C126.656 17.0115 126.743 17.0181 126.815 17.0379C127.518 17.2098 127.956 18.1355 127.956 18.8958C127.956 19.8611 127.286 20.9388 126.398 20.9388C126.04 20.9388 125.688 20.7669 125.403 20.4429C125.032 20.033 124.82 19.4512 124.846 18.909C124.873 18.3338 125.185 17.7388 125.662 17.3619L125.655 17.3685Z" fill="white"/>
</g>
<g clip-path="url(#clip5_90_2)">
<path d="M194.201 60.3182C194.201 60.3182 194.188 60.3182 194.181 60.3116C192.351 59.3264 190.037 59.214 187.982 60.0008C187.538 60.1727 187.133 60.3975 186.742 60.6421C186.185 59.419 185.489 58.3083 184.641 57.3364C181.644 53.938 177.129 52.0537 171.215 51.7364L170.996 47.5975C171.772 47.181 172.409 46.5331 172.767 45.7661C173.734 43.7496 172.541 41.7793 171.023 40.8008C170.174 40.219 169.087 39.9413 167.947 40.0141C165.467 40.1463 163.83 42.0174 163.491 43.8091C163.147 45.6207 164.022 47.2074 165.838 48.0736C165.765 49.105 165.666 50.5331 165.58 51.8289C161.018 52.2256 153.586 53.7529 150.205 59.3859C149.88 59.9347 149.622 60.4901 149.416 61.0587C149.323 60.9992 149.237 60.9264 149.138 60.8735C146.897 59.5777 144.218 59.3529 142.15 60.2917C140.188 61.1777 138.146 63.4454 138.006 66.4934C137.867 69.5744 139.743 72.5694 142.375 73.462C142.926 73.6471 143.496 73.7396 144.066 73.7396C145.955 73.7396 147.54 72.7347 148.455 72.0603C149.217 74.381 150.742 75.776 151.412 76.3777C153.666 78.414 157.306 79.8091 167.728 79.9876C168.384 80.0008 169.007 80.0008 169.611 80.0008C180.126 80.0008 183.162 78.3479 184.747 76.7281C186.464 74.9694 187.418 72.7545 187.651 72.0272C188.99 73.0851 190.422 73.6471 191.834 73.6471C192.311 73.6471 192.795 73.581 193.259 73.4553C195.978 72.7082 197.967 69.8917 198 66.7644C198.033 63.538 195.978 61.2768 194.207 60.3248L194.201 60.3182ZM188.446 61.2835C189.169 61.0058 189.978 60.8603 190.773 60.8603C191.794 60.8603 192.769 61.0917 193.591 61.5347C195.03 62.3083 196.7 64.1397 196.674 66.7446C196.647 69.2306 195.036 71.5446 192.915 72.1264C190.879 72.6884 189.096 71.5314 188.035 70.5859C188.446 68.543 188.247 66.8041 188.108 65.6868C188.108 65.6868 188.108 65.6669 188.108 65.6603V65.6074C187.942 64.2917 187.657 63.0686 187.266 61.9314C187.624 61.6802 188.009 61.4554 188.446 61.2901V61.2835ZM148.508 65.2438L148.355 66.3016C148.123 67.895 147.931 69.2372 148.117 70.619C148.117 70.619 148.104 70.6322 148.097 70.6322C147.281 71.2669 145.12 72.9463 142.786 72.1595C140.705 71.452 139.22 69.0454 139.332 66.5595C139.445 64.1 141.096 62.2686 142.687 61.5479C143.363 61.2438 144.119 61.0851 144.941 61.0851C146.154 61.0851 147.381 61.4289 148.495 62.0702C148.674 62.176 148.846 62.2818 149.012 62.4008C148.773 63.3793 148.634 64.3446 148.508 65.2504V65.2438ZM186.424 71.5314C186.424 71.5314 185.615 73.9049 183.812 75.7496C182.91 76.6752 180.782 78.8372 167.741 78.6124C155.675 78.4074 153.46 76.4107 152.274 75.3396C151.677 74.7975 150.271 73.5347 149.642 71.4587C149.171 69.8983 149.376 68.4702 149.662 66.5L149.814 65.4289C150.053 63.7231 150.318 61.7859 151.326 60.1C153.049 57.224 156.185 55.1744 160.634 54.024C162.159 53.6273 163.783 53.3628 165.48 53.2041C165.46 53.5149 165.441 53.8058 165.421 54.057C165.421 54.0636 165.421 54.0769 165.421 54.0901C165.407 54.4868 165.686 54.7116 165.971 54.7314C165.984 54.7314 165.997 54.7314 166.011 54.7314C166.283 54.7314 166.561 54.5463 166.601 54.176C166.727 52.5628 166.979 49.3033 167.098 47.6901C167.125 47.386 166.932 47.1083 166.66 47.0289C165.62 46.6719 164.91 45.938 164.718 45.019C164.512 44.0471 164.91 42.976 165.779 42.1694C167.29 40.8802 169.697 40.9661 171.036 42.3612C171.739 43.0223 172.044 43.8422 171.898 44.6752C171.752 45.5347 171.116 46.2884 170.207 46.6851C169.982 46.7777 169.843 47.0091 169.856 47.2603L170.327 54.0504C170.36 54.381 170.618 54.5397 170.857 54.5198C171.102 54.5066 171.341 54.3149 171.328 53.9777L171.281 53.1116C176.764 53.4355 180.934 55.1545 183.659 58.2488C185.357 60.1727 186.404 62.7049 186.782 65.7661L186.795 65.852C186.961 67.1744 187.206 69.1777 186.424 71.5182V71.5314Z" fill="white"/>
<path d="M166.694 66.0826C166.694 63.7487 164.884 61.8578 162.663 61.8578C160.853 61.8578 159.322 63.114 158.811 64.833C158.42 64.833 158.035 64.8264 157.644 64.8065C157.545 64.7933 157.445 64.8396 157.366 64.9057C157.286 64.9784 157.24 65.0842 157.233 65.1966C157.233 65.309 157.266 65.4148 157.339 65.4941C157.412 65.5735 157.505 65.6131 157.604 65.6197C157.949 65.633 158.301 65.6396 158.645 65.6396C158.632 65.785 158.625 65.9305 158.625 66.0826C158.625 68.4164 160.435 70.3073 162.656 70.3073C164.877 70.3073 166.687 68.4098 166.687 66.0826H166.694ZM162.663 62.671C163.764 62.671 164.731 63.2528 165.315 64.1255C164.373 64.3305 163.419 64.5024 162.464 64.6148C161.529 64.7272 160.588 64.7867 159.653 64.8131C160.13 63.5569 161.297 62.6644 162.663 62.6644V62.671ZM162.663 69.4941C160.873 69.4941 159.414 67.9602 159.414 66.0826C159.414 65.9305 159.441 65.7784 159.461 65.633C159.6 65.633 159.739 65.6264 159.878 65.6197C159.991 66.2412 160.296 67.1933 161.151 67.7817C161.794 68.2247 162.457 68.2776 162.729 68.2776H162.743C162.941 68.2776 163.638 68.2313 164.274 67.7751C165.09 67.1933 165.54 66.1222 165.507 64.9189C165.567 64.9057 165.633 64.8925 165.693 64.8792C165.825 65.2561 165.912 65.6528 165.912 66.0826C165.912 67.9668 164.453 69.4941 162.663 69.4941ZM159.434 60.8131C159.487 60.8396 159.547 60.8528 159.607 60.8528C159.759 60.8528 159.892 60.7602 159.958 60.6214C160.011 60.5024 160.177 60.2049 160.495 59.9999C160.754 59.8412 160.972 59.8214 161.072 59.828C161.178 59.828 161.271 59.795 161.35 59.7288C161.43 59.6561 161.476 59.5503 161.483 59.4379C161.49 59.2131 161.324 59.0214 161.105 59.0148C160.913 59.0082 160.522 59.0346 160.091 59.3057C159.587 59.6231 159.335 60.0859 159.249 60.271C159.156 60.4693 159.235 60.714 159.428 60.8131H159.434ZM178.336 64.5024C178.25 64.4429 178.15 64.4164 178.051 64.4363C177.752 64.4892 177.454 64.5288 177.156 64.5619C176.572 62.9883 175.107 61.8644 173.403 61.8644C172.011 61.8644 170.785 62.6049 170.062 63.7288C169.982 63.7156 169.903 63.7156 169.83 63.7553C169.73 63.8016 169.657 63.8875 169.624 63.9933C169.578 64.1388 169.618 64.2908 169.711 64.4032C169.492 64.9189 169.372 65.4941 169.372 66.0958C169.372 68.4297 171.182 70.3206 173.403 70.3206C175.624 70.3206 177.434 68.423 177.434 66.0958C177.434 65.8379 177.408 65.5933 177.368 65.3487C177.64 65.3156 177.912 65.2892 178.177 65.2495C178.389 65.2164 178.535 65.0049 178.502 64.7801C178.482 64.6677 178.429 64.5751 178.336 64.509V64.5024ZM173.403 62.6776C174.696 62.6776 175.803 63.4776 176.327 64.628C175.724 64.6611 175.127 64.6677 174.537 64.6346C173.291 64.5685 172.064 64.3371 170.877 63.9735C171.474 63.1867 172.382 62.671 173.41 62.671L173.403 62.6776ZM173.403 69.5007C171.613 69.5007 170.155 67.9668 170.155 66.0892C170.155 65.5933 170.261 65.1239 170.446 64.6941C170.506 64.714 170.566 64.7338 170.625 64.7536C170.586 65.2759 170.572 66.8032 171.646 67.7619C172.283 68.3305 173.019 68.4495 173.165 68.4627C173.224 68.4627 173.324 68.4759 173.456 68.4759C173.775 68.4759 174.265 68.423 174.749 68.1652C175.644 67.6892 176.228 66.6578 176.32 65.428C176.413 65.428 176.499 65.428 176.592 65.4148C176.632 65.633 176.659 65.8511 176.659 66.0759C176.659 67.9602 175.2 69.4875 173.41 69.4875L173.403 69.5007ZM174.517 59.9536C174.61 59.9404 174.955 59.9206 175.299 60.1123C175.558 60.2512 175.691 60.4429 175.744 60.5421C175.817 60.6677 175.943 60.747 176.088 60.747H176.155C176.201 60.7338 176.241 60.714 176.281 60.6941C176.466 60.5817 176.533 60.3371 176.427 60.1388C176.334 59.9602 176.102 59.6297 175.657 59.385C175.134 59.1007 174.63 59.1206 174.431 59.1404C174.219 59.1669 174.06 59.3652 174.08 59.59C174.093 59.6958 174.139 59.795 174.219 59.8611C174.298 59.9272 174.404 59.9669 174.511 59.9536H174.517ZM167.125 70.8363C167.125 71.385 167.622 71.828 168.239 71.828C168.855 71.828 169.352 71.385 169.352 70.8363C169.352 70.2875 168.855 69.8445 168.239 69.8445C167.622 69.8445 167.125 70.2875 167.125 70.8363ZM170.108 72.8925C170.002 72.8726 169.903 72.8925 169.817 72.952C169.485 73.1768 168.789 73.547 167.894 73.4611C167.277 73.4016 166.8 73.1503 166.508 72.9454C166.422 72.4693 166.183 72.1123 166.057 71.9536C165.991 71.8677 165.892 71.8148 165.792 71.8082C165.686 71.8082 165.587 71.8346 165.507 71.9007C165.341 72.0462 165.322 72.304 165.461 72.4759C165.573 72.6148 165.832 72.9982 165.759 73.4875C165.686 73.9635 165.341 74.2478 165.202 74.347C165.023 74.4726 164.977 74.7239 165.09 74.909C165.162 75.0214 165.288 75.0941 165.421 75.0941C165.494 75.0941 165.573 75.0677 165.64 75.028C165.845 74.8892 166.303 74.5057 166.482 73.8644C166.833 74.0495 167.291 74.228 167.834 74.2809C167.954 74.2941 168.066 74.2941 168.172 74.2941H168.192C169.16 74.2941 169.903 73.8842 170.261 73.6396C170.44 73.5206 170.493 73.2627 170.373 73.0776C170.314 72.985 170.228 72.9189 170.122 72.8991L170.108 72.8925ZM168.371 61.5867H168.391C169.671 61.5867 170.566 60.1718 170.572 58.9024C170.572 57.871 169.969 56.6545 168.955 56.4098C168.411 56.2776 167.794 56.4429 167.277 56.8594C166.648 57.3553 166.25 58.1156 166.217 58.8826C166.183 59.59 166.462 60.3569 166.946 60.8859C167.344 61.3288 167.854 61.5735 168.378 61.5801L168.371 61.5867ZM167.655 57.3685C167.947 57.1371 168.272 57.0115 168.577 57.0115C168.656 57.0115 168.743 57.0181 168.815 57.0379C169.518 57.2098 169.956 58.1355 169.956 58.8958C169.956 59.8611 169.286 60.9388 168.398 60.9388C168.04 60.9388 167.688 60.7669 167.403 60.4429C167.032 60.033 166.82 59.4512 166.846 58.909C166.873 58.3338 167.185 57.7388 167.662 57.3619L167.655 57.3685Z" fill="white"/>
</g>
</g>
</g>
<defs>
<clipPath id="clip0_90_2">
<rect width="168" height="80" fill="white"/>
</clipPath>
<clipPath id="clip1_90_2">
<rect width="60" height="40" fill="white" transform="translate(12)"/>
</clipPath>
<clipPath id="clip2_90_2">
<rect width="60" height="40" fill="white" transform="translate(54 40)"/>
</clipPath>
<clipPath id="clip3_90_2">
<rect width="60" height="40" fill="white" transform="translate(-30 40)"/>
</clipPath>
<clipPath id="clip4_90_2">
<rect width="60" height="40" fill="white" transform="translate(96)"/>
</clipPath>
<clipPath id="clip5_90_2">
<rect width="60" height="40" fill="white" transform="translate(138 40)"/>
</clipPath>
</defs>
</svg>
