<svg width="452" height="721" viewBox="0 0 452 721" fill="none" xmlns="http://www.w3.org/2000/svg">
<path d="M401.954 659.011C404.648 680.037 413.699 695.916 425.586 702.624C431.525 705.978 446.37 710.971 464.328 708.452C474.61 707.012 479.712 706.077 483.198 700.623C486.805 694.981 486.673 689.615 486.442 679.872C486.431 679.399 486.42 678.915 486.409 678.42C488.829 678.189 491.314 677.76 493.898 677.123C495.02 676.848 496.087 676.54 497.12 676.221C497.142 677.386 497.164 678.519 497.197 679.608C497.45 690.297 497.637 698.016 492.26 706.418C485.948 716.293 476.171 717.657 465.823 719.108C461.942 719.658 458.148 719.9 454.497 719.9C439.838 719.9 427.39 715.996 420.308 712.004C403.582 702.58 393.388 682.346 390.968 657.746C394.806 658.098 398.468 658.527 401.954 659.022V659.011Z" fill="#212121"/>
<path d="M245.382 669.866C247.593 670.438 250.023 670.977 252.783 671.45C253.927 671.648 255.048 671.824 256.159 671.967C256.159 675.079 256.093 677.883 256.027 680.379C255.796 690.123 255.664 695.5 259.271 701.13C262.757 706.585 267.86 707.519 278.142 708.96C296.099 711.467 310.934 706.486 316.872 703.132C329.101 696.237 338.338 679.643 340.724 657.715C344.166 657.385 347.795 657.121 351.633 656.923C349.456 682.128 339.185 702.901 322.162 712.501C315.08 716.493 302.631 720.397 287.973 720.397C284.322 720.397 280.528 720.155 276.646 719.605C266.287 718.153 256.511 716.779 250.21 706.915C244.832 698.502 245.019 690.782 245.272 680.104C245.349 676.992 245.426 673.627 245.393 669.856L245.382 669.866Z" fill="#212121"/>
<path d="M137.767 507.07C144.398 486.451 156.363 460.477 177.565 440.408C180.094 442.486 183.041 444.631 186.604 446.786C145.322 484.626 133.193 554.873 138.735 598.772C140.154 610.077 147.873 642.353 160.135 646.388C163.412 647.477 166.843 647.158 171.604 646.74C178.181 646.147 187.198 645.333 200.702 647.928C215.811 650.82 223.52 654.702 230.327 658.133C236.771 661.377 242.336 664.181 253.706 666.161C269.454 668.899 280 665.864 294.592 661.652C310.747 657 330.794 651.216 365.51 651.216C366.016 651.216 366.533 651.216 367.05 651.216C368.71 651.216 370.008 651.249 370.822 651.26C410.366 651.953 434.361 660.211 451.879 666.249C467.868 671.758 478.425 675.387 492.622 671.89C505.411 668.745 511.328 662.653 517.596 656.198C524.469 649.116 532.265 641.099 548.793 638.02C552.411 637.349 555.831 637.052 559.053 637.052C570.974 637.052 580.365 641.022 588.228 644.354C594.727 647.103 599.862 649.27 603.799 648.016C611.684 645.487 619.822 625.407 619.063 587.314C617.413 505.289 595.068 462.006 571.392 439.176C574.581 437.032 577.451 434.855 580.112 432.666C605.053 457.475 628.135 503.134 629.829 587.094C630.214 606.173 628.773 651.304 607.109 658.265C599.368 660.75 591.934 657.605 584.06 654.273C574.933 650.413 564.596 646.037 550.784 648.61C537.621 651.062 531.924 656.923 525.337 663.708C518.618 670.625 511.009 678.466 495.217 682.348C490.445 683.525 485.991 684.03 481.702 684.03C470.464 684.03 460.336 680.544 448.393 676.432C430.622 670.306 408.497 662.697 370.646 662.037C369.865 662.026 368.612 662.004 367.006 661.993C332.828 661.839 313.309 667.469 297.583 672C282.815 676.256 270.058 679.929 251.87 676.762C238.938 674.507 232.109 671.065 225.5 667.744C219.023 664.478 212.325 661.113 198.689 658.496C186.659 656.198 178.851 656.89 172.572 657.462C166.997 657.968 162.169 658.397 156.77 656.615C147.555 653.58 139.967 643.298 134.215 626.055C129.773 612.716 128.068 600.246 128.057 600.125C124.494 571.863 128.123 537.07 137.767 507.07Z" fill="#212121"/>
<path d="M258.535 565.43C254.862 558.315 245.008 559.624 239.389 556.193C233.99 553.081 231.9 547.472 231.043 541.358C230.086 534.947 229.646 528.03 229.173 521.366C228.722 514.702 228.887 508.313 230.284 502.001C231.186 496.623 233.385 491.455 233.308 485.813C233.11 483.273 230.438 481.217 227.92 482.042C225.896 482.58 224.368 484.681 223.268 486.11C218.957 491.708 215.658 498.636 210.105 502.517C209.742 502.704 209.522 502.704 209.698 502.693C209.874 502.671 210.215 502.847 210.116 502.781C206.982 497.679 207.686 486.869 199.317 486.385C191.267 486.451 185.428 498.834 183.537 505.333C176.928 531.879 193.368 582.123 217.308 596.826C226.996 602.456 240.764 604.831 249.759 596.617C258.04 589.216 263.89 576.207 258.535 565.43ZM253.487 568.344C256.016 573.26 254.268 580.133 251.519 584.916C248.505 590.228 243.678 594.571 238.158 595.22C229.272 595.946 220.068 591.382 214.306 584.575C203.903 572.017 197.623 556.512 193.951 540.72C191.553 528.514 188.375 515.307 193.368 503.474C194.973 500.252 196.788 496.744 199.449 494.831C199.284 494.952 198.58 494.831 198.349 494.666C200.527 498.878 201.296 510.501 209.456 510.754C219.188 510.325 225.06 495.249 230.515 488.937C230.614 488.816 230.603 488.86 230.636 488.805C230.636 488.805 230.537 488.892 230.471 488.914C230.416 488.947 230.438 488.914 230.328 488.98C228.766 489.75 226.611 488.816 226.105 487.144C226.039 486.913 226.05 486.968 226.028 486.858C226.028 486.66 226.028 487.001 226.017 487.265C225.434 491.73 224.236 496.095 223.433 500.648C222.047 507.664 222.047 514.988 222.685 521.85C224.807 540.665 222.982 561.394 246.9 564.814C249.715 565.441 252.024 565.958 253.487 568.355V568.344Z" fill="#212121"/>
<path d="M47.8031 245.281C70.4565 233.603 99.169 232.206 124.605 241.531C133.061 244.633 140.616 248.767 147.115 253.749C145.245 257.895 143.618 261.952 142.188 265.9C136.14 260.699 128.761 256.421 120.283 253.309C110.661 249.779 100.324 248.042 90.1187 248.042C77.1315 248.042 64.3533 250.868 53.5545 256.432C34.86 266.065 13.1523 288.774 13.4932 321.082C13.8231 351.939 34.8819 380.674 62.4948 387.931C92.45 395.805 118.182 376.704 130.851 364.618C131.313 364.178 131.785 363.706 132.269 363.222C133.138 367.73 134.282 372.382 135.766 377.144C117.061 393.705 96.6948 402.326 76.7466 402.326C70.8743 402.326 65.0461 401.578 59.2947 400.072C25.8646 391.285 1.31976 358.119 0.934875 321.214C0.528 283.187 25.9305 256.542 47.7921 245.27L47.8031 245.281Z" fill="#212121"/>
<path d="M125.869 308.556L125.913 308.226L126.001 307.545C131.125 267.571 145.641 234.372 169.152 208.871C221.222 152.402 299.486 142.879 347.476 141.526C346.783 145.463 345.98 149.675 345.045 154.162C298.771 155.778 226.181 165.532 178.378 217.382C156.671 240.926 143.233 271.805 138.449 309.15L138.317 310.173C136.228 326.338 133.083 350.762 143.101 379.43C143.2 379.716 153.526 408.594 176.608 431.126C188.198 442.453 215.371 468.988 381.181 466.261C534.465 463.765 562.748 439.374 577.946 426.266C585.655 419.624 603.689 404.063 611.783 378.562C617.886 359.295 615.247 341.932 611.596 317.893C611.2 315.33 610.804 312.691 610.397 309.975L609.683 305.048C606.658 284.22 603.238 260.621 590.273 239.958C568.192 204.769 528.186 179.784 471.376 165.708C449.438 160.276 425.971 156.702 401.349 155.041C400.898 150.423 400.403 146.211 399.908 142.406C459.049 146.244 557.129 163.509 600.918 233.283C615.302 256.201 618.92 281.196 622.12 303.245L622.835 308.138C623.231 310.844 623.637 313.461 624.022 316.012C627.783 340.766 630.752 360.318 623.769 382.367C614.609 411.255 594.683 428.443 586.171 435.789C558.009 460.081 512.405 476.697 381.412 478.83C373.164 478.962 365.235 479.028 357.626 479.028C226.17 479.028 187.726 459.52 167.854 440.122C145.674 418.469 133.852 391.362 131.4 383.543L131.268 383.587C120.271 352.126 123.779 324.865 125.88 308.578L125.869 308.556Z" fill="#212121"/>
<path d="M408.321 168.458C406.947 148.917 404.143 109.713 402.691 90.1939L398.556 96.0991C400.206 95.6043 401.525 95.1314 402.911 94.5596C458.313 70.7516 431.942 3.18744 378.465 0.526222C365.434 -0.254548 351.93 2.45066 340.867 9.67553C321.381 21.673 308.383 44.8212 319.555 67.0457C324.9 77.9765 334.632 86.0151 345.497 90.2818L342.374 85.3333L337.865 167.292C337.689 172.791 345.794 173.439 346.355 167.831L352.326 85.9601C352.491 83.7498 351.16 81.7703 349.203 81.0116C324.724 70.7296 317.631 43.9525 338.14 25.5109C356.263 7.50917 387.812 7.20126 407.365 23.1026C430.876 44.0734 426.004 75.0623 395.499 85.1463C392.849 85.8831 391.144 88.4124 391.364 91.0516C392.871 110.516 396.016 149.807 397.61 169.272C398.347 176.233 408.618 175.595 408.343 168.458H408.321Z" fill="#212121"/>
<path d="M435.725 358.536C459.797 358.536 479.382 338.95 479.382 314.878C479.382 290.807 459.797 271.221 435.725 271.221C411.653 271.221 392.068 290.807 392.068 314.878C392.068 338.95 411.653 358.536 435.725 358.536ZM435.725 278.402C455.838 278.402 472.201 294.765 472.201 314.878C472.201 334.992 455.838 351.366 435.725 351.366C415.612 351.366 399.249 335.003 399.249 314.878C399.249 294.754 415.612 278.402 435.725 278.402Z" fill="#212121"/>
<path d="M405.341 298.925C403.79 312.572 408.662 325.493 418.405 332.124C425.641 337.051 433.702 337.238 434.867 337.249C436.187 337.26 444.236 337.249 451.934 332.168C465.691 323.096 466.351 305.765 466.395 303.885C456.894 304.38 445.996 304.358 433.999 303.291C423.376 302.345 413.775 300.762 405.341 298.925Z" fill="#212121"/>
<path d="M477.04 309.622C481.802 309.622 486.541 309.523 491.27 309.325C493.249 309.248 494.789 307.577 494.701 305.597C494.624 303.618 492.964 302.078 490.973 302.166C473.411 302.892 455.53 302.243 437.826 300.22C425.641 298.834 413.468 296.789 401.613 294.138C399.678 293.71 397.764 294.919 397.336 296.855C396.907 298.79 398.116 300.704 400.052 301.132C412.148 303.838 424.586 305.927 437.012 307.346C450.318 308.863 463.734 309.622 477.04 309.622Z" fill="#212121"/>
<path d="M469.375 259.324C469.903 259.324 470.431 259.203 470.937 258.961C472.718 258.093 473.466 255.948 472.597 254.167C471.684 252.286 468.979 247.569 463.613 244.347C459.049 241.608 454.914 241.333 452.847 241.421C450.868 241.498 449.328 243.17 449.405 245.149C449.482 247.129 451.142 248.679 453.133 248.591C454.398 248.536 456.96 248.723 459.929 250.505C463.646 252.737 465.515 256.003 466.153 257.301C466.769 258.576 468.056 259.324 469.386 259.324H469.375Z" fill="#212121"/>
<path d="M317.499 358.536C341.57 358.536 361.156 338.95 361.156 314.878C361.156 290.807 341.57 271.221 317.499 271.221C293.427 271.221 273.841 290.807 273.841 314.878C273.841 338.95 293.427 358.536 317.499 358.536ZM317.499 278.402C337.612 278.402 353.975 294.765 353.975 314.878C353.975 334.992 337.612 351.366 317.499 351.366C297.385 351.366 281.011 335.003 281.011 314.878C281.011 294.754 297.374 278.402 317.499 278.402Z" fill="#212121"/>
<path d="M285.96 304.884C286.147 318.619 292.613 330.825 303.126 336.17C310.934 340.139 318.951 339.304 320.105 339.172C321.117 339.051 329.332 337.995 336.391 331.969C349.874 320.466 347.421 300.892 347.19 299.242C338.833 301.926 327.913 304.576 314.937 305.599C303.709 306.478 293.867 305.906 285.96 304.895V304.884Z" fill="#212121"/>
<path d="M295.791 307.778C299.035 307.778 302.258 307.701 305.48 307.525C322.821 306.623 339.888 303.313 356.23 297.661C358.099 297.012 359.1 294.966 358.451 293.097C357.802 291.227 355.757 290.238 353.887 290.876C338.184 296.308 321.766 299.497 305.106 300.355C292.283 301.015 279.197 300.3 266.232 298.232C264.275 297.924 262.438 299.255 262.119 301.212C261.811 303.17 263.142 305.006 265.089 305.325C275.304 306.964 285.597 307.778 295.791 307.778Z" fill="#212121"/>
<path d="M287.95 258.147C289.204 258.147 290.414 257.487 291.073 256.321C291.7 255.222 293.196 253.132 296.275 251.549C300.135 249.558 303.896 249.679 305.325 249.833C307.316 250.031 309.053 248.602 309.262 246.633C309.46 244.665 308.03 242.905 306.062 242.696C303.995 242.487 298.562 242.3 292.987 245.171C288.258 247.612 285.85 250.988 284.838 252.78C283.86 254.507 284.475 256.695 286.191 257.663C286.752 257.982 287.357 258.125 287.95 258.125V258.147Z" fill="#212121"/>
<path d="M362.893 364.673C362.893 370.05 368.04 374.405 374.396 374.405C380.752 374.405 385.898 370.05 385.898 364.673C385.898 359.296 380.752 354.941 374.396 354.941C368.04 354.941 362.893 359.296 362.893 364.673Z" fill="#212121"/>
<path d="M375.254 400.206C376.43 400.206 377.64 400.151 378.871 400.041C387.405 399.271 393.959 395.917 397.951 393.234C399.6 392.134 400.04 389.902 398.93 388.252C397.83 386.603 395.598 386.163 393.948 387.274C390.649 389.484 385.239 392.255 378.212 392.893C368.139 393.817 360.331 389.858 356.57 387.428C354.91 386.35 352.688 386.823 351.611 388.483C350.533 390.144 351.006 392.365 352.666 393.443C356.735 396.082 364.774 400.195 375.232 400.195L375.254 400.206Z" fill="#212121"/>
<path d="M405.517 408.649C406.683 408.649 407.826 408.077 408.519 407.033C409.608 405.372 409.146 403.151 407.496 402.062C405.825 400.962 401.866 397.85 401.03 392.583C400.184 387.206 403.131 382.983 404.439 381.421C405.704 379.904 405.506 377.638 403.988 376.374C402.471 375.098 400.205 375.307 398.941 376.825C397.005 379.145 392.651 385.413 393.948 393.694C395.224 401.798 401.096 406.439 403.56 408.055C404.164 408.451 404.846 408.649 405.528 408.649H405.517Z" fill="#212121"/>
<path d="M372.626 266.944C378.234 266.944 383.71 264.437 388.043 259.873C393.234 254.419 396.236 246.556 395.873 239.331C395.477 231.447 391.21 223.683 384.458 218.581C378.883 214.358 372.362 212.697 366.588 214.028C355.724 216.513 349.29 228.929 349.334 239.485C349.389 252.462 358.968 266.933 372.604 266.955H372.626V266.944ZM370.602 218.954C374.099 218.954 377.838 220.318 381.214 222.869C386.625 226.971 390.187 233.382 390.495 239.606C390.781 245.402 388.351 251.758 384.15 256.168C380.84 259.654 376.738 261.567 372.626 261.567H372.615C362.432 261.567 354.767 249.888 354.723 239.452C354.69 231.194 359.671 221.121 367.798 219.262C368.711 219.053 369.657 218.954 370.613 218.954H370.602Z" fill="#212121"/>
</svg>
