<svg width="451" height="721" viewBox="0 0 451 721" fill="none" xmlns="http://www.w3.org/2000/svg">
<path d="M49.8262 659.011C47.132 680.037 38.0817 695.916 26.1942 702.624C20.256 705.978 5.41031 710.971 -12.5474 708.452C-22.8294 707.012 -27.9319 706.077 -31.4178 700.623C-35.0248 694.981 -34.8928 689.615 -34.6619 679.872C-34.6509 679.399 -34.6399 678.915 -34.6289 678.42C-37.0482 678.189 -39.5335 677.76 -42.1177 677.123C-43.2394 676.848 -44.306 676.54 -45.3397 676.221C-45.3617 677.386 -45.3837 678.519 -45.4167 679.608C-45.6696 690.297 -45.8566 698.016 -40.4792 706.418C-34.167 716.293 -24.3909 717.657 -14.0429 719.108C-10.1611 719.658 -6.36722 719.9 -2.71629 719.9C11.9424 719.9 24.3907 715.996 31.4726 712.004C48.1987 702.58 58.3927 682.346 60.812 657.746C56.9742 658.098 53.3122 658.527 49.8262 659.022V659.011Z" fill="#212121"/>
<path d="M206.398 669.866C204.188 670.438 201.758 670.977 198.997 671.45C197.854 671.648 196.732 671.824 195.621 671.967C195.621 675.079 195.687 677.883 195.753 680.379C195.984 690.123 196.116 695.5 192.509 701.13C189.023 706.585 183.921 707.519 173.639 708.96C155.681 711.467 140.847 706.486 134.908 703.132C122.68 696.237 113.443 679.643 111.056 657.715C107.614 657.385 103.985 657.121 100.148 656.923C102.325 682.128 112.596 702.901 129.619 712.501C136.701 716.493 149.149 720.397 163.808 720.397C167.459 720.397 171.253 720.155 175.134 719.605C185.493 718.153 195.27 716.779 201.571 706.915C206.948 698.502 206.761 690.782 206.508 680.104C206.431 676.992 206.354 673.627 206.387 669.856L206.398 669.866Z" fill="#212121"/>
<path d="M314.013 507.07C307.382 486.451 295.418 460.477 274.216 440.408C271.687 442.486 268.739 444.631 265.176 446.786C306.458 484.626 318.588 554.873 313.045 598.772C311.627 610.077 303.907 642.353 291.646 646.388C288.369 647.477 284.938 647.158 280.176 646.74C273.6 646.147 264.583 645.333 251.079 647.928C235.969 650.82 228.26 654.702 221.453 658.133C215.009 661.377 209.445 664.181 198.074 666.161C182.327 668.899 171.781 665.864 157.188 661.652C141.034 657 120.987 651.216 86.2701 651.216C85.7643 651.216 85.2474 651.216 84.7306 651.216C83.0701 651.216 81.7724 651.249 80.9586 651.26C41.4143 651.953 17.4194 660.211 -0.0984955 666.249C-16.0878 671.758 -26.6447 675.387 -40.8415 671.89C-53.6307 668.745 -59.547 662.653 -65.8151 656.198C-72.6881 649.116 -80.4848 641.099 -97.013 638.02C-100.631 637.349 -104.051 637.052 -107.273 637.052C-119.193 637.052 -128.585 641.022 -136.447 644.354C-142.946 647.103 -148.082 649.27 -152.019 648.016C-159.903 645.487 -168.041 625.407 -167.282 587.314C-165.633 505.289 -143.287 462.006 -119.611 439.176C-122.8 437.032 -125.671 434.855 -128.332 432.666C-153.272 457.475 -176.355 503.134 -178.048 587.094C-178.433 606.173 -176.992 651.304 -155.329 658.265C-147.587 660.75 -140.153 657.605 -132.28 654.273C-123.152 650.413 -112.815 646.037 -99.0034 648.61C-85.8403 651.062 -80.1439 656.923 -73.5569 663.708C-66.8379 670.625 -59.2281 678.466 -43.4367 682.348C-38.6641 683.525 -34.2104 684.03 -29.9217 684.03C-18.683 684.03 -8.55499 680.544 3.3875 676.432C21.1583 670.306 43.2837 662.697 81.1346 662.037C81.9154 662.026 83.169 662.004 84.7745 661.993C118.952 661.839 138.472 667.469 154.197 672C168.966 676.256 181.722 679.929 199.911 676.762C212.843 674.507 219.672 671.065 226.281 667.744C232.758 664.478 239.455 661.113 253.091 658.496C265.121 656.198 272.929 656.89 279.208 657.462C284.784 657.968 289.611 658.397 295.011 656.615C304.226 653.58 311.814 643.298 317.565 626.055C322.008 612.716 323.712 600.246 323.723 600.125C327.286 571.863 323.657 537.07 314.013 507.07Z" fill="#212121"/>
<path d="M193.246 565.43C196.919 558.315 206.772 559.624 212.391 556.193C217.791 553.081 219.88 547.472 220.738 541.358C221.695 534.947 222.134 528.03 222.607 521.366C223.058 514.702 222.893 508.313 221.497 502.001C220.595 496.623 218.396 491.455 218.473 485.813C218.671 483.273 221.343 481.217 223.861 482.042C225.884 482.58 227.413 484.681 228.513 486.11C232.823 491.708 236.122 498.636 241.676 502.517C242.039 502.704 242.259 502.704 242.083 502.693C241.907 502.671 241.566 502.847 241.665 502.781C244.799 497.679 244.095 486.869 252.464 486.385C260.513 486.451 266.353 498.834 268.244 505.333C274.853 531.879 258.413 582.123 234.473 596.826C224.785 602.456 211.017 604.831 202.021 596.617C193.741 589.216 187.891 576.207 193.246 565.43ZM198.294 568.344C195.764 573.26 197.513 580.133 200.262 584.916C203.275 590.228 208.103 594.571 213.623 595.22C222.508 595.946 231.713 591.382 237.475 584.575C247.878 572.017 254.157 556.512 257.83 540.72C260.227 528.514 263.405 515.307 258.413 503.474C256.807 500.252 254.993 496.744 252.332 494.831C252.497 494.952 253.2 494.831 253.431 494.666C251.254 498.878 250.484 510.501 242.325 510.754C232.592 510.325 226.72 495.249 221.266 488.937C221.167 488.816 221.178 488.86 221.145 488.805C221.145 488.805 221.244 488.892 221.31 488.914C221.365 488.947 221.343 488.914 221.453 488.98C223.014 489.75 225.17 488.816 225.675 487.144C225.741 486.913 225.73 486.968 225.752 486.858C225.752 486.66 225.752 487.001 225.763 487.265C226.346 491.73 227.545 496.095 228.348 500.648C229.733 507.664 229.733 514.988 229.095 521.85C226.973 540.665 228.799 561.394 204.881 564.814C202.065 565.441 199.756 565.958 198.294 568.355V568.344Z" fill="#212121"/>
<path d="M403.977 245.281C381.324 233.603 352.611 232.206 327.176 241.531C318.719 244.633 311.165 248.767 304.666 253.749C306.535 257.895 308.163 261.952 309.592 265.9C315.64 260.699 323.019 256.421 331.498 253.309C341.12 249.779 351.457 248.042 361.662 248.042C374.649 248.042 387.427 250.868 398.226 256.432C416.921 266.065 438.628 288.774 438.287 321.082C437.957 351.939 416.899 380.674 389.286 387.931C359.331 395.805 333.598 376.704 320.93 364.618C320.468 364.178 319.995 363.706 319.511 363.222C318.642 367.73 317.499 372.382 316.014 377.144C334.72 393.705 355.086 402.326 375.034 402.326C380.906 402.326 386.734 401.578 392.486 400.072C425.916 391.285 450.461 358.119 450.846 321.214C451.253 283.187 425.85 256.542 403.988 245.27L403.977 245.281Z" fill="#212121"/>
<path d="M325.912 308.556L325.868 308.226L325.78 307.545C320.655 267.571 306.139 234.372 282.628 208.871C230.559 152.402 152.295 142.879 104.305 141.526C104.998 145.463 105.8 149.675 106.735 154.162C153.01 155.778 225.599 165.532 273.402 217.382C295.11 240.926 308.548 271.805 313.331 309.15L313.463 310.173C315.553 326.338 318.698 350.762 308.68 379.43C308.581 379.716 298.255 408.594 275.173 431.126C263.582 442.453 236.409 468.988 70.5998 466.261C-82.6842 463.765 -110.968 439.374 -126.165 426.266C-133.874 419.624 -151.909 404.063 -160.002 378.562C-166.106 359.295 -163.466 341.932 -159.815 317.893C-159.42 315.33 -159.024 312.691 -158.617 309.975L-157.902 305.048C-154.878 284.22 -151.458 260.621 -138.493 239.958C-116.411 204.769 -76.405 179.784 -19.5957 165.708C2.34283 160.276 25.81 156.702 50.4317 155.041C50.8826 150.423 51.3774 146.211 51.8723 142.406C-7.26833 146.244 -105.349 163.509 -149.138 233.283C-163.521 256.201 -167.139 281.196 -170.339 303.245L-171.054 308.138C-171.45 310.844 -171.857 313.461 -172.242 316.012C-176.003 340.766 -178.972 360.318 -171.989 382.367C-162.829 411.255 -142.902 428.443 -134.391 435.789C-106.228 460.081 -60.6247 476.697 70.3688 478.83C78.6164 478.962 86.5451 479.028 94.1548 479.028C225.61 479.028 264.055 459.52 283.926 440.122C306.107 418.469 317.928 391.362 320.38 383.543L320.512 383.587C331.509 352.126 328.001 324.865 325.901 308.578L325.912 308.556Z" fill="#212121"/>
<path d="M43.4592 168.458C44.8338 148.917 47.638 109.713 49.0895 90.1939L53.2243 96.0991C51.5748 95.6043 50.2552 95.1314 48.8696 94.5596C-6.53217 70.7516 19.8381 3.18744 73.3154 0.526222C86.3466 -0.254548 99.8506 2.45066 110.913 9.67553C130.4 21.673 143.398 44.8212 132.225 67.0457C126.881 77.9765 117.149 86.0151 106.284 90.2818L109.407 85.3333L113.916 167.292C114.091 172.791 105.987 173.439 105.426 167.831L99.4548 85.9601C99.2898 83.7498 100.62 81.7703 102.578 81.0116C127.057 70.7296 134.15 43.9525 113.641 25.5109C95.5179 7.50917 63.9682 7.20126 44.4159 23.1026C20.9048 44.0734 25.7763 75.0623 56.2814 85.1463C58.9316 85.8831 60.6361 88.4124 60.4162 91.0516C58.9096 110.516 55.7646 149.807 54.17 169.272C53.4333 176.233 43.1623 175.595 43.4372 168.458H43.4592Z" fill="#212121"/>
<path d="M16.0554 358.536C-8.01649 358.536 -27.6017 338.95 -27.6017 314.878C-27.6017 290.807 -8.01649 271.221 16.0554 271.221C40.1274 271.221 59.7126 290.807 59.7126 314.878C59.7126 338.95 40.1274 358.536 16.0554 358.536ZM16.0554 278.402C-4.05765 278.402 -20.4209 294.765 -20.4209 314.878C-20.4209 334.992 -4.05765 351.366 16.0554 351.366C36.1685 351.366 52.5317 335.003 52.5317 314.878C52.5317 294.754 36.1685 278.402 16.0554 278.402Z" fill="#212121"/>
<path d="M46.4396 298.925C47.9902 312.572 43.1186 325.493 33.3754 332.124C26.1396 337.051 18.0789 337.238 16.9133 337.249C15.5936 337.26 7.54402 337.249 -0.153718 332.168C-13.9107 323.096 -14.5705 305.765 -14.6145 303.885C-5.11329 304.38 5.78454 304.358 17.782 303.291C28.4049 302.345 38.0051 300.762 46.4396 298.925Z" fill="#212121"/>
<path d="M-25.2597 309.622C-30.0213 309.622 -34.7609 309.523 -39.4895 309.325C-41.4689 309.248 -43.0085 307.577 -42.9205 305.597C-42.8435 303.618 -41.183 302.078 -39.1926 302.166C-21.6307 302.892 -3.74998 302.243 13.9548 300.22C26.1393 298.834 38.3127 296.789 50.1672 294.138C52.1026 293.71 54.0161 294.919 54.4449 296.855C54.8738 298.79 53.6642 300.704 51.7287 301.132C39.6323 303.838 27.1949 305.927 14.7686 307.346C1.46248 308.863 -11.9536 309.622 -25.2597 309.622Z" fill="#212121"/>
<path d="M-17.5946 259.324C-18.1224 259.324 -18.6503 259.203 -19.1561 258.961C-20.9376 258.093 -21.6854 255.948 -20.8166 254.167C-19.9039 252.286 -17.1987 247.569 -11.8323 244.347C-7.26864 241.608 -3.13385 241.333 -1.06645 241.421C0.912964 241.498 2.45252 243.17 2.37554 245.149C2.29856 247.129 0.638035 248.679 -1.35238 248.591C-2.61701 248.536 -5.17925 248.723 -8.14838 250.505C-11.8653 252.737 -13.7347 256.003 -14.3726 257.301C-14.9884 258.576 -16.275 259.324 -17.6056 259.324H-17.5946Z" fill="#212121"/>
<path d="M134.282 358.536C110.21 358.536 90.6248 338.95 90.6248 314.878C90.6248 290.807 110.21 271.221 134.282 271.221C158.354 271.221 177.939 290.807 177.939 314.878C177.939 338.95 158.354 358.536 134.282 358.536ZM134.282 278.402C114.169 278.402 97.8057 294.765 97.8057 314.878C97.8057 334.992 114.169 351.366 134.282 351.366C154.395 351.366 170.769 335.003 170.769 314.878C170.769 294.754 154.406 278.402 134.282 278.402Z" fill="#212121"/>
<path d="M165.82 304.884C165.633 318.619 159.167 330.825 148.654 336.17C140.847 340.139 132.83 339.304 131.675 339.172C130.664 339.051 122.449 337.995 115.389 331.969C101.907 320.466 104.359 300.892 104.59 299.242C112.948 301.926 123.868 304.576 136.844 305.599C148.071 306.478 157.914 305.906 165.82 304.895V304.884Z" fill="#212121"/>
<path d="M155.989 307.778C152.745 307.778 149.523 307.701 146.301 307.525C128.959 306.623 111.892 303.313 95.5509 297.661C93.6814 297.012 92.6807 294.966 93.3295 293.097C93.9783 291.227 96.0237 290.238 97.8932 290.876C113.597 296.308 130.015 299.497 146.675 300.355C159.497 301.015 172.583 300.3 185.548 298.232C187.506 297.924 189.342 299.255 189.661 301.212C189.969 303.17 188.638 305.006 186.692 305.325C176.476 306.964 166.183 307.778 155.989 307.778Z" fill="#212121"/>
<path d="M163.83 258.147C162.577 258.147 161.367 257.487 160.707 256.321C160.08 255.222 158.585 253.132 155.506 251.549C151.646 249.558 147.885 249.679 146.455 249.833C144.465 250.031 142.727 248.602 142.518 246.633C142.32 244.665 143.75 242.905 145.718 242.696C147.786 242.487 153.218 242.3 158.794 245.171C163.522 247.612 165.931 250.988 166.942 252.78C167.921 254.507 167.305 256.695 165.59 257.663C165.029 257.982 164.424 258.125 163.83 258.125V258.147Z" fill="#212121"/>
<path d="M88.8873 364.673C88.8873 370.05 83.7408 374.405 77.3847 374.405C71.0286 374.405 65.8821 370.05 65.8821 364.673C65.8821 359.296 71.0286 354.941 77.3847 354.941C83.7408 354.941 88.8873 359.296 88.8873 364.673Z" fill="#212121"/>
<path d="M76.5269 400.206C75.3503 400.206 74.1407 400.151 72.909 400.041C64.3755 399.271 57.8215 395.917 53.8296 393.234C52.1801 392.134 51.7402 389.902 52.8509 388.252C53.9506 386.603 56.1829 386.163 57.8324 387.274C61.1315 389.484 66.5419 392.255 73.5688 392.893C83.6419 393.817 91.4496 389.858 95.2105 387.428C96.871 386.35 99.0923 386.823 100.17 388.483C101.248 390.144 100.775 392.365 99.1143 393.443C95.0455 396.082 87.0069 400.195 76.549 400.195L76.5269 400.206Z" fill="#212121"/>
<path d="M46.2636 408.649C45.0979 408.649 43.9542 408.077 43.2614 407.033C42.1728 405.372 42.6346 403.151 44.2841 402.062C45.9556 400.962 49.9145 397.85 50.7502 392.583C51.597 387.206 48.6499 382.983 47.3413 381.421C46.0766 379.904 46.2745 377.638 47.7921 376.374C49.3097 375.098 51.575 375.307 52.8396 376.825C54.7751 379.145 59.1298 385.413 57.8322 393.694C56.5565 401.798 50.6843 406.439 48.221 408.055C47.6162 408.451 46.9344 408.649 46.2526 408.649H46.2636Z" fill="#212121"/>
<path d="M79.1549 266.944C73.5465 266.944 68.0701 264.437 63.7374 259.873C58.5469 254.419 55.5448 246.556 55.9077 239.331C56.3036 231.447 60.5703 223.683 67.3224 218.581C72.8977 214.358 79.4188 212.697 85.1921 214.028C96.0569 216.513 102.49 228.929 102.446 239.485C102.391 252.462 92.8129 266.933 79.1769 266.955H79.1549V266.944ZM81.1783 218.954C77.6813 218.954 73.9424 220.318 70.5664 222.869C65.156 226.971 61.5931 233.382 61.2851 239.606C60.9992 245.402 63.4295 251.758 67.6303 256.168C70.9403 259.654 75.0421 261.567 79.1549 261.567H79.1659C89.3489 261.567 97.0136 249.888 97.0576 239.452C97.0906 231.194 92.1091 221.121 83.9825 219.262C83.0697 219.053 82.124 218.954 81.1673 218.954H81.1783Z" fill="#212121"/>
</svg>
