<svg width="701" height="655" viewBox="0 0 701 655" fill="none" xmlns="http://www.w3.org/2000/svg">
<path d="M200.205 512.948C194.595 530.018 175.525 535.988 162.575 540.048C140.105 547.078 96.7054 551.458 71.7754 530.948C67.7454 527.628 59.7354 519.988 51.4454 521.878C44.7654 523.408 44.1554 529.698 35.9754 532.748C29.0754 535.318 20.1854 534.328 13.8354 529.768C2.25537 521.458 4.09536 504.888 4.45536 501.678C4.80536 498.498 6.64536 481.998 21.0454 475.058C30.9054 470.308 42.9754 471.808 50.4454 477.738C56.8854 482.858 55.7854 487.988 59.9654 493.738C71.6154 509.798 108.395 508.638 135.915 497.708C165.395 485.998 172.475 467.748 185.395 471.998C197.665 476.028 205.395 497.148 200.205 512.958V512.948Z" fill="#FBE1E1"/>
<path d="M203.905 514.158C198.365 531.298 180.235 538.888 164.535 543.598C147.645 548.818 129.775 550.838 112.155 549.508C101.175 548.608 90.1354 546.038 80.1954 541.178C78.9854 540.488 75.8354 538.708 74.6754 538.028C70.9554 535.588 66.8754 532.018 63.5154 529.488C58.4654 525.848 52.1754 523.298 47.6254 529.118C43.7953 533.748 37.7953 537.348 31.7654 537.938C1.74535 540.908 -6.18465 509.328 4.55535 486.488C12.3054 469.268 34.8554 463.048 50.6754 473.118C53.2354 474.748 55.7053 476.938 57.4953 479.738C59.3153 482.548 60.1153 485.458 61.0053 487.598C64.0253 495.978 73.8054 499.978 83.5454 501.368C108.575 504.438 135.305 497.298 155.925 482.758C164.915 477.108 174.045 465.108 186.205 468.738C202.785 475.038 208.095 498.298 203.135 513.898L203.905 514.148V514.158ZM197.285 511.988C201.055 499.828 197.035 480.298 184.205 475.148C179.865 473.848 176.235 476.258 172.595 478.878C168.545 481.858 164.405 485.348 159.995 488.488C137.725 504.298 109.735 511.948 82.4654 508.808C72.6754 507.458 61.6154 503.588 55.9654 494.638C53.8454 491.488 52.7253 486.548 50.9953 483.948C42.8653 473.078 23.9554 474.048 15.5454 484.258C6.47535 495.028 4.06535 519.668 17.9053 527.518C25.6954 531.758 35.9753 530.968 41.7253 523.538C46.1853 518.018 53.7354 516.128 60.2354 518.598C69.0753 521.768 73.3354 528.068 80.6454 532.108L83.8454 533.938C84.9654 534.438 87.8454 535.718 88.9254 536.208C90.0554 536.608 93.0654 537.628 94.2254 538.038C121.235 545.528 151.005 541.528 176.595 530.798C185.355 526.948 193.465 520.928 196.515 511.728L197.285 511.978V511.988Z" fill="#231815"/>
<path d="M334.235 547.488C348.805 590.508 338.515 630.308 316.305 642.838C309.195 646.848 294.445 651.028 277.995 648.718C268.505 647.388 261.825 646.318 257.395 639.388C251.245 629.778 254.675 621.188 253.545 600.568C252.095 574.248 243.475 568.958 247.045 560.318C251.065 550.588 268.655 541.148 334.245 547.498L334.235 547.488Z" fill="#FBE1E1"/>
<path d="M287.615 654.278C284.295 654.278 280.845 654.058 277.315 653.558C267.905 652.238 259.005 650.988 253.275 642.018C248.385 634.378 248.555 627.358 248.785 617.638C248.895 612.918 249.025 607.558 248.655 600.828C247.945 587.908 245.425 580.338 243.595 574.818C241.725 569.178 240.105 564.308 242.525 558.448C249.225 542.218 278.525 537.188 334.715 542.618C336.635 542.808 338.265 544.098 338.875 545.918C353.435 588.908 344.765 632.408 318.715 647.098C312.285 650.728 300.955 654.278 287.625 654.278H287.615ZM296.555 550.308C262.505 550.308 253.595 557.248 251.565 562.178C250.585 564.558 251.135 566.488 252.875 571.728C254.775 577.438 257.645 586.058 258.425 600.288C258.815 607.408 258.675 613.208 258.565 617.868C258.355 626.738 258.235 631.618 261.515 636.738C264.685 641.698 269.325 642.548 278.675 643.858C295.005 646.148 308.495 641.608 313.905 638.558C332.445 628.098 343.435 593.148 330.585 552.048C317.115 550.818 305.885 550.298 296.565 550.298L296.555 550.308Z" fill="#231815"/>
<path d="M392.435 547.958C377.865 590.978 388.155 630.778 410.365 643.308C417.475 647.318 432.225 651.498 448.675 649.188C458.165 647.858 464.845 646.788 469.275 639.858C475.425 630.248 471.995 621.658 473.125 601.038C474.575 574.718 483.195 569.428 479.625 560.788C475.605 551.058 458.015 541.618 392.425 547.968L392.435 547.958Z" fill="#FBE1E1"/>
<path d="M439.055 654.748C425.725 654.748 414.405 651.198 407.965 647.568C381.905 632.878 373.245 589.378 387.805 546.388C388.425 544.568 390.055 543.268 391.965 543.088C448.165 537.658 477.455 542.688 484.155 558.918C486.575 564.788 484.955 569.648 483.085 575.288C481.245 580.808 478.735 588.378 478.025 601.298C477.655 608.028 477.785 613.378 477.895 618.108C478.125 627.818 478.295 634.838 473.405 642.488C467.675 651.458 458.775 652.708 449.365 654.028C445.835 654.528 442.385 654.748 439.065 654.748H439.055ZM396.095 552.528C383.245 593.628 394.235 628.588 412.775 639.048C418.175 642.088 431.675 646.628 447.995 644.348C457.345 643.038 461.985 642.188 465.155 637.228C468.435 632.098 468.315 627.218 468.105 618.358C467.995 613.698 467.855 607.888 468.245 600.778C469.025 586.548 471.895 577.918 473.795 572.218C475.535 566.978 476.085 565.048 475.105 562.668C472.515 556.388 458.745 546.848 396.095 552.548V552.528Z" fill="#231815"/>
<path d="M579.615 544.748C585.035 501.808 572.525 419.688 515.535 388.678C479.715 369.188 463.565 390.138 376.125 390.718C263.145 391.458 239.225 356.818 195.795 381.958C135.435 416.898 133.535 511.658 133.095 533.628C132.975 539.358 132.385 587.808 150.365 593.588C162.535 597.498 176.145 580.028 200.985 584.658C227.495 589.588 225.305 608.878 251.785 615.398C281.965 622.828 296.855 597.948 363.805 596.778C364.525 596.768 365.685 596.748 367.175 596.738C427.945 596.438 438.785 615.868 471.055 610.248C493.575 606.328 493.675 598.568 519.325 593.658C540.195 589.658 547.935 595.038 556.825 592.108C573.175 586.718 579.275 547.428 579.605 544.768L579.615 544.748Z" fill="#FFE200"/>
<path d="M262.905 621.658C259.005 621.658 254.955 621.198 250.615 620.128C236.265 616.588 229.335 609.468 223.225 603.178C217.235 597.008 212.055 591.678 200.085 589.448C187.525 587.118 178.125 591.088 169.825 594.598C162.665 597.628 155.895 600.488 148.865 598.228C129.165 591.898 127.855 550.858 128.205 533.508C130.185 434.758 164.725 394.278 193.345 377.708C218.405 363.198 237.795 367.388 267.125 373.728C291.375 378.968 324.605 386.158 376.095 385.808C412.575 385.568 436.945 381.678 454.735 378.838C480.275 374.758 495.685 372.298 517.875 384.368C551.145 402.478 567.655 435.888 575.645 460.728C584.415 488.008 587.715 519.648 584.475 545.348C584.465 545.458 582.915 556.798 578.875 568.928C573.645 584.608 566.745 593.958 558.365 596.718C553.455 598.338 549.075 597.938 543.995 597.488C538.285 596.978 531.185 596.338 520.245 598.428C507.845 600.808 501.755 603.868 495.865 606.838C489.855 609.858 483.645 612.988 471.885 615.038C455.345 617.918 443.745 614.568 430.325 610.708C416.025 606.588 398.275 601.468 367.195 601.608C365.735 601.608 364.605 601.638 363.885 601.648C329.475 602.248 309.355 609.178 293.185 614.738C282.325 618.478 273.115 621.648 262.895 621.648L262.905 621.658ZM192.545 578.948C195.485 578.948 198.585 579.208 201.875 579.828C216.905 582.628 223.995 589.918 230.245 596.358C235.945 602.228 241.325 607.768 252.955 610.628C265.865 613.808 275.475 610.498 290.005 605.498C305.935 600.008 327.755 592.498 363.715 591.868C364.455 591.858 365.625 591.838 367.145 591.828C367.615 591.828 368.085 591.828 368.545 591.828C400.115 591.828 418.345 597.078 433.035 601.318C446.305 605.148 455.895 607.898 470.215 605.418C480.545 603.618 485.605 601.068 491.475 598.118C497.655 595.008 504.675 591.478 518.415 588.838C530.705 586.478 538.895 587.218 544.875 587.758C549.205 588.148 552.325 588.428 555.305 587.438C566.455 583.768 573.475 554.408 574.765 544.138C580.535 498.418 565.245 421.298 513.195 392.968C493.935 382.488 481.355 384.498 456.275 388.498C438.175 391.388 413.385 395.348 376.155 395.598C323.535 395.948 289.755 388.628 265.055 383.288C236.025 377.018 220.035 373.558 198.245 386.168C171.795 401.478 139.875 439.498 137.985 533.698C137.285 568.338 144.685 586.598 151.865 588.898C155.445 590.048 160.115 588.068 166.025 585.568C173.185 582.538 181.715 578.928 192.555 578.928L192.545 578.948Z" fill="#231815"/>
<path d="M468.105 515.138C472.005 508.368 481.005 512.668 488.425 504.738C493.245 499.588 493.845 492.688 495.055 478.878C495.765 470.778 496.345 464.108 494.595 455.408C492.945 447.238 491.265 441.738 492.405 441.208C494.705 440.138 504.385 461.898 510.925 460.348C515.745 459.208 515.015 446.298 519.555 445.788C523.025 445.398 527.145 452.568 528.655 455.848C529.695 458.108 530.145 459.968 530.335 460.668C531.675 465.788 531.995 472.368 530.225 483.398C526.395 507.318 517.775 521.668 511.625 529.908C505.655 537.898 500.365 540.608 495.915 542.168C492.995 543.188 486.585 545.428 480.225 542.828C470.015 538.658 463.495 523.138 468.115 515.128L468.105 515.138Z" fill="#FBE1E1"/>
<path d="M465.815 513.818C469.155 507.348 478.115 508.538 483.225 505.418C488.135 502.588 490.035 497.488 490.815 491.928C491.685 486.098 492.085 479.808 492.515 473.748C492.925 467.688 492.775 461.878 491.505 456.138C490.685 451.248 488.685 446.548 488.755 441.418C488.935 439.108 491.365 437.238 493.655 437.988C495.495 438.478 496.885 440.388 497.885 441.688C501.805 446.778 504.805 453.078 509.855 456.608C510.185 456.778 510.385 456.778 510.225 456.768C510.065 456.748 509.755 456.908 509.845 456.848C512.695 452.208 512.055 442.378 519.665 441.938C526.985 441.998 532.295 453.258 534.015 459.168C540.025 483.308 525.075 528.998 503.305 542.368C494.495 547.488 481.975 549.648 473.795 542.178C466.265 535.448 460.945 523.618 465.815 513.818ZM470.405 516.468C468.105 520.938 469.695 527.188 472.195 531.538C474.935 536.368 479.325 540.318 484.345 540.908C492.425 541.568 500.795 537.418 506.035 531.228C515.495 519.808 521.205 505.708 524.545 491.348C526.725 480.248 529.615 468.238 525.075 457.478C523.615 454.548 521.965 451.358 519.545 449.618C519.695 449.728 520.335 449.618 520.545 449.468C518.565 453.298 517.865 463.868 510.445 464.098C501.595 463.708 496.255 449.998 491.295 444.258C491.205 444.148 491.215 444.188 491.185 444.138C491.185 444.138 491.275 444.218 491.335 444.238C491.385 444.268 491.365 444.238 491.465 444.298C492.885 444.998 494.845 444.148 495.305 442.628C495.365 442.418 495.355 442.468 495.375 442.368C495.375 442.188 495.375 442.498 495.385 442.738C495.915 446.798 497.005 450.768 497.735 454.908C498.995 461.288 498.995 467.948 498.415 474.188C496.485 491.298 498.145 510.148 476.395 513.258C473.835 513.828 471.735 514.298 470.405 516.478V516.468Z" fill="#231815"/>
<path d="M237.525 510.348C233.625 503.578 224.625 507.878 217.205 499.948C212.385 494.798 211.785 487.898 210.575 474.088C209.865 465.988 209.285 459.318 211.035 450.618C212.685 442.448 214.365 436.948 213.225 436.418C210.925 435.348 201.245 457.108 194.705 455.558C189.885 454.418 190.615 441.508 186.075 440.998C182.605 440.608 178.485 447.778 176.975 451.058C175.935 453.318 175.485 455.178 175.295 455.878C173.955 460.998 173.635 467.578 175.405 478.608C179.235 502.528 187.855 516.878 194.005 525.118C199.975 533.108 205.265 535.818 209.715 537.378C212.635 538.398 219.045 540.638 225.405 538.038C235.615 533.868 242.135 518.348 237.515 510.338L237.525 510.348Z" fill="#FBE1E1"/>
<path d="M235.225 511.668C233.895 509.488 231.795 509.018 229.235 508.448C207.465 505.318 209.155 486.498 207.215 469.378C206.635 463.138 206.635 456.478 207.895 450.098C208.625 445.958 209.715 441.988 210.245 437.928C210.265 437.688 210.245 437.388 210.255 437.558C210.265 437.658 210.265 437.608 210.325 437.818C210.785 439.338 212.755 440.178 214.165 439.488C214.265 439.438 214.255 439.458 214.295 439.428C214.345 439.408 214.445 439.328 214.445 439.328C214.415 439.378 214.425 439.338 214.335 439.448C209.385 445.168 204.035 458.908 195.185 459.288C187.755 459.068 187.065 448.488 185.085 444.658C185.295 444.788 185.925 444.938 186.085 444.808C183.665 446.548 182.015 449.738 180.555 452.668C176.015 463.428 178.915 475.428 181.085 486.538C184.425 500.908 190.125 514.998 199.595 526.418C204.835 532.618 213.205 536.758 221.285 536.098C226.295 535.508 230.685 531.558 233.435 526.728C235.935 522.388 237.535 516.128 235.225 511.658V511.668ZM239.815 509.018C244.675 518.848 239.365 530.628 231.835 537.378C223.645 544.838 211.145 542.688 202.325 537.558C180.555 524.178 165.605 478.538 171.615 454.358C173.325 448.448 178.655 437.188 185.965 437.128C193.575 437.578 192.935 447.398 195.785 452.038C195.875 452.088 195.565 451.928 195.405 451.958C195.245 451.968 195.445 451.968 195.775 451.798C200.825 448.268 203.815 441.978 207.745 436.878C208.745 435.568 210.125 433.668 211.975 433.178C214.255 432.438 216.695 434.278 216.875 436.608C216.955 441.728 214.945 446.438 214.125 451.328C212.855 457.068 212.705 462.878 213.115 468.938C213.545 474.998 213.955 481.288 214.815 487.118C215.595 492.678 217.505 497.788 222.405 500.608C227.515 503.728 236.485 502.548 239.815 509.008V509.018Z" fill="#231815"/>
<path d="M170.835 275.828C165.165 238.308 106.085 209.058 63.3653 227.608C41.4653 237.118 21.6053 260.188 20.2453 289.168C18.8553 318.848 37.1353 349.048 65.1853 358.108C95.7353 367.978 122.805 347.898 133.135 340.238C138.295 336.408 175.785 308.588 170.835 275.828Z" fill="#FBE1E1"/>
<path d="M82.2253 366.518C76.1953 366.518 69.8953 365.638 63.4353 363.548C34.0153 354.038 13.0053 321.948 14.5553 288.908C16.0853 256.258 39.0353 231.968 61.1053 222.388C84.3053 212.308 114.405 214.728 139.635 228.698C160.345 240.158 173.775 257.028 176.485 274.988C178.125 285.858 177.525 314.428 136.545 344.838C127.775 351.348 107.305 366.528 82.2353 366.528L82.2253 366.518ZM92.3053 227.608C82.8553 227.608 73.7453 229.338 65.6453 232.858C46.8253 241.038 27.2553 261.698 25.9553 289.448C24.6353 317.528 42.2653 344.718 66.9453 352.698C94.6953 361.658 120.145 342.788 129.735 335.678C139.105 328.728 169.315 303.948 165.195 276.698C163.045 262.488 151.425 248.278 134.105 238.688C120.885 231.368 106.225 227.618 92.3153 227.618L92.3053 227.608Z" fill="#231815"/>
<path d="M553.145 257.118C567.525 222.318 619.435 209.518 654.825 227.758C676.155 238.748 694.655 262.648 694.345 291.688C694.035 320.958 674.685 350.278 645.525 357.938C611.125 366.978 583.425 340.548 577.975 335.348C561.345 319.478 540.865 286.828 553.145 257.108V257.118Z" fill="#FBE1E1"/>
<path d="M631.115 365.518C611.755 365.518 591.965 356.588 574.035 339.488C557.755 323.958 533.925 288.668 547.865 254.938C554.485 238.908 568.595 226.248 587.595 219.278C610.725 210.798 636.835 212.068 657.435 222.688C677.325 232.938 700.415 257.178 700.045 291.748C699.685 325.308 677.375 355.468 646.975 363.458C641.755 364.828 636.445 365.508 631.105 365.508L631.115 365.518ZM618.965 225.208C609.685 225.208 600.285 226.798 591.535 229.998C575.565 235.858 563.805 246.258 558.425 259.298C546.815 287.378 568.725 318.628 581.925 331.228C593.445 342.218 616.845 359.588 644.085 352.428C669.195 345.828 688.345 319.688 688.645 291.638C688.955 262.258 669.215 241.608 652.215 232.848C642.385 227.788 630.775 225.218 618.965 225.218V225.208Z" fill="#231815"/>
<path d="M580.755 280.658C582.675 295.538 585.785 319.028 576.165 346.548C576.165 346.548 566.565 374.018 544.295 395.758C529.545 410.158 498.525 431.688 354.175 429.338C228.255 427.288 192.895 409.938 171.605 391.578C163.355 384.468 146.805 369.838 139.125 345.598C132.555 324.868 136.285 306.938 140.175 280.658C143.185 260.338 145.885 236.138 159.295 214.788C208.965 135.638 340.145 134.158 360.465 133.928C396.055 133.528 486.705 132.498 542.895 193.448C574.455 227.678 579.335 269.718 580.745 280.668L580.755 280.658Z" fill="#FBE1E1"/>
<path d="M375.715 435.218C368.795 435.218 361.595 435.158 354.085 435.038C234.965 433.098 193.495 417.988 167.885 395.898C160.145 389.228 142.025 373.598 133.695 347.318C127.335 327.268 130.045 309.488 133.465 286.978C133.815 284.658 134.175 282.278 134.545 279.818L135.195 275.368C138.105 255.308 141.395 232.578 154.475 211.748C200.795 137.938 313.925 128.738 360.415 128.218C395.635 127.828 489.195 126.758 547.105 189.578C568.485 212.768 581.685 242.958 586.345 279.308L586.425 279.928L586.465 280.228C588.375 295.038 591.565 319.818 581.565 348.438L581.445 348.398C579.215 355.508 568.465 380.158 548.295 399.848C530.235 417.488 495.275 435.228 375.725 435.228L375.715 435.218ZM371.015 139.558C367.105 139.558 363.585 139.598 360.525 139.628C329.085 139.988 299.385 143.578 272.245 150.298C220.585 163.098 184.205 185.818 164.125 217.818C152.335 236.608 149.225 258.078 146.475 277.008L145.825 281.488C145.455 283.958 145.095 286.358 144.735 288.688C141.415 310.548 139.015 326.348 144.565 343.858C151.915 367.048 168.325 381.198 175.335 387.238C189.155 399.158 214.875 421.338 354.265 423.608C505.055 426.088 529.755 401.948 540.295 391.658C561.285 371.168 570.665 344.918 570.765 344.648C579.875 318.588 577.015 296.368 575.115 281.668L574.995 280.738C570.645 246.778 558.425 218.708 538.685 197.288C489.135 143.558 410.315 139.538 371.005 139.538L371.015 139.558Z" fill="#231815"/>
<path d="M389.825 152.008C384.145 151.658 378.085 151.508 371.685 151.668C357.845 152.008 345.435 153.678 334.775 155.848C335.615 140.838 337.165 128.948 338.485 120.608C339.445 114.538 340.745 107.458 339.455 98.018C338.695 92.418 337.715 85.838 332.815 80.518C328.535 75.868 325.715 77.028 321.755 72.978C315.725 66.828 316.105 57.638 315.985 50.468C315.915 46.188 315.655 31.538 324.675 20.258C339.135 2.18799 371.045 0.677984 389.925 14.028C401.385 22.128 406.385 34.538 407.045 36.248C410.065 44.008 410.475 50.918 410.395 55.198C408.755 59.388 405.685 65.558 399.785 70.848C394.685 75.418 390.155 77.108 388.325 78.168C381.465 82.108 377.295 98.138 389.815 152.008H389.825Z" fill="#FBE1E1"/>
<path d="M329.605 152.828C330.855 135.058 333.405 99.408 334.725 81.658L338.485 87.028C336.985 86.578 335.785 86.148 334.525 85.628C284.145 63.978 308.125 2.53798 356.755 0.117978C368.605 -0.592022 380.885 1.86798 390.945 8.43798C408.665 19.348 420.485 40.398 410.325 60.608C405.465 70.548 396.615 77.858 386.735 81.738L389.575 77.238L393.675 151.768C393.835 156.768 386.465 157.358 385.955 152.258L380.525 77.808C380.375 75.798 381.585 73.998 383.365 73.308C405.625 63.958 412.075 39.608 393.425 22.838C376.945 6.46798 348.255 6.18798 330.475 20.648C309.095 39.718 313.525 67.898 341.265 77.068C343.675 77.738 345.225 80.038 345.025 82.438C343.655 100.138 340.795 135.868 339.345 153.568C338.675 159.898 329.335 159.318 329.585 152.828H329.605Z" fill="#231815"/>
<path d="M334.045 305.498C325.195 318.228 309.695 321.388 298.405 319.298C286.155 317.038 277.225 308.378 274.135 303.118C273.855 302.638 273.635 302.238 273.525 302.048C268.715 293.168 269.085 284.298 270.325 277.918C277.925 278.468 286.545 278.608 295.975 277.928C311.945 276.788 325.615 273.648 336.435 270.298C341.985 281.808 341.145 295.308 334.055 305.498H334.045Z" fill="white"/>
<path d="M304.685 325.678C282.795 325.678 264.985 307.868 264.985 285.978C264.985 264.088 282.795 246.278 304.685 246.278C326.575 246.278 344.385 264.088 344.385 285.978C344.385 307.868 326.575 325.678 304.685 325.678ZM304.685 252.808C286.395 252.808 271.515 267.688 271.515 285.978C271.515 304.268 286.395 319.158 304.685 319.158C322.975 319.158 337.855 304.278 337.855 285.978C337.855 267.678 322.975 252.808 304.685 252.808Z" fill="#231815"/>
<path d="M332.315 271.468C333.725 283.878 329.295 295.628 320.435 301.658C313.855 306.138 306.525 306.308 305.465 306.318C304.265 306.328 296.945 306.318 289.945 301.698C277.435 293.448 276.835 277.688 276.795 275.978C285.435 276.428 295.345 276.408 306.255 275.438C315.915 274.578 324.645 273.138 332.315 271.468Z" fill="#231815"/>
<path d="M267.115 281.198C262.785 281.198 258.475 281.108 254.175 280.928C252.375 280.858 250.975 279.338 251.055 277.538C251.125 275.738 252.635 274.338 254.445 274.418C270.415 275.078 286.675 274.488 302.775 272.648C313.855 271.388 324.925 269.528 335.705 267.118C337.465 266.728 339.205 267.828 339.595 269.588C339.985 271.348 338.885 273.088 337.125 273.478C326.125 275.938 314.815 277.838 303.515 279.128C291.415 280.508 279.215 281.198 267.115 281.198Z" fill="#231815"/>
<path d="M274.085 235.458C273.605 235.458 273.125 235.348 272.665 235.128C271.045 234.338 270.365 232.388 271.155 230.768C271.985 229.058 274.445 224.768 279.325 221.838C283.475 219.348 287.235 219.098 289.115 219.178C290.915 219.248 292.315 220.768 292.245 222.568C292.175 224.368 290.665 225.778 288.855 225.698C287.705 225.648 285.375 225.818 282.675 227.438C279.295 229.468 277.595 232.438 277.015 233.618C276.455 234.778 275.285 235.458 274.075 235.458H274.085Z" fill="#231815"/>
<path d="M439.525 307.678C430.295 319.118 414.805 322.378 402.185 318.718C388.205 314.668 381.695 303.168 380.155 300.228C372.545 285.678 377.345 271.618 378.185 269.298C385.505 272.418 395.205 275.688 406.895 277.438C423.205 279.878 437.045 278.418 446.535 276.598C446.965 278.638 450.085 294.598 439.525 307.688V307.678Z" fill="white"/>
<path d="M412.195 325.678C390.305 325.678 372.495 307.868 372.495 285.978C372.495 264.088 390.305 246.278 412.195 246.278C434.085 246.278 451.895 264.088 451.895 285.978C451.895 307.868 434.085 325.678 412.195 325.678ZM412.195 252.808C393.905 252.808 379.025 267.688 379.025 285.978C379.025 304.268 393.905 319.158 412.195 319.158C430.485 319.158 445.375 304.278 445.375 285.978C445.375 267.678 430.495 252.808 412.195 252.808Z" fill="#231815"/>
<path d="M440.875 276.888C440.705 289.378 434.825 300.478 425.265 305.338C418.165 308.948 410.875 308.188 409.825 308.068C408.905 307.958 401.435 306.998 395.015 301.518C382.755 291.058 384.985 273.258 385.195 271.758C392.795 274.198 402.725 276.608 414.525 277.538C424.735 278.338 433.685 277.818 440.875 276.898V276.888Z" fill="#231815"/>
<path d="M431.935 279.518C428.985 279.518 426.055 279.448 423.125 279.288C407.355 278.468 391.835 275.458 376.975 270.318C375.275 269.728 374.365 267.868 374.955 266.168C375.545 264.468 377.405 263.568 379.105 264.148C393.385 269.088 408.315 271.988 423.465 272.768C435.125 273.368 447.025 272.718 458.815 270.838C460.595 270.558 462.265 271.768 462.555 273.548C462.835 275.328 461.625 276.998 459.855 277.288C450.565 278.778 441.205 279.518 431.935 279.518Z" fill="#231815"/>
<path d="M439.065 234.388C437.925 234.388 436.825 233.788 436.225 232.728C435.655 231.728 434.295 229.828 431.495 228.388C427.985 226.578 424.565 226.688 423.265 226.828C421.455 227.008 419.875 225.708 419.685 223.918C419.505 222.128 420.805 220.528 422.595 220.338C424.475 220.148 429.415 219.978 434.485 222.588C438.785 224.808 440.975 227.878 441.895 229.508C442.785 231.078 442.225 233.068 440.665 233.948C440.155 234.238 439.605 234.368 439.065 234.368V234.388Z" fill="#231815"/>
<path d="M370.915 331.258C370.915 336.148 366.235 340.108 360.455 340.108C354.675 340.108 349.995 336.148 349.995 331.258C349.995 326.368 354.675 322.408 360.455 322.408C366.235 322.408 370.915 326.368 370.915 331.258Z" fill="#231815"/>
<path d="M359.675 363.568C358.605 363.568 357.505 363.518 356.385 363.418C348.625 362.718 342.665 359.668 339.035 357.228C337.535 356.228 337.135 354.198 338.145 352.698C339.145 351.198 341.175 350.798 342.675 351.808C345.675 353.818 350.595 356.338 356.985 356.918C366.145 357.758 373.245 354.158 376.665 351.948C378.175 350.968 380.195 351.398 381.175 352.908C382.155 354.418 381.725 356.438 380.215 357.418C376.515 359.818 369.205 363.558 359.695 363.558L359.675 363.568Z" fill="#231815"/>
<path d="M332.155 371.248C331.095 371.248 330.055 370.728 329.425 369.778C328.435 368.268 328.855 366.248 330.355 365.258C331.875 364.258 335.475 361.428 336.235 356.638C337.005 351.748 334.325 347.908 333.135 346.488C331.985 345.108 332.165 343.048 333.545 341.898C334.925 340.738 336.985 340.928 338.135 342.308C339.895 344.418 343.855 350.118 342.675 357.648C341.515 365.018 336.175 369.238 333.935 370.708C333.385 371.068 332.765 371.248 332.145 371.248H332.155Z" fill="#231815"/>
<path d="M362.445 238.728C372.928 238.728 381.425 229.227 381.425 217.508C381.425 205.788 372.928 196.288 362.445 196.288C351.963 196.288 343.465 205.788 343.465 217.508C343.465 229.227 351.963 238.728 362.445 238.728Z" fill="#FFE200"/>
<path d="M362.065 242.388C356.965 242.388 351.985 240.108 348.045 235.958C343.325 230.998 340.595 223.848 340.925 217.278C341.285 210.108 345.165 203.048 351.305 198.408C356.375 194.568 362.305 193.058 367.555 194.268C377.435 196.528 383.285 207.818 383.245 217.418C383.195 229.218 374.485 242.378 362.085 242.398H362.065V242.388ZM363.905 198.748C360.725 198.748 357.325 199.988 354.255 202.308C349.335 206.038 346.095 211.868 345.815 217.528C345.555 222.798 347.765 228.578 351.585 232.588C354.595 235.758 358.325 237.498 362.065 237.498H362.075C371.335 237.498 378.305 226.878 378.345 217.388C378.375 209.878 373.845 200.718 366.455 199.028C365.625 198.838 364.765 198.748 363.895 198.748H363.905Z" fill="#231815"/>
</svg>
