<svg width="222" height="1050" viewBox="0 0 222 1050" fill="none" xmlns="http://www.w3.org/2000/svg">
<line x1="276.097" y1="-310.172" x2="-49.1717" y2="15.0975" stroke="#00E1FF" stroke-width="8"/>
<line x1="276.097" y1="-286.172" x2="-49.1717" y2="39.0975" stroke="#00E1FF" stroke-width="8"/>
<line x1="276.097" y1="-262.172" x2="-49.1717" y2="63.0975" stroke="#00E1FF" stroke-width="8"/>
<line x1="276.097" y1="-238.172" x2="-49.1717" y2="87.0975" stroke="#00E1FF" stroke-width="8"/>
<line x1="276.097" y1="-214.172" x2="-49.1717" y2="111.098" stroke="#00E1FF" stroke-width="8"/>
<line x1="276.097" y1="-190.172" x2="-49.1717" y2="135.098" stroke="#00E1FF" stroke-width="8"/>
<line x1="276.097" y1="-166.172" x2="-49.1717" y2="159.098" stroke="#00E1FF" stroke-width="8"/>
<line x1="276.097" y1="-142.172" x2="-49.1717" y2="183.098" stroke="#00E1FF" stroke-width="8"/>
<line x1="276.097" y1="-118.172" x2="-49.1717" y2="207.098" stroke="#00E1FF" stroke-width="8"/>
<line x1="276.097" y1="-94.1716" x2="-49.1717" y2="231.098" stroke="#00E1FF" stroke-width="8"/>
<line x1="276.097" y1="-70.1716" x2="-49.1717" y2="255.098" stroke="#00E1FF" stroke-width="8"/>
<line x1="276.097" y1="-46.1716" x2="-49.1717" y2="279.098" stroke="#00E1FF" stroke-width="8"/>
<line x1="276.097" y1="-22.1716" x2="-49.1717" y2="303.098" stroke="#00E1FF" stroke-width="8"/>
<line x1="276.097" y1="1.82843" x2="-49.1717" y2="327.098" stroke="#00E1FF" stroke-width="8"/>
<line x1="276.097" y1="25.8284" x2="-49.1717" y2="351.098" stroke="#00E1FF" stroke-width="8"/>
<line x1="276.097" y1="49.8284" x2="-49.1717" y2="375.098" stroke="#00E1FF" stroke-width="8"/>
<line x1="276.097" y1="73.8284" x2="-49.1717" y2="399.098" stroke="#00E1FF" stroke-width="8"/>
<line x1="276.097" y1="97.8284" x2="-49.1717" y2="423.098" stroke="#00E1FF" stroke-width="8"/>
<line x1="276.097" y1="121.828" x2="-49.1717" y2="447.098" stroke="#00E1FF" stroke-width="8"/>
<line x1="276.097" y1="145.828" x2="-49.1717" y2="471.098" stroke="#00E1FF" stroke-width="8"/>
<line x1="276.097" y1="169.828" x2="-49.1717" y2="495.098" stroke="#00E1FF" stroke-width="8"/>
<line x1="276.097" y1="193.828" x2="-49.1717" y2="519.098" stroke="#00E1FF" stroke-width="8"/>
<line x1="276.097" y1="217.828" x2="-49.1717" y2="543.098" stroke="#00E1FF" stroke-width="8"/>
<line x1="276.097" y1="241.828" x2="-49.1717" y2="567.098" stroke="#00E1FF" stroke-width="8"/>
<line x1="276.097" y1="265.828" x2="-49.1717" y2="591.098" stroke="#00E1FF" stroke-width="8"/>
<line x1="276.097" y1="289.828" x2="-49.1717" y2="615.098" stroke="#00E1FF" stroke-width="8"/>
<line x1="276.097" y1="313.828" x2="-49.1717" y2="639.098" stroke="#00E1FF" stroke-width="8"/>
<line x1="276.097" y1="337.828" x2="-49.1717" y2="663.098" stroke="#00E1FF" stroke-width="8"/>
<line x1="276.097" y1="361.828" x2="-49.1717" y2="687.098" stroke="#00E1FF" stroke-width="8"/>
<line x1="276.097" y1="385.828" x2="-49.1717" y2="711.098" stroke="#00E1FF" stroke-width="8"/>
<line x1="276.097" y1="409.828" x2="-49.1717" y2="735.098" stroke="#00E1FF" stroke-width="8"/>
<line x1="276.097" y1="433.828" x2="-49.1717" y2="759.098" stroke="#00E1FF" stroke-width="8"/>
<line x1="276.097" y1="457.828" x2="-49.1717" y2="783.098" stroke="#00E1FF" stroke-width="8"/>
<line x1="276.097" y1="481.828" x2="-49.1717" y2="807.098" stroke="#00E1FF" stroke-width="8"/>
<line x1="276.097" y1="505.828" x2="-49.1717" y2="831.098" stroke="#00E1FF" stroke-width="8"/>
<line x1="276.097" y1="529.828" x2="-49.1717" y2="855.098" stroke="#00E1FF" stroke-width="8"/>
<line x1="276.097" y1="553.828" x2="-49.1717" y2="879.098" stroke="#00E1FF" stroke-width="8"/>
<line x1="276.097" y1="577.828" x2="-49.1717" y2="903.098" stroke="#00E1FF" stroke-width="8"/>
<line x1="276.097" y1="601.828" x2="-49.1717" y2="927.098" stroke="#00E1FF" stroke-width="8"/>
<line x1="276.097" y1="625.828" x2="-49.1717" y2="951.098" stroke="#00E1FF" stroke-width="8"/>
<line x1="276.097" y1="649.828" x2="-49.1717" y2="975.098" stroke="#00E1FF" stroke-width="8"/>
<line x1="276.097" y1="673.828" x2="-49.1717" y2="999.098" stroke="#00E1FF" stroke-width="8"/>
<line x1="276.097" y1="697.828" x2="-49.1717" y2="1023.1" stroke="#00E1FF" stroke-width="8"/>
<line x1="276.097" y1="721.828" x2="-49.1717" y2="1047.1" stroke="#00E1FF" stroke-width="8"/>
<line x1="276.097" y1="745.828" x2="-49.1717" y2="1071.1" stroke="#00E1FF" stroke-width="8"/>
<line x1="276.097" y1="769.828" x2="-49.1717" y2="1095.1" stroke="#00E1FF" stroke-width="8"/>
<line x1="276.097" y1="793.828" x2="-49.1717" y2="1119.1" stroke="#00E1FF" stroke-width="8"/>
<line x1="276.097" y1="817.828" x2="-49.1717" y2="1143.1" stroke="#00E1FF" stroke-width="8"/>
<line x1="276.097" y1="841.828" x2="-49.1717" y2="1167.1" stroke="#00E1FF" stroke-width="8"/>
<line x1="276.097" y1="865.828" x2="-49.1717" y2="1191.1" stroke="#00E1FF" stroke-width="8"/>
<line x1="276.097" y1="889.828" x2="-49.1717" y2="1215.1" stroke="#00E1FF" stroke-width="8"/>
<line x1="276.097" y1="913.828" x2="-49.1717" y2="1239.1" stroke="#00E1FF" stroke-width="8"/>
<line x1="276.097" y1="937.828" x2="-49.1717" y2="1263.1" stroke="#00E1FF" stroke-width="8"/>
<line x1="276.097" y1="961.828" x2="-49.1717" y2="1287.1" stroke="#00E1FF" stroke-width="8"/>
<line x1="276.097" y1="985.828" x2="-49.1717" y2="1311.1" stroke="#00E1FF" stroke-width="8"/>
<line x1="276.097" y1="1009.83" x2="-49.1717" y2="1335.1" stroke="#00E1FF" stroke-width="8"/>
<line x1="276.097" y1="1033.83" x2="-49.1717" y2="1359.1" stroke="#00E1FF" stroke-width="8"/>
</svg>
