<svg width="48" height="48" viewBox="0 0 48 48" fill="none" xmlns="http://www.w3.org/2000/svg">
<g clip-path="url(#clip0_182_80)">
<path d="M40 0H8C3.58172 0 0 3.58172 0 8V40C0 44.4183 3.58172 48 8 48H40C44.4183 48 48 44.4183 48 40V8C48 3.58172 44.4183 0 40 0Z" fill="#00E1FF"/>
<path d="M24.16 12C24.7 12 25.21 12.17 25.61 12.48C26.93 13.33 27.2 15.63 25.6 16.56L25.72 19.04C29.52 19.29 32.31 20.84 33.77 23.86C33.89 24.11 34.18 24.24 34.43 24.11C35.52 23.53 36.91 23.54 37.97 24.18C38.92 24.75 40.02 26.11 40 28.05C40.03 31.02 37.32 33.27 34.96 31.61C34.69 31.42 34.36 31.52 34.23 31.82C32.89 34.95 31.76 35.87 24.86 36C18.45 35.85 15.5 35.55 13.83 31.85C13.7 31.56 13.35 31.45 13.1 31.63C10.64 33.35 7.91997 31.16 8.00997 27.9C8.18997 24.62 11.11 22.92 13.63 24.34C13.88 24.48 14.18 24.34 14.29 24.07C15.73 20.59 20.2 19.25 22.71 19.1C22.76 18.32 22.81 17.46 22.85 16.85C20.55 15.73 21.58 11.99 24.16 12.01M24.16 8.01C20.1 7.89 16.75 12.15 17.71 16.14C15.48 16.96 13.63 18.22 12.26 19.85C7.81997 19.46 4.14997 23.31 3.99997 27.74C3.78997 32.42 7.32997 36.67 11.89 36.21C14.41 38.97 17.42 39.82 23.76 39.99C29.66 40.16 34.22 39.24 36.33 36.18C40.62 36.41 43.95 32.55 43.99 28.09C43.84 22.78 40.25 19.64 35.82 19.69C34.73 18.37 33.06 16.92 30.55 15.98C31.57 12.17 28.22 7.89 24.14 7.99L24.16 8.01Z" fill="white"/>
</g>
<defs>
<clipPath id="clip0_182_80">
<rect width="48" height="48" fill="white"/>
</clipPath>
</defs>
</svg>
