<svg width="686" height="436" viewBox="0 0 686 436" fill="none" xmlns="http://www.w3.org/2000/svg">
<path d="M121.54 330.67C119.03 332.79 116.84 334.49 115.26 335.66C105.68 342.77 80.2201 361.65 52.4701 352.68C27.7801 344.7 10.1601 317.51 11.4801 289.43C12.7801 261.69 32.3501 241.02 51.1701 232.84C59.2701 229.32 68.3801 227.59 77.8301 227.59C91.7501 227.59 106.4 231.34 119.62 238.66C124.03 241.1 128.07 243.85 131.68 246.82C132.66 242.9 133.81 238.97 135.18 235.07C132.06 232.8 128.72 230.66 125.15 228.68C99.9101 214.71 69.8201 212.3 46.6201 222.37C24.5601 231.96 1.61005 256.25 0.0800523 288.9C-1.46995 321.95 19.5501 354.03 48.9601 363.54C55.4301 365.63 61.7201 366.51 67.7601 366.51C92.8301 366.51 113.3 351.33 122.07 344.82C122.72 344.33 123.37 343.85 124 343.37C122.78 339.07 121.99 334.87 121.54 330.67Z" fill="#231815"/>
<path d="M642.98 222.69C622.38 212.07 596.27 210.8 573.14 219.28C565.45 222.1 558.58 225.86 552.67 230.39C554.37 234.16 555.85 237.85 557.15 241.44C562.65 236.71 569.36 232.82 577.07 229.99C585.82 226.78 595.22 225.2 604.5 225.2C616.31 225.2 627.93 227.77 637.75 232.83C654.75 241.59 674.49 262.24 674.18 291.62C673.88 319.68 654.73 345.81 629.62 352.41C602.38 359.57 578.98 342.2 567.46 331.21C567.04 330.81 566.61 330.38 566.17 329.94C565.38 334.04 564.34 338.27 562.99 342.6C580 357.66 598.52 365.5 616.66 365.5C622 365.5 627.3 364.82 632.53 363.45C662.93 355.46 685.25 325.3 685.6 291.74C685.97 257.16 662.87 232.93 642.99 222.68L642.98 222.69Z" fill="#231815"/>
<path d="M571.98 280.23L571.94 279.93L571.86 279.31C567.2 242.96 554 212.77 532.62 189.58C485.27 138.23 414.1 129.57 370.46 128.34C371.09 131.92 371.82 135.75 372.67 139.83C414.75 141.3 480.76 150.17 524.23 197.32C543.97 218.73 556.19 246.81 560.54 280.77L560.66 281.7C562.56 296.4 565.42 318.61 556.31 344.68C556.22 344.94 546.83 371.2 525.84 391.69C515.3 401.99 490.59 426.12 339.81 423.64C200.42 421.37 174.7 399.19 160.88 387.27C153.87 381.23 137.47 367.08 130.11 343.89C124.56 326.37 126.96 310.58 130.28 288.72C130.64 286.39 131 283.99 131.37 281.52L132.02 277.04C134.77 258.1 137.88 236.64 149.67 217.85C169.75 185.85 206.13 163.13 257.79 150.33C277.74 145.39 299.08 142.14 321.47 140.63C321.88 136.43 322.33 132.6 322.78 129.14C269 132.63 179.81 148.33 139.99 211.78C126.91 232.62 123.62 255.35 120.71 275.4L120.06 279.85C119.7 282.31 119.33 284.69 118.98 287.01C115.56 309.52 112.86 327.3 119.21 347.35C127.54 373.62 145.66 389.25 153.4 395.93C179.01 418.02 220.48 433.13 339.6 435.07C347.1 435.19 354.31 435.25 361.23 435.25C480.77 435.25 515.73 417.51 533.8 399.87C553.97 380.18 564.72 355.53 566.95 348.42L567.07 348.46C577.07 319.85 573.88 295.06 571.97 280.25L571.98 280.23Z" fill="#231815"/>
<path d="M315.14 152.83C316.39 135.06 318.94 99.4101 320.26 81.6601L324.02 87.0301C322.52 86.5801 321.32 86.15 320.06 85.6301C269.68 63.98 293.66 2.54005 342.29 0.120053C354.14 -0.589947 366.42 1.87005 376.48 8.44005C394.2 19.3501 406.02 40.4001 395.86 60.6101C391 70.5501 382.15 77.8601 372.27 81.7401L375.11 77.2401L379.21 151.77C379.37 156.77 372 157.36 371.49 152.26L366.06 77.8101C365.91 75.8 367.12 74.0001 368.9 73.3101C391.16 63.9601 397.61 39.6101 378.96 22.8401C362.48 6.47005 333.79 6.19005 316.01 20.6501C294.63 39.7201 299.06 67.9001 326.8 77.0701C329.21 77.7401 330.76 80.0401 330.56 82.4401C329.19 100.14 326.33 135.87 324.88 153.57C324.21 159.9 314.87 159.32 315.12 152.83H315.14Z" fill="#231815"/>
<path d="M290.22 325.68C268.33 325.68 250.52 307.87 250.52 285.98C250.52 264.09 268.33 246.28 290.22 246.28C312.11 246.28 329.92 264.09 329.92 285.98C329.92 307.87 312.11 325.68 290.22 325.68ZM290.22 252.81C271.93 252.81 257.05 267.69 257.05 285.98C257.05 304.27 271.93 319.16 290.22 319.16C308.51 319.16 323.39 304.28 323.39 285.98C323.39 267.68 308.51 252.81 290.22 252.81Z" fill="#231815"/>
<path d="M317.85 271.47C319.26 283.88 314.83 295.63 305.97 301.66C299.39 306.14 292.06 306.31 291 306.32C289.8 306.33 282.48 306.32 275.48 301.7C262.97 293.45 262.37 277.69 262.33 275.98C270.97 276.43 280.88 276.41 291.79 275.44C301.45 274.58 310.18 273.14 317.85 271.47Z" fill="#231815"/>
<path d="M252.65 281.2C248.32 281.2 244.01 281.11 239.71 280.93C237.91 280.86 236.51 279.34 236.59 277.54C236.66 275.74 238.17 274.34 239.98 274.42C255.95 275.08 272.21 274.49 288.31 272.65C299.39 271.39 310.46 269.53 321.24 267.12C323 266.73 324.74 267.83 325.13 269.59C325.52 271.35 324.42 273.09 322.66 273.48C311.66 275.94 300.35 277.84 289.05 279.13C276.95 280.51 264.75 281.2 252.65 281.2Z" fill="#231815"/>
<path d="M259.61 235.46C259.13 235.46 258.65 235.35 258.19 235.13C256.57 234.34 255.89 232.39 256.68 230.77C257.51 229.06 259.97 224.77 264.85 221.84C269 219.35 272.76 219.1 274.64 219.18C276.44 219.25 277.84 220.77 277.77 222.57C277.7 224.37 276.19 225.78 274.38 225.7C273.23 225.65 270.9 225.82 268.2 227.44C264.82 229.47 263.12 232.44 262.54 233.62C261.98 234.78 260.81 235.46 259.6 235.46H259.61Z" fill="#231815"/>
<path d="M397.72 325.68C375.83 325.68 358.02 307.87 358.02 285.98C358.02 264.09 375.83 246.28 397.72 246.28C419.61 246.28 437.42 264.09 437.42 285.98C437.42 307.87 419.61 325.68 397.72 325.68ZM397.72 252.81C379.43 252.81 364.55 267.69 364.55 285.98C364.55 304.27 379.43 319.16 397.72 319.16C416.01 319.16 430.9 304.28 430.9 285.98C430.9 267.68 416.02 252.81 397.72 252.81Z" fill="#231815"/>
<path d="M426.41 276.89C426.24 289.38 420.36 300.48 410.8 305.34C403.7 308.95 396.41 308.19 395.36 308.07C394.44 307.96 386.97 307 380.55 301.52C368.29 291.06 370.52 273.26 370.73 271.76C378.33 274.2 388.26 276.61 400.06 277.54C410.27 278.34 419.22 277.82 426.41 276.9V276.89Z" fill="#231815"/>
<path d="M417.47 279.52C414.52 279.52 411.59 279.45 408.66 279.29C392.89 278.47 377.37 275.46 362.51 270.32C360.81 269.73 359.9 267.87 360.49 266.17C361.08 264.47 362.94 263.57 364.64 264.15C378.92 269.09 393.85 271.99 409 272.77C420.66 273.37 432.56 272.72 444.35 270.84C446.13 270.56 447.8 271.77 448.09 273.55C448.37 275.33 447.16 277 445.39 277.29C436.1 278.78 426.74 279.52 417.47 279.52Z" fill="#231815"/>
<path d="M424.59 234.39C423.45 234.39 422.35 233.79 421.75 232.73C421.18 231.73 419.82 229.83 417.02 228.39C413.51 226.58 410.09 226.69 408.79 226.83C406.98 227.01 405.4 225.71 405.21 223.92C405.03 222.13 406.33 220.53 408.12 220.34C410 220.15 414.94 219.98 420.01 222.59C424.31 224.81 426.5 227.88 427.42 229.51C428.31 231.08 427.75 233.07 426.19 233.95C425.68 234.24 425.13 234.37 424.59 234.37V234.39Z" fill="#231815"/>
<path d="M356.45 331.26C356.45 336.15 351.77 340.11 345.99 340.11C340.21 340.11 335.53 336.15 335.53 331.26C335.53 326.37 340.21 322.41 345.99 322.41C351.77 322.41 356.45 326.37 356.45 331.26Z" fill="#231815"/>
<path d="M345.21 363.57C344.14 363.57 343.04 363.52 341.92 363.42C334.16 362.72 328.2 359.67 324.57 357.23C323.07 356.23 322.67 354.2 323.68 352.7C324.68 351.2 326.71 350.8 328.21 351.81C331.21 353.82 336.13 356.34 342.52 356.92C351.68 357.76 358.78 354.16 362.2 351.95C363.71 350.97 365.73 351.4 366.71 352.91C367.69 354.42 367.26 356.44 365.75 357.42C362.05 359.82 354.74 363.56 345.23 363.56L345.21 363.57Z" fill="#231815"/>
<path d="M317.69 371.25C316.63 371.25 315.59 370.73 314.96 369.78C313.97 368.27 314.39 366.25 315.89 365.26C317.41 364.26 321.01 361.43 321.77 356.64C322.54 351.75 319.86 347.91 318.67 346.49C317.52 345.11 317.7 343.05 319.08 341.9C320.46 340.74 322.52 340.93 323.67 342.31C325.43 344.42 329.39 350.12 328.21 357.65C327.05 365.02 321.71 369.24 319.47 370.71C318.92 371.07 318.3 371.25 317.68 371.25H317.69Z" fill="#231815"/>
<path d="M347.59 242.39C342.49 242.39 337.51 240.11 333.57 235.96C328.85 231 326.12 223.85 326.45 217.28C326.81 210.11 330.69 203.05 336.83 198.41C341.9 194.57 347.83 193.06 353.08 194.27C362.96 196.53 368.81 207.82 368.77 217.42C368.72 229.22 360.01 242.38 347.61 242.4H347.59V242.39ZM349.43 198.75C346.25 198.75 342.85 199.99 339.78 202.31C334.86 206.04 331.62 211.87 331.34 217.53C331.08 222.8 333.29 228.58 337.11 232.59C340.12 235.76 343.85 237.5 347.59 237.5H347.6C356.86 237.5 363.83 226.88 363.87 217.39C363.9 209.88 359.37 200.72 351.98 199.03C351.15 198.84 350.29 198.75 349.42 198.75H349.43Z" fill="#231815"/>
</svg>
