<?xml version="1.0" encoding="UTF-8"?>
<svg xmlns="http://www.w3.org/2000/svg" xmlns:xlink="http://www.w3.org/1999/xlink" width="290pt" height="219pt" viewBox="0 0 290 219" version="1.1">
<g id="surface1">
<path style=" stroke:none;fill-rule:nonzero;fill:rgb(34.117647%,34.117647%,34.117647%);fill-opacity:1;" d="M 36.566406 34.347656 C 43.253906 28.136719 50.761719 23.226562 58.789062 19.09375 C 75.363281 10.554688 93.019531 5.460938 111.375 2.601562 C 127.15625 0.144531 143.023438 -0.578125 158.945312 0.460938 C 182.304688 1.988281 204.921875 6.726562 226.265625 16.683594 C 235.289062 20.890625 243.761719 26 251.390625 32.449219 C 251.617188 32.640625 251.839844 32.839844 252.167969 33.128906 C 251.417969 33.660156 250.679688 33.449219 250.003906 33.449219 C 234.207031 33.464844 218.410156 33.496094 202.617188 33.417969 C 200.839844 33.410156 200.03125 34 199.429688 35.609375 C 197.660156 40.367188 195.734375 45.070312 193.875 49.796875 C 193.136719 51.667969 193.167969 51.726562 195.140625 51.730469 C 202.550781 51.742188 209.960938 51.796875 217.367188 51.695312 C 219.246094 51.671875 219.6875 52.238281 219.683594 54.085938 C 219.613281 75.617188 219.667969 97.148438 219.585938 118.675781 C 219.578125 120.628906 220.171875 120.960938 221.949219 120.9375 C 229.222656 120.835938 236.503906 120.894531 244.242188 120.894531 C 241.878906 122.800781 239.644531 124.101562 237.425781 125.410156 C 222.527344 134.203125 206.40625 139.777344 189.566406 143.371094 C 171.828125 147.15625 153.867188 148.5 135.761719 147.742188 C 114.25 146.847656 93.269531 143.113281 73.113281 135.324219 C 64.128906 131.851562 55.527344 127.613281 47.511719 122.230469 C 47.066406 121.933594 46.640625 121.613281 45.800781 121.011719 C 46.929688 120.957031 47.621094 120.898438 48.3125 120.894531 C 55.289062 120.859375 62.273438 120.925781 69.25 120.777344 C 76.769531 120.613281 83.894531 119 90.214844 114.59375 C 99.519531 108.105469 103.726562 91.53125 91.652344 81.71875 C 86.105469 77.207031 79.761719 74.222656 73.179688 71.691406 C 65.9375 68.90625 58.625 66.304688 51.359375 63.589844 C 49.0625 62.730469 46.820312 61.726562 44.824219 60.285156 C 41.558594 57.925781 41.816406 54.636719 45.433594 52.792969 C 48.570312 51.195312 52.011719 50.898438 55.441406 50.882812 C 67.625 50.820312 79.808594 50.816406 91.992188 50.867188 C 93.445312 50.871094 94.132812 50.457031 94.648438 49.0625 C 96.460938 44.1875 98.402344 39.363281 100.367188 34.546875 C 100.894531 33.246094 100.714844 32.878906 99.242188 32.882812 C 82.46875 32.910156 65.691406 32.859375 48.914062 32.886719 C 44.761719 32.894531 40.632812 33.351562 36.566406 34.347656 Z M 161.320312 120.773438 C 168.117188 120.773438 174.910156 120.71875 181.707031 120.816406 C 183.214844 120.835938 183.832031 120.292969 184.328125 118.960938 C 186.050781 114.316406 187.902344 109.714844 189.695312 105.09375 C 190.523438 102.957031 190.511719 102.949219 188.296875 102.949219 C 175.195312 102.949219 162.09375 102.960938 148.992188 102.941406 C 143.109375 102.933594 137.890625 101.058594 133.730469 96.839844 C 126.0625 89.058594 124.046875 79.710938 127.035156 69.382812 C 130.371094 57.851562 138.847656 51.738281 150.8125 51.738281 C 161.832031 51.738281 172.851562 51.714844 183.871094 51.761719 C 185.21875 51.769531 185.921875 51.402344 186.417969 50.0625 C 188.210938 45.183594 190.148438 40.355469 192.023438 35.503906 C 192.800781 33.488281 192.789062 33.464844 190.707031 33.464844 C 174.972656 33.460938 159.238281 33.410156 143.503906 33.488281 C 135.964844 33.527344 129.0625 35.792969 122.890625 40.164062 C 103.195312 54.109375 97.910156 82.664062 111.429688 102.898438 C 119.285156 114.65625 130.203125 121.015625 144.605469 120.789062 C 150.175781 120.699219 155.75 120.773438 161.320312 120.773438 Z M 156.921875 85.554688 C 162.421875 85.554688 167.925781 85.523438 173.425781 85.578125 C 174.691406 85.589844 175.375 85.277344 175.84375 83.980469 C 177.453125 79.5625 179.183594 75.1875 180.941406 70.824219 C 181.472656 69.511719 181.394531 69.042969 179.789062 69.050781 C 168.601562 69.109375 157.414062 69.097656 146.226562 69.050781 C 145.039062 69.046875 144.496094 69.476562 144.09375 70.527344 C 142.386719 74.980469 140.660156 79.425781 138.839844 83.832031 C 138.246094 85.265625 138.546875 85.601562 140.046875 85.582031 C 145.671875 85.519531 151.296875 85.558594 156.921875 85.554688 Z M 156.921875 85.554688 "/>
<path style=" stroke:none;fill-rule:nonzero;fill:rgb(34.117647%,34.117647%,34.117647%);fill-opacity:1;" d="M 244.902344 120.589844 C 244.902344 118.148438 244.898438 116.207031 244.902344 114.261719 C 244.917969 94.273438 244.929688 74.285156 244.945312 54.296875 C 244.949219 51.722656 244.957031 51.730469 247.636719 51.71875 C 253.9375 51.6875 260.242188 51.675781 266.542969 51.585938 C 267.5625 51.574219 267.898438 52.089844 268.285156 52.839844 C 275.234375 66.394531 275.515625 80.089844 268.933594 93.816406 C 263.628906 104.882812 255.125 113.152344 244.902344 120.589844 Z M 244.902344 120.589844 "/>
<path style=" stroke:none;fill-rule:nonzero;fill:rgb(34.117647%,34.117647%,34.117647%);fill-opacity:1;" d="M 289.316406 183.847656 C 289.316406 189.980469 289.292969 196.113281 289.339844 202.246094 C 289.347656 203.398438 289.09375 203.839844 287.824219 203.839844 C 283.597656 203.847656 283.597656 203.90625 283.597656 208.191406 C 283.59375 212.003906 283.59375 212.003906 287.351562 212.007812 C 289.957031 212.007812 289.957031 212.007812 289.214844 214.5 C 287.890625 218.929688 287.890625 218.929688 283.371094 218.929688 C 281.351562 218.929688 279.328125 218.855469 277.316406 218.957031 C 276.054688 219.019531 275.738281 218.515625 275.75 217.367188 C 275.792969 213.503906 275.714844 209.636719 275.808594 205.777344 C 275.84375 204.332031 275.546875 203.808594 273.9375 203.730469 C 271.910156 203.628906 270.894531 204.3125 270.074219 206.148438 C 268.355469 210.003906 266.339844 213.730469 264.519531 217.539062 C 264.03125 218.550781 263.460938 219.023438 262.292969 218.953125 C 260.585938 218.855469 258.863281 218.863281 257.152344 218.949219 C 255.796875 219.019531 255.757812 218.554688 256.285156 217.5 C 258.289062 213.507812 260.195312 209.460938 262.238281 205.492188 C 262.957031 204.09375 262.738281 203.613281 261.179688 203.800781 C 260.941406 203.828125 260.691406 203.804688 260.449219 203.804688 C 255.746094 203.800781 255.746094 203.800781 255.746094 198.996094 C 255.746094 188.019531 255.746094 177.042969 255.75 166.066406 C 255.75 163.640625 255.753906 163.613281 258.136719 163.613281 C 267.992188 163.609375 277.847656 163.648438 287.699219 163.613281 C 288.972656 163.609375 289.375 163.9375 289.355469 165.265625 C 289.285156 171.460938 289.324219 177.652344 289.324219 183.847656 C 289.320312 183.847656 289.316406 183.847656 289.316406 183.847656 Z M 272.554688 180.984375 C 269.867188 180.984375 267.183594 181.015625 264.496094 180.96875 C 263.488281 180.953125 263.003906 181.28125 263.078125 182.328125 C 263.117188 182.875 263.128906 183.433594 263.070312 183.980469 C 262.914062 185.402344 263.480469 185.917969 264.9375 185.894531 C 269.578125 185.824219 274.21875 185.871094 278.859375 185.867188 C 282.132812 185.867188 282.082031 185.867188 282.074219 182.640625 C 282.074219 181.402344 281.746094 180.910156 280.429688 180.957031 C 277.808594 181.050781 275.179688 180.984375 272.554688 180.984375 Z M 272.640625 170.339844 C 270.445312 170.339844 268.246094 170.335938 266.046875 170.339844 C 263.027344 170.339844 263.109375 170.34375 263.046875 173.285156 C 263.011719 174.878906 263.664062 175.242188 265.101562 175.222656 C 269.742188 175.15625 274.386719 175.199219 279.023438 175.199219 C 282.191406 175.199219 282.191406 175.195312 282.027344 171.941406 C 282.023438 171.878906 282.015625 171.820312 282.023438 171.761719 C 282.148438 170.617188 281.597656 170.296875 280.519531 170.324219 C 277.894531 170.382812 275.269531 170.34375 272.640625 170.339844 Z M 272.628906 191.660156 C 269.945312 191.660156 267.261719 191.699219 264.578125 191.640625 C 263.488281 191.617188 262.96875 191.964844 263.074219 193.097656 C 263.117188 193.582031 263.132812 194.082031 263.070312 194.5625 C 262.875 196.039062 263.523438 196.417969 264.9375 196.398438 C 269.636719 196.328125 274.335938 196.398438 279.035156 196.398438 C 282.179688 196.398438 282.136719 196.386719 282.074219 193.203125 C 282.050781 192.050781 281.734375 191.589844 280.503906 191.632812 C 277.878906 191.722656 275.253906 191.660156 272.628906 191.660156 Z M 272.628906 191.660156 "/>
<path style=" stroke:none;fill-rule:nonzero;fill:rgb(34.117647%,34.117647%,34.117647%);fill-opacity:1;" d="M 180.644531 189.773438 C 190.441406 189.773438 200.234375 189.769531 210.03125 189.777344 C 213.59375 189.777344 213 189.613281 213.015625 192.679688 C 213.042969 198.136719 212.96875 203.597656 213.058594 209.058594 C 213.085938 210.671875 212.746094 211.238281 210.988281 211.214844 C 203.277344 211.109375 195.5625 211.183594 187.847656 211.160156 C 186.707031 211.15625 185.863281 211.136719 185.882812 212.738281 C 185.90625 214.355469 186.804688 214.285156 187.914062 214.285156 C 195.382812 214.265625 202.855469 214.257812 210.324219 214.28125 C 213.445312 214.289062 212.929688 213.839844 213.085938 217.003906 C 213.15625 218.507812 212.738281 219.199219 211.175781 218.929688 C 211.117188 218.917969 211.054688 218.929688 210.992188 218.929688 C 200.28125 218.929688 189.566406 218.886719 178.851562 218.972656 C 177.089844 218.988281 176.722656 218.40625 176.765625 216.800781 C 176.792969 215.671875 176.886719 214.824219 176.816406 213.8125 C 176.773438 213.199219 176.753906 212.136719 176.398438 211.496094 C 176.066406 210.898438 174.277344 211.066406 171.253906 211.183594 C 164.277344 211.148438 157.296875 211.132812 150.316406 211.203125 C 148.847656 211.214844 148.269531 210.875 148.285156 209.289062 C 148.355469 203.402344 148.324219 197.511719 148.265625 191.625 C 148.25 190.226562 148.667969 189.726562 150.15625 189.734375 C 160.320312 189.800781 170.484375 189.769531 180.648438 189.769531 C 180.644531 189.769531 180.644531 189.769531 180.644531 189.773438 Z M 166.90625 206.167969 C 169.777344 206.167969 172.652344 206.125 175.523438 206.183594 C 177.007812 206.214844 176.816406 205.234375 176.796875 204.332031 C 176.78125 203.53125 177.101562 202.585938 175.648438 202.597656 C 169.964844 202.636719 164.28125 202.625 158.597656 202.558594 C 157.039062 202.542969 157.234375 203.507812 157.191406 204.5 C 157.148438 205.574219 157.328125 206.234375 158.65625 206.195312 C 161.40625 206.117188 164.15625 206.171875 166.90625 206.167969 Z M 167.113281 194.324219 C 164.425781 194.324219 161.734375 194.390625 159.050781 194.300781 C 157.609375 194.25 157.171875 194.734375 157.152344 196.1875 C 157.128906 197.683594 157.796875 197.898438 159.019531 197.886719 C 164.398438 197.839844 169.773438 197.808594 175.152344 197.851562 C 176.398438 197.863281 176.882812 197.539062 176.839844 196.222656 C 176.804688 195.015625 176.695312 194.25 175.183594 194.304688 C 172.496094 194.398438 169.804688 194.328125 167.113281 194.324219 Z M 194.933594 197.867188 C 194.933594 197.851562 194.933594 197.839844 194.933594 197.828125 C 197.5625 197.828125 200.191406 197.773438 202.816406 197.851562 C 204.113281 197.890625 204.332031 197.265625 204.320312 196.171875 C 204.3125 195.070312 204.226562 194.292969 202.78125 194.308594 C 197.648438 194.363281 192.515625 194.363281 187.382812 194.308594 C 185.878906 194.292969 185.945312 195.1875 185.90625 196.226562 C 185.859375 197.347656 186.144531 197.925781 187.417969 197.890625 C 189.921875 197.816406 192.429688 197.867188 194.933594 197.867188 Z M 195.105469 202.617188 C 195.105469 202.601562 195.105469 202.582031 195.105469 202.566406 C 192.542969 202.566406 189.976562 202.621094 187.414062 202.546875 C 185.957031 202.503906 185.882812 203.320312 185.910156 204.410156 C 185.9375 205.390625 185.898438 206.210938 187.304688 206.191406 C 192.492188 206.121094 197.683594 206.109375 202.875 206.121094 C 204.640625 206.125 204.066406 204.761719 204.242188 203.882812 C 204.472656 202.730469 203.699219 202.601562 202.800781 202.609375 C 200.234375 202.628906 197.671875 202.613281 195.105469 202.617188 Z M 195.105469 202.617188 "/>
<path style=" stroke:none;fill-rule:nonzero;fill:rgb(34.117647%,34.117647%,34.117647%);fill-opacity:1;" d="M 161.964844 187.609375 C 163.289062 185.652344 164.375 184.101562 165.398438 182.507812 C 165.917969 181.699219 166.640625 181.652344 167.46875 181.660156 C 170.164062 181.6875 172.859375 181.617188 175.550781 181.699219 C 176.75 181.734375 176.957031 181.207031 176.980469 180.171875 C 177.015625 179.023438 176.59375 178.742188 175.488281 178.75 C 169.367188 178.804688 163.246094 178.804688 157.125 178.75 C 155.964844 178.742188 155.644531 179.140625 155.6875 180.234375 C 155.761719 181.949219 155.628906 183.671875 155.734375 185.382812 C 155.808594 186.640625 155.324219 186.949219 154.160156 186.894531 C 152.390625 186.8125 150.609375 186.804688 148.839844 186.898438 C 147.675781 186.957031 147.378906 186.511719 147.394531 185.417969 C 147.453125 182.046875 147.488281 178.667969 147.382812 175.300781 C 147.332031 173.792969 147.742188 173.308594 149.300781 173.320312 C 157.933594 173.390625 166.5625 173.359375 175.195312 173.335938 C 175.832031 173.332031 176.761719 173.722656 176.917969 172.539062 C 177.074219 171.363281 176.96875 170.632812 175.386719 170.644531 C 166.695312 170.71875 158 170.644531 149.308594 170.710938 C 147.832031 170.722656 147.167969 170.40625 147.332031 168.8125 C 147.453125 167.597656 147.40625 166.359375 147.339844 165.136719 C 147.273438 164.003906 147.757812 163.597656 148.835938 163.625 C 150.367188 163.667969 151.898438 163.640625 153.429688 163.640625 C 174.117188 163.640625 194.808594 163.640625 215.5 163.644531 C 216.546875 163.644531 217.222656 163.75 217.222656 163.75 C 217.222656 163.75 217.363281 163.921875 216.675781 165.59375 C 215.734375 167.242188 215.417969 169.609375 213.703125 170.355469 C 211.875 171.152344 209.914062 170.652344 207.96875 170.664062 C 201.421875 170.699219 194.871094 170.644531 188.320312 170.710938 C 187.398438 170.722656 185.78125 170.246094 185.859375 172.035156 C 185.9375 173.648438 187.496094 173.308594 188.449219 173.316406 C 196.285156 173.378906 204.121094 173.394531 211.953125 173.316406 C 213.601562 173.296875 214.066406 173.84375 214.023438 175.421875 C 213.941406 178.605469 213.949219 181.800781 214.070312 184.984375 C 214.132812 186.558594 213.589844 187.023438 212.085938 186.902344 C 210.5625 186.78125 209.023438 186.816406 207.496094 186.894531 C 206.363281 186.953125 205.96875 186.5 205.992188 185.414062 C 206.03125 183.636719 205.96875 181.855469 205.984375 180.078125 C 205.992188 179.222656 205.84375 178.746094 204.78125 178.753906 C 198.90625 178.804688 193.027344 178.800781 187.152344 178.757812 C 186.027344 178.746094 185.851562 179.253906 185.847656 180.207031 C 185.84375 181.167969 186.070312 181.699219 187.15625 181.6875 C 191.015625 181.65625 194.871094 181.664062 198.726562 181.675781 C 199.265625 181.675781 200.472656 181.652344 200.472656 181.652344 C 200.472656 181.652344 199.886719 182.957031 199.664062 183.488281 C 198.226562 186.902344 195.777344 187.851562 192.046875 187.71875 C 182.757812 187.390625 173.445312 187.613281 164.136719 187.613281 C 163.542969 187.613281 162.953125 187.613281 161.964844 187.609375 Z M 161.964844 187.609375 "/>
<path style=" stroke:none;fill-rule:nonzero;fill:rgb(34.117647%,34.117647%,34.117647%);fill-opacity:1;" d="M 105.09375 218.789062 C 94.136719 218.789062 83.179688 218.769531 72.222656 218.8125 C 70.605469 218.816406 70.425781 218.378906 71.289062 217.101562 C 72.449219 215.382812 74.605469 211.953125 74.605469 211.953125 C 74.605469 211.953125 78.152344 211.882812 80.109375 211.867188 C 81.152344 211.859375 81.367188 211.921875 83.648438 211.746094 C 85.121094 211.890625 85.089844 211.1875 84.867188 209.996094 C 82.945312 199.710938 81.011719 189.433594 79.1875 179.136719 C 78.660156 176.160156 78.445312 176.804688 81.238281 176.734375 C 82.890625 176.691406 84.550781 176.796875 86.195312 176.699219 C 87.359375 176.628906 87.734375 177.066406 87.929688 178.183594 C 89.300781 185.953125 90.75 193.707031 92.167969 201.46875 C 92.695312 204.355469 93.226562 207.242188 93.707031 210.136719 C 93.894531 211.257812 94.320312 211.769531 95.597656 211.757812 C 102.207031 211.683594 108.820312 211.6875 115.429688 211.753906 C 116.628906 211.765625 117.027344 211.28125 117.203125 210.238281 C 118.941406 199.984375 120.660156 189.726562 122.472656 179.488281 C 123.066406 176.128906 122.339844 176.816406 125.664062 176.730469 C 126.828125 176.699219 127.992188 176.726562 129.152344 176.726562 C 131.894531 176.726562 131.878906 176.722656 131.398438 179.46875 C 129.621094 189.652344 127.859375 199.835938 126.054688 210.015625 C 125.835938 211.25 126.011719 211.785156 127.441406 211.75 C 130.992188 211.660156 134.542969 211.761719 138.09375 211.699219 C 139.199219 211.679688 139.542969 211.988281 139.566406 213.140625 C 139.679688 218.761719 139.714844 218.761719 134.109375 218.761719 C 124.4375 218.761719 114.765625 218.761719 105.09375 218.761719 C 105.09375 218.773438 105.09375 218.78125 105.09375 218.789062 Z M 105.09375 218.789062 "/>
<path style=" stroke:none;fill-rule:nonzero;fill:rgb(34.117647%,34.117647%,34.117647%);fill-opacity:1;" d="M 18.570312 60.746094 C 20.777344 69.066406 26.722656 74.03125 33.566406 78.160156 C 41.621094 83.023438 50.429688 86.164062 59.273438 89.210938 C 63.136719 90.542969 67.042969 91.8125 70.613281 93.867188 C 71.660156 94.472656 72.785156 95.082031 73.070312 96.429688 C 73.425781 98.117188 72.5625 99.605469 70.773438 100.351562 C 68.828125 101.164062 66.738281 101.433594 64.671875 101.445312 C 52.011719 101.511719 39.347656 101.492188 26.683594 101.511719 C 25.96875 101.515625 25.445312 101.386719 25 100.714844 C 16.917969 88.554688 14.023438 75.515625 18.257812 61.246094 C 18.292969 61.136719 18.382812 61.042969 18.570312 60.746094 Z M 18.570312 60.746094 "/>
<path style=" stroke:none;fill-rule:nonzero;fill:rgb(34.117647%,34.117647%,34.117647%);fill-opacity:1;" d="M 70.691406 171.789062 C 72.023438 169.472656 73.199219 167.421875 74.382812 165.375 C 74.886719 164.5 75.75 164.722656 76.523438 164.722656 C 83.375 164.722656 90.226562 164.679688 97.078125 164.78125 C 98.828125 164.804688 99.4375 164.332031 99.324219 162.523438 C 99.171875 160.109375 99.292969 160.105469 101.789062 160.101562 C 104.359375 160.101562 106.929688 160.179688 109.496094 160.074219 C 111.003906 160.015625 111.542969 160.496094 111.507812 162.039062 C 111.433594 165.210938 111.253906 164.691406 114.105469 164.714844 C 121.628906 164.769531 129.152344 164.777344 136.679688 164.714844 C 138.292969 164.699219 139.050781 165.101562 138.902344 166.847656 C 138.765625 168.417969 138.863281 171.761719 138.863281 171.761719 C 138.863281 171.761719 135.675781 171.765625 134.105469 171.769531 C 113.671875 171.792969 93.242188 171.785156 72.808594 171.789062 C 72.21875 171.789062 71.628906 171.789062 70.691406 171.789062 Z M 70.691406 171.789062 "/>
<path style=" stroke:none;fill-rule:nonzero;fill:rgb(34.117647%,34.117647%,34.117647%);fill-opacity:1;" d="M 221.890625 181.980469 C 223.210938 179.671875 224.351562 177.726562 225.445312 175.753906 C 225.828125 175.0625 226.363281 174.902344 227.105469 174.90625 C 235.0625 174.925781 243.019531 174.9375 250.976562 174.894531 C 252.113281 174.886719 252.414062 175.265625 252.449219 176.363281 C 252.636719 181.949219 252.664062 181.945312 247.207031 181.957031 C 245.863281 181.957031 244.507812 182.078125 243.171875 181.972656 C 241.699219 181.859375 241.304688 182.421875 241.316406 183.851562 C 241.371094 193.050781 241.34375 202.246094 241.34375 211.445312 C 241.34375 213.40625 241.265625 215.375 241.371094 217.332031 C 241.441406 218.667969 240.929688 219.050781 239.6875 218.949219 C 238.589844 218.859375 238.441406 218.824219 236.386719 218.957031 C 234.582031 219.171875 233.996094 218.605469 234.015625 216.683594 C 234.117188 205.890625 234.019531 195.097656 234.109375 184.304688 C 234.121094 182.472656 233.6875 181.84375 231.792969 181.9375 C 228.625 182.09375 225.445312 181.980469 221.890625 181.980469 Z M 221.890625 181.980469 "/>
<path style=" stroke:none;fill-rule:nonzero;fill:rgb(34.117647%,34.117647%,34.117647%);fill-opacity:1;" d="M 64.042969 208.796875 C 64.042969 208.707031 62.464844 213.042969 61.339844 215.054688 C 60.960938 215.738281 60.34375 215.667969 59.738281 215.667969 C 40.339844 215.671875 20.9375 215.667969 1.535156 215.6875 C 0.472656 215.691406 -0.0507812 215.398438 0.00390625 214.234375 C 0.0742188 212.765625 0.0390625 211.292969 0.0234375 209.820312 C 0.0117188 209.046875 0.332031 208.683594 1.121094 208.75 C 1.425781 208.777344 1.734375 208.75 2.039062 208.75 C 22.359375 208.75 42.675781 208.75 62.996094 208.757812 C 63.519531 208.757812 64.042969 208.886719 64.042969 208.796875 Z M 64.042969 208.796875 "/>
<path style=" stroke:none;fill-rule:nonzero;fill:rgb(34.117647%,34.117647%,34.117647%);fill-opacity:1;" d="M 32.898438 163.617188 C 42.816406 163.617188 52.738281 163.617188 62.65625 163.617188 C 64.84375 163.617188 64.644531 163.621094 63.867188 165.691406 C 62.304688 169.839844 59.605469 170.878906 55.226562 170.800781 C 37.90625 170.496094 20.574219 170.65625 3.246094 170.714844 C 1.589844 170.722656 1.050781 170.320312 1.082031 168.601562 C 1.167969 163.640625 1.09375 163.640625 6.082031 163.640625 C 15.019531 163.640625 23.957031 163.640625 32.898438 163.640625 C 32.898438 163.632812 32.898438 163.625 32.898438 163.617188 Z M 32.898438 163.617188 "/>
<path style=" stroke:none;fill-rule:nonzero;fill:rgb(34.117647%,34.117647%,34.117647%);fill-opacity:1;" d="M 31.84375 193.867188 C 23.582031 193.867188 15.316406 193.832031 7.054688 193.902344 C 5.65625 193.914062 5.207031 193.507812 5.320312 192.148438 C 5.417969 190.933594 5.402344 189.695312 5.320312 188.472656 C 5.230469 187.1875 5.699219 186.78125 6.996094 186.792969 C 12.933594 186.859375 18.871094 186.828125 24.808594 186.828125 C 35.339844 186.828125 45.867188 186.863281 56.394531 186.785156 C 58.050781 186.773438 58.5625 187.28125 58.386719 188.871094 C 58.492188 188.082031 58.359375 193.769531 58.359375 193.769531 C 58.359375 193.769531 54.957031 193.839844 53.332031 193.847656 C 46.167969 193.890625 39.007812 193.867188 31.84375 193.867188 Z M 31.84375 193.867188 "/>
<path style=" stroke:none;fill-rule:nonzero;fill:rgb(34.117647%,34.117647%,34.117647%);fill-opacity:1;" d="M 222.449219 170.5625 C 222.449219 170.5625 224.273438 166.386719 225.332031 164.464844 C 225.734375 163.734375 226.253906 163.457031 227.089844 163.460938 C 235.039062 163.488281 242.988281 163.492188 250.933594 163.457031 C 252.019531 163.453125 252.5 163.75 252.441406 164.902344 C 252.371094 166.367188 252.402344 167.839844 252.433594 169.3125 C 252.449219 170.121094 252.21875 170.582031 251.3125 170.578125 C 241.714844 170.546875 232.117188 170.527344 222.519531 170.5 C 222.410156 170.5 222.554688 170.566406 222.554688 170.566406 L 222.449219 170.566406 Z M 222.449219 170.5625 "/>
<path style=" stroke:none;fill-rule:nonzero;fill:rgb(34.117647%,34.117647%,34.117647%);fill-opacity:1;" d="M 245.542969 200.53125 C 245.542969 196.058594 245.582031 191.585938 245.519531 187.117188 C 245.503906 185.925781 245.835938 185.574219 247.050781 185.566406 C 252 185.527344 252 185.484375 252 190.488281 C 252 198.265625 251.964844 206.046875 252.027344 213.824219 C 252.039062 215.25 251.667969 215.71875 250.195312 215.707031 C 245.542969 215.671875 245.542969 215.730469 245.542969 211.003906 C 245.542969 207.515625 245.542969 204.023438 245.542969 200.53125 Z M 245.542969 200.53125 "/>
<path style=" stroke:none;fill-rule:nonzero;fill:rgb(34.117647%,34.117647%,34.117647%);fill-opacity:1;" d="M 229.644531 200.585938 C 229.644531 205.0625 229.605469 209.539062 229.667969 214.011719 C 229.683594 215.289062 229.269531 215.683594 227.992188 215.699219 C 223.222656 215.761719 223.222656 215.804688 223.222656 211.058594 C 223.21875 203.273438 223.253906 195.488281 223.199219 187.703125 C 223.1875 186.070312 223.644531 185.496094 225.371094 185.546875 C 229.640625 185.667969 229.644531 185.578125 229.644531 189.917969 C 229.644531 193.472656 229.644531 197.027344 229.644531 200.585938 Z M 229.644531 200.585938 "/>
</g>
</svg>
