<svg width="40" height="40" viewBox="0 0 40 40" fill="none" xmlns="http://www.w3.org/2000/svg">
<path d="M13 3.33331H27C32.3333 3.33331 36.6667 7.66665 36.6667 13V27C36.6667 29.5637 35.6482 32.0225 33.8354 33.8354C32.0225 35.6482 29.5637 36.6667 27 36.6667H13C7.66665 36.6667 3.33331 32.3333 3.33331 27V13C3.33331 10.4362 4.35176 7.97747 6.16462 6.16462C7.97747 4.35176 10.4362 3.33331 13 3.33331ZM12.6666 6.66665C11.0753 6.66665 9.54923 7.29879 8.42401 8.42401C7.29879 9.54923 6.66665 11.0753 6.66665 12.6666V27.3333C6.66665 30.65 9.34998 33.3333 12.6666 33.3333H27.3333C28.9246 33.3333 30.4507 32.7012 31.576 31.576C32.7012 30.4507 33.3333 28.9246 33.3333 27.3333V12.6666C33.3333 9.34998 30.65 6.66665 27.3333 6.66665H12.6666ZM28.75 9.16665C29.3025 9.16665 29.8324 9.38614 30.2231 9.77684C30.6138 10.1675 30.8333 10.6974 30.8333 11.25C30.8333 11.8025 30.6138 12.3324 30.2231 12.7231C29.8324 13.1138 29.3025 13.3333 28.75 13.3333C28.1975 13.3333 27.6675 13.1138 27.2768 12.7231C26.8861 12.3324 26.6667 11.8025 26.6667 11.25C26.6667 10.6974 26.8861 10.1675 27.2768 9.77684C27.6675 9.38614 28.1975 9.16665 28.75 9.16665ZM20 11.6666C22.2101 11.6666 24.3297 12.5446 25.8925 14.1074C27.4553 15.6702 28.3333 17.7898 28.3333 20C28.3333 22.2101 27.4553 24.3297 25.8925 25.8925C24.3297 27.4553 22.2101 28.3333 20 28.3333C17.7898 28.3333 15.6702 27.4553 14.1074 25.8925C12.5446 24.3297 11.6666 22.2101 11.6666 20C11.6666 17.7898 12.5446 15.6702 14.1074 14.1074C15.6702 12.5446 17.7898 11.6666 20 11.6666ZM20 15C18.6739 15 17.4021 15.5268 16.4644 16.4644C15.5268 17.4021 15 18.6739 15 20C15 21.3261 15.5268 22.5978 16.4644 23.5355C17.4021 24.4732 18.6739 25 20 25C21.3261 25 22.5978 24.4732 23.5355 23.5355C24.4732 22.5978 25 21.3261 25 20C25 18.6739 24.4732 17.4021 23.5355 16.4644C22.5978 15.5268 21.3261 15 20 15Z" fill="white"/>
</svg>
