<svg width="686" height="436" viewBox="0 0 686 436" fill="none" xmlns="http://www.w3.org/2000/svg">
<path d="M156.37 275.828C150.7 238.308 91.6204 209.058 48.9004 227.608C27.0004 237.118 7.14041 260.188 5.78041 289.168C4.39041 318.848 22.6704 349.048 50.7204 358.108C81.2704 367.978 108.34 347.898 118.67 340.238C123.83 336.408 161.32 308.588 156.37 275.828Z" fill="#FBE1E1"/>
<path d="M67.7604 366.518C61.7304 366.518 55.4304 365.638 48.9704 363.548C19.5504 354.038 -1.46958 321.948 0.0804181 288.898C1.61042 256.248 24.5604 231.958 46.6304 222.378C69.8304 212.298 99.9304 214.718 125.16 228.688C145.87 240.148 159.3 257.018 162.01 274.978C163.65 285.848 163.05 314.418 122.07 344.828C113.3 351.338 92.8304 366.518 67.7604 366.518ZM77.8404 227.608C68.3904 227.608 59.2804 229.338 51.1804 232.858C32.3604 241.038 12.7904 261.698 11.4904 289.448C10.1704 317.528 27.8004 344.718 52.4804 352.698C80.2304 361.658 105.68 342.788 115.27 335.678C124.64 328.728 154.85 303.948 150.73 276.698C148.58 262.488 136.96 248.278 119.64 238.688C106.42 231.368 91.7604 227.618 77.8504 227.618L77.8404 227.608Z" fill="#231815"/>
<path d="M538.68 257.118C553.06 222.318 604.97 209.518 640.36 227.758C661.69 238.748 680.19 262.648 679.88 291.688C679.57 320.958 660.22 350.278 631.06 357.938C596.66 366.978 568.96 340.548 563.51 335.348C546.88 319.478 526.4 286.828 538.68 257.108V257.118Z" fill="#FBE1E1"/>
<path d="M616.65 365.518C597.29 365.518 577.5 356.588 559.57 339.488C543.29 323.958 519.46 288.668 533.4 254.938C540.02 238.908 554.13 226.248 573.13 219.278C596.26 210.798 622.37 212.068 642.97 222.688C662.86 232.938 685.95 257.178 685.58 291.748C685.22 325.308 662.91 355.468 632.51 363.458C627.29 364.828 621.98 365.508 616.64 365.508L616.65 365.518ZM604.5 225.208C595.22 225.208 585.82 226.798 577.07 229.998C561.1 235.858 549.34 246.258 543.96 259.298C532.35 287.378 554.26 318.628 567.46 331.228C578.98 342.218 602.38 359.588 629.62 352.428C654.73 345.828 673.88 319.688 674.18 291.638C674.49 262.258 654.75 241.608 637.75 232.848C627.92 227.788 616.31 225.218 604.5 225.218V225.208Z" fill="#231815"/>
<path d="M566.28 280.658C568.2 295.538 571.31 319.028 561.69 346.548C561.69 346.548 552.09 374.018 529.82 395.758C515.07 410.158 484.05 431.688 339.7 429.338C213.78 427.288 178.42 409.938 157.13 391.578C148.88 384.468 132.33 369.838 124.65 345.598C118.08 324.868 121.81 306.938 125.7 280.658C128.71 260.338 131.41 236.138 144.82 214.788C194.49 135.638 325.67 134.158 345.99 133.928C381.58 133.528 472.23 132.498 528.42 193.448C559.98 227.678 564.86 269.718 566.27 280.668L566.28 280.658Z" fill="#FBE1E1"/>
<path d="M361.25 435.218C354.33 435.218 347.13 435.158 339.62 435.038C220.5 433.098 179.03 417.988 153.42 395.898C145.68 389.228 127.56 373.598 119.23 347.318C112.87 327.268 115.58 309.488 119 286.978C119.35 284.658 119.71 282.278 120.08 279.818L120.73 275.368C123.64 255.308 126.93 232.578 140.01 211.748C186.33 137.938 299.46 128.738 345.95 128.218C381.17 127.828 474.73 126.758 532.64 189.578C554.02 212.768 567.22 242.958 571.88 279.308L571.96 279.928L572 280.228C573.91 295.038 577.1 319.818 567.1 348.438L566.98 348.398C564.75 355.508 554 380.158 533.83 399.848C515.77 417.488 480.81 435.228 361.26 435.228L361.25 435.218ZM356.55 139.558C352.64 139.558 349.12 139.598 346.06 139.628C314.62 139.988 284.92 143.578 257.78 150.298C206.12 163.098 169.74 185.818 149.66 217.818C137.87 236.608 134.76 258.078 132.01 277.008L131.36 281.488C130.99 283.958 130.63 286.358 130.27 288.688C126.95 310.548 124.55 326.348 130.1 343.858C137.45 367.048 153.86 381.198 160.87 387.238C174.69 399.158 200.41 421.338 339.8 423.608C490.59 426.088 515.29 401.948 525.83 391.658C546.82 371.168 556.2 344.918 556.3 344.648C565.41 318.588 562.55 296.368 560.65 281.668L560.53 280.738C556.18 246.778 543.96 218.708 524.22 197.288C474.67 143.558 395.85 139.538 356.54 139.538L356.55 139.558Z" fill="#231815"/>
<path d="M375.36 152.008C369.68 151.658 363.62 151.508 357.22 151.668C343.38 152.008 330.97 153.678 320.31 155.848C321.15 140.838 322.7 128.948 324.02 120.608C324.98 114.538 326.28 107.458 324.99 98.0179C324.23 92.4179 323.25 85.8379 318.35 80.5179C314.07 75.8679 311.25 77.0279 307.29 72.9779C301.26 66.8279 301.64 57.6379 301.52 50.4679C301.45 46.1879 301.19 31.5379 310.21 20.2579C324.67 2.18792 356.58 0.677923 375.46 14.0279C386.92 22.1279 391.92 34.5379 392.58 36.2479C395.6 44.0079 396.01 50.9179 395.93 55.1979C394.29 59.3879 391.22 65.5579 385.32 70.8479C380.22 75.4179 375.69 77.1079 373.86 78.1679C367 82.1079 362.83 98.1379 375.35 152.008H375.36Z" fill="#FBE1E1"/>
<path d="M315.14 152.828C316.39 135.058 318.94 99.408 320.26 81.658L324.02 87.028C322.52 86.578 321.32 86.148 320.06 85.628C269.68 63.978 293.66 2.53798 342.29 0.117978C354.14 -0.592022 366.42 1.86798 376.48 8.43798C394.2 19.348 406.02 40.398 395.86 60.608C391 70.548 382.15 77.858 372.27 81.738L375.11 77.238L379.21 151.768C379.37 156.768 372 157.358 371.49 152.258L366.06 77.808C365.91 75.798 367.12 73.998 368.9 73.308C391.16 63.958 397.61 39.608 378.96 22.838C362.48 6.46798 333.79 6.18798 316.01 20.648C294.63 39.718 299.06 67.898 326.8 77.068C329.21 77.738 330.76 80.038 330.56 82.438C329.19 100.138 326.33 135.868 324.88 153.568C324.21 159.898 314.87 159.318 315.12 152.828H315.14Z" fill="#231815"/>
<path d="M319.57 305.498C310.72 318.228 295.22 321.388 283.93 319.298C271.68 317.038 262.75 308.378 259.66 303.118C259.38 302.638 259.16 302.238 259.05 302.048C254.24 293.168 254.61 284.298 255.85 277.918C263.45 278.468 272.07 278.608 281.5 277.928C297.47 276.788 311.14 273.648 321.96 270.298C327.51 281.808 326.67 295.308 319.58 305.498H319.57Z" fill="white"/>
<path d="M290.22 325.678C268.33 325.678 250.52 307.868 250.52 285.978C250.52 264.088 268.33 246.278 290.22 246.278C312.11 246.278 329.92 264.088 329.92 285.978C329.92 307.868 312.11 325.678 290.22 325.678ZM290.22 252.808C271.93 252.808 257.05 267.688 257.05 285.978C257.05 304.268 271.93 319.158 290.22 319.158C308.51 319.158 323.39 304.278 323.39 285.978C323.39 267.678 308.51 252.808 290.22 252.808Z" fill="#231815"/>
<path d="M317.85 271.468C319.26 283.878 314.83 295.628 305.97 301.658C299.39 306.138 292.06 306.308 291 306.318C289.8 306.328 282.48 306.318 275.48 301.698C262.97 293.448 262.37 277.688 262.33 275.978C270.97 276.428 280.88 276.408 291.79 275.438C301.45 274.578 310.18 273.138 317.85 271.468Z" fill="#231815"/>
<path d="M252.65 281.198C248.32 281.198 244.01 281.108 239.71 280.928C237.91 280.858 236.51 279.338 236.59 277.538C236.66 275.738 238.17 274.338 239.98 274.418C255.95 275.078 272.21 274.488 288.31 272.648C299.39 271.388 310.46 269.528 321.24 267.118C323 266.728 324.74 267.828 325.13 269.588C325.52 271.348 324.42 273.088 322.66 273.478C311.66 275.938 300.35 277.838 289.05 279.128C276.95 280.508 264.75 281.198 252.65 281.198Z" fill="#231815"/>
<path d="M259.61 235.458C259.13 235.458 258.65 235.348 258.19 235.128C256.57 234.338 255.89 232.388 256.68 230.768C257.51 229.058 259.97 224.768 264.85 221.838C269 219.348 272.76 219.098 274.64 219.178C276.44 219.248 277.84 220.768 277.77 222.568C277.7 224.368 276.19 225.778 274.38 225.698C273.23 225.648 270.9 225.818 268.2 227.438C264.82 229.468 263.12 232.438 262.54 233.618C261.98 234.778 260.81 235.458 259.6 235.458H259.61Z" fill="#231815"/>
<path d="M425.06 307.678C415.83 319.118 400.34 322.378 387.72 318.718C373.74 314.668 367.23 303.168 365.69 300.228C358.08 285.678 362.88 271.618 363.72 269.298C371.04 272.418 380.74 275.688 392.43 277.438C408.74 279.878 422.58 278.418 432.07 276.598C432.5 278.638 435.62 294.598 425.06 307.688V307.678Z" fill="white"/>
<path d="M397.72 325.678C375.83 325.678 358.02 307.868 358.02 285.978C358.02 264.088 375.83 246.278 397.72 246.278C419.61 246.278 437.42 264.088 437.42 285.978C437.42 307.868 419.61 325.678 397.72 325.678ZM397.72 252.808C379.43 252.808 364.55 267.688 364.55 285.978C364.55 304.268 379.43 319.158 397.72 319.158C416.01 319.158 430.9 304.278 430.9 285.978C430.9 267.678 416.02 252.808 397.72 252.808Z" fill="#231815"/>
<path d="M426.41 276.888C426.24 289.378 420.36 300.478 410.8 305.338C403.7 308.948 396.41 308.188 395.36 308.068C394.44 307.958 386.97 306.998 380.55 301.518C368.29 291.058 370.52 273.258 370.73 271.758C378.33 274.198 388.26 276.608 400.06 277.538C410.27 278.338 419.22 277.818 426.41 276.898V276.888Z" fill="#231815"/>
<path d="M417.47 279.518C414.52 279.518 411.59 279.448 408.66 279.288C392.89 278.468 377.37 275.458 362.51 270.318C360.81 269.728 359.9 267.868 360.49 266.168C361.08 264.468 362.94 263.568 364.64 264.148C378.92 269.088 393.85 271.988 409 272.768C420.66 273.368 432.56 272.718 444.35 270.838C446.13 270.558 447.8 271.768 448.09 273.548C448.37 275.328 447.16 276.998 445.39 277.288C436.1 278.778 426.74 279.518 417.47 279.518Z" fill="#231815"/>
<path d="M424.59 234.388C423.45 234.388 422.35 233.788 421.75 232.728C421.18 231.728 419.82 229.828 417.02 228.388C413.51 226.578 410.09 226.688 408.79 226.828C406.98 227.008 405.4 225.708 405.21 223.918C405.03 222.128 406.33 220.528 408.12 220.338C410 220.148 414.94 219.978 420.01 222.588C424.31 224.808 426.5 227.878 427.42 229.508C428.31 231.078 427.75 233.068 426.19 233.948C425.68 234.238 425.13 234.368 424.59 234.368V234.388Z" fill="#231815"/>
<path d="M356.45 331.258C356.45 336.148 351.77 340.108 345.99 340.108C340.21 340.108 335.53 336.148 335.53 331.258C335.53 326.368 340.21 322.408 345.99 322.408C351.77 322.408 356.45 326.368 356.45 331.258Z" fill="#231815"/>
<path d="M345.21 363.568C344.14 363.568 343.04 363.518 341.92 363.418C334.16 362.718 328.2 359.668 324.57 357.228C323.07 356.228 322.67 354.198 323.68 352.698C324.68 351.198 326.71 350.798 328.21 351.808C331.21 353.818 336.13 356.338 342.52 356.918C351.68 357.758 358.78 354.158 362.2 351.948C363.71 350.968 365.73 351.398 366.71 352.908C367.69 354.418 367.26 356.438 365.75 357.418C362.05 359.818 354.74 363.558 345.23 363.558L345.21 363.568Z" fill="#231815"/>
<path d="M317.69 371.248C316.63 371.248 315.59 370.728 314.96 369.778C313.97 368.268 314.39 366.248 315.89 365.258C317.41 364.258 321.01 361.428 321.77 356.638C322.54 351.748 319.86 347.908 318.67 346.488C317.52 345.108 317.7 343.048 319.08 341.898C320.46 340.738 322.52 340.928 323.67 342.308C325.43 344.418 329.39 350.118 328.21 357.648C327.05 365.018 321.71 369.238 319.47 370.708C318.92 371.068 318.3 371.248 317.68 371.248H317.69Z" fill="#231815"/>
<path d="M347.97 238.728C358.453 238.728 366.95 229.227 366.95 217.508C366.95 205.788 358.453 196.288 347.97 196.288C337.488 196.288 328.99 205.788 328.99 217.508C328.99 229.227 337.488 238.728 347.97 238.728Z" fill="#FFE200"/>
<path d="M347.59 242.388C342.49 242.388 337.51 240.108 333.57 235.958C328.85 230.998 326.12 223.848 326.45 217.278C326.81 210.108 330.69 203.048 336.83 198.408C341.9 194.568 347.83 193.058 353.08 194.268C362.96 196.528 368.81 207.818 368.77 217.418C368.72 229.218 360.01 242.378 347.61 242.398H347.59V242.388ZM349.43 198.748C346.25 198.748 342.85 199.988 339.78 202.308C334.86 206.038 331.62 211.868 331.34 217.528C331.08 222.798 333.29 228.578 337.11 232.588C340.12 235.758 343.85 237.498 347.59 237.498H347.6C356.86 237.498 363.83 226.878 363.87 217.388C363.9 209.878 359.37 200.718 351.98 199.028C351.15 198.838 350.29 198.748 349.42 198.748H349.43Z" fill="#231815"/>
</svg>
