<svg width="588" height="81" viewBox="0 0 588 81" fill="none" xmlns="http://www.w3.org/2000/svg">
<rect y="41" width="588" height="40" fill="url(#paint0_linear_13_4)"/>
<mask id="path-2-outside-1_13_4" maskUnits="userSpaceOnUse" x="162.344" y="0.192017" width="264" height="74" fill="black">
<rect fill="white" x="162.344" y="0.192017" width="264" height="74"/>
<path d="M176.816 34.288V40.752H191.856V34.288H176.816ZM175.472 25.2V32.048H189.168V42.224H175.344V49.072H197.872V25.2H175.472ZM184.432 51.952C187.248 56.496 190.832 62.64 192.368 66.48L200.048 62.576C198.256 58.8 194.8 53.104 191.728 48.688L184.432 51.952ZM200.432 25.2V67.76H209.136V33.584H221.36V25.2H200.432ZM217.008 25.2V51.248C217.008 52.016 216.688 52.272 215.792 52.272C214.96 52.272 211.824 52.272 209.52 52.144C210.608 54.448 211.76 58.16 212.08 60.656C216.56 60.656 219.888 60.528 222.512 59.184C225.2 57.84 225.84 55.472 225.84 51.44V25.2H217.008ZM172.976 67.056C174.64 66.032 177.456 65.264 192.176 61.616C192.112 59.632 192.24 55.856 192.688 53.424L175.664 57.2L172.144 59.824L172.976 67.056ZM172.976 67.056C172.976 64.048 180.208 59.12 180.208 59.12V25.2H171.76V53.744C171.76 56.816 170.288 58.928 168.944 59.952C170.288 61.488 172.336 65.072 172.976 67.056ZM177.648 10.544V18.288H197.552V10.544H177.648ZM203.632 10.544V18.288H227.568V10.544H203.632ZM177.136 6.64001C175.024 11.76 171.248 17.008 167.344 20.272C169.136 22.128 172.272 26.352 173.488 28.272C178.288 23.792 183.216 16.432 186.224 9.45602L177.136 6.64001ZM203.696 6.64001C202.032 12.528 198.832 18.48 195.056 22.128C197.104 23.728 200.752 27.248 202.288 29.04C206.64 24.304 210.736 16.56 213.104 9.07202L203.696 6.64001ZM180.912 21.424C183.024 23.216 185.712 25.84 186.928 27.568L193.712 21.808C192.368 20.144 189.488 17.776 187.376 16.176L180.912 21.424ZM209.904 20.848C211.952 22.64 214.512 25.2 215.6 26.864L222.192 21.104C220.912 19.504 218.16 17.136 216.112 15.6L209.904 20.848Z"/>
<path d="M245.168 25.136V33.904H278.64V25.136H245.168ZM245.168 39.792V48.56H278.64V39.792H245.168ZM245.168 54.32V63.408H278.64V54.32H245.168ZM238.384 10.48V67.184H247.792V19.568H275.312V67.184H285.232V10.48H238.384Z"/>
<path d="M299.632 24.24V68.016H308.016V24.24H299.632ZM313.648 43.952V64.432H321.968V43.952H313.648ZM317.296 43.952V48.88H330.032V57.328H317.296V62.256H338.16V43.952H317.296ZM304.176 24.24V29.424H316.144V36.848H304.176V41.968H324.464V24.24H304.176ZM304.176 30.704V35.504H318.32V30.704H304.176ZM317.36 50.672V55.472H333.808V50.672H317.36ZM332.4 30.704V35.504H346.864V30.704H332.4ZM345.84 24.24H327.28V41.968H345.84V36.848H335.6V29.424H345.84V24.24ZM343.792 24.24V58.992C343.792 59.888 343.472 60.144 342.512 60.144C341.616 60.144 338.352 60.208 335.856 60.016C336.944 62.192 338.096 65.712 338.352 68.016C343.088 68.08 346.544 67.952 349.104 66.608C351.664 65.328 352.432 63.152 352.432 59.12V24.24H343.792ZM305.072 10.8V17.776H324.976V10.8H305.072ZM331.568 10.8V17.712H355.824V10.8H331.568ZM304.88 6.64001C302.832 11.184 299.12 15.792 295.344 18.672C297.072 20.144 300.08 23.472 301.36 25.072C305.712 21.296 310.256 15.088 313.008 9.13602L304.88 6.64001ZM331.44 6.64001C329.776 11.504 326.704 16.432 323.12 19.504C325.104 20.72 328.496 23.472 330.032 24.944C333.872 21.168 337.648 14.896 339.888 8.81602L331.44 6.64001ZM308.272 20.016C310.576 22 313.52 24.88 314.864 26.736L320.624 21.36C319.152 19.504 316.08 16.88 313.712 15.152L308.272 20.016ZM336.176 20.08C338.608 21.936 341.744 24.688 343.152 26.48L349.36 21.04C347.76 19.248 344.496 16.816 342.064 15.152L336.176 20.08Z"/>
<path d="M397.744 34.288V68.016H407.664V34.288H397.744ZM373.552 34.416V40.944C373.552 47.28 372.336 55.28 361.456 61.168C363.952 62.704 367.728 65.968 369.392 68.144C382 60.848 383.408 49.712 383.408 41.2V34.416H373.552ZM389.488 6.19202C383.472 15.216 370.992 23.6 358.512 27.12C360.624 29.552 362.992 33.456 364.208 36.144C376.88 31.216 390 21.744 397.04 11.568L389.488 6.19202ZM394.416 11.696L385.968 15.024C392.624 24.624 402.608 31.6 415.024 35.12C416.432 32.432 419.44 28.336 421.68 26.224C409.84 23.792 399.6 18.48 394.416 11.696Z"/>
</mask>
<path d="M176.816 34.288V40.752H191.856V34.288H176.816ZM175.472 25.2V32.048H189.168V42.224H175.344V49.072H197.872V25.2H175.472ZM184.432 51.952C187.248 56.496 190.832 62.64 192.368 66.48L200.048 62.576C198.256 58.8 194.8 53.104 191.728 48.688L184.432 51.952ZM200.432 25.2V67.76H209.136V33.584H221.36V25.2H200.432ZM217.008 25.2V51.248C217.008 52.016 216.688 52.272 215.792 52.272C214.96 52.272 211.824 52.272 209.52 52.144C210.608 54.448 211.76 58.16 212.08 60.656C216.56 60.656 219.888 60.528 222.512 59.184C225.2 57.84 225.84 55.472 225.84 51.44V25.2H217.008ZM172.976 67.056C174.64 66.032 177.456 65.264 192.176 61.616C192.112 59.632 192.24 55.856 192.688 53.424L175.664 57.2L172.144 59.824L172.976 67.056ZM172.976 67.056C172.976 64.048 180.208 59.12 180.208 59.12V25.2H171.76V53.744C171.76 56.816 170.288 58.928 168.944 59.952C170.288 61.488 172.336 65.072 172.976 67.056ZM177.648 10.544V18.288H197.552V10.544H177.648ZM203.632 10.544V18.288H227.568V10.544H203.632ZM177.136 6.64001C175.024 11.76 171.248 17.008 167.344 20.272C169.136 22.128 172.272 26.352 173.488 28.272C178.288 23.792 183.216 16.432 186.224 9.45602L177.136 6.64001ZM203.696 6.64001C202.032 12.528 198.832 18.48 195.056 22.128C197.104 23.728 200.752 27.248 202.288 29.04C206.64 24.304 210.736 16.56 213.104 9.07202L203.696 6.64001ZM180.912 21.424C183.024 23.216 185.712 25.84 186.928 27.568L193.712 21.808C192.368 20.144 189.488 17.776 187.376 16.176L180.912 21.424ZM209.904 20.848C211.952 22.64 214.512 25.2 215.6 26.864L222.192 21.104C220.912 19.504 218.16 17.136 216.112 15.6L209.904 20.848Z" fill="white"/>
<path d="M245.168 25.136V33.904H278.64V25.136H245.168ZM245.168 39.792V48.56H278.64V39.792H245.168ZM245.168 54.32V63.408H278.64V54.32H245.168ZM238.384 10.48V67.184H247.792V19.568H275.312V67.184H285.232V10.48H238.384Z" fill="white"/>
<path d="M299.632 24.24V68.016H308.016V24.24H299.632ZM313.648 43.952V64.432H321.968V43.952H313.648ZM317.296 43.952V48.88H330.032V57.328H317.296V62.256H338.16V43.952H317.296ZM304.176 24.24V29.424H316.144V36.848H304.176V41.968H324.464V24.24H304.176ZM304.176 30.704V35.504H318.32V30.704H304.176ZM317.36 50.672V55.472H333.808V50.672H317.36ZM332.4 30.704V35.504H346.864V30.704H332.4ZM345.84 24.24H327.28V41.968H345.84V36.848H335.6V29.424H345.84V24.24ZM343.792 24.24V58.992C343.792 59.888 343.472 60.144 342.512 60.144C341.616 60.144 338.352 60.208 335.856 60.016C336.944 62.192 338.096 65.712 338.352 68.016C343.088 68.08 346.544 67.952 349.104 66.608C351.664 65.328 352.432 63.152 352.432 59.12V24.24H343.792ZM305.072 10.8V17.776H324.976V10.8H305.072ZM331.568 10.8V17.712H355.824V10.8H331.568ZM304.88 6.64001C302.832 11.184 299.12 15.792 295.344 18.672C297.072 20.144 300.08 23.472 301.36 25.072C305.712 21.296 310.256 15.088 313.008 9.13602L304.88 6.64001ZM331.44 6.64001C329.776 11.504 326.704 16.432 323.12 19.504C325.104 20.72 328.496 23.472 330.032 24.944C333.872 21.168 337.648 14.896 339.888 8.81602L331.44 6.64001ZM308.272 20.016C310.576 22 313.52 24.88 314.864 26.736L320.624 21.36C319.152 19.504 316.08 16.88 313.712 15.152L308.272 20.016ZM336.176 20.08C338.608 21.936 341.744 24.688 343.152 26.48L349.36 21.04C347.76 19.248 344.496 16.816 342.064 15.152L336.176 20.08Z" fill="white"/>
<path d="M397.744 34.288V68.016H407.664V34.288H397.744ZM373.552 34.416V40.944C373.552 47.28 372.336 55.28 361.456 61.168C363.952 62.704 367.728 65.968 369.392 68.144C382 60.848 383.408 49.712 383.408 41.2V34.416H373.552ZM389.488 6.19202C383.472 15.216 370.992 23.6 358.512 27.12C360.624 29.552 362.992 33.456 364.208 36.144C376.88 31.216 390 21.744 397.04 11.568L389.488 6.19202ZM394.416 11.696L385.968 15.024C392.624 24.624 402.608 31.6 415.024 35.12C416.432 32.432 419.44 28.336 421.68 26.224C409.84 23.792 399.6 18.48 394.416 11.696Z" fill="white"/>
<path d="M176.816 34.288V28.288L170.816 34.288H176.816ZM176.816 40.752H170.816L176.816 46.752V40.752ZM191.856 40.752V46.752L197.856 40.752H191.856ZM191.856 34.288H197.856L191.856 28.288V34.288ZM175.472 25.2V19.2L169.472 25.2H175.472ZM175.472 32.048H169.472L175.472 38.048V32.048ZM189.168 32.048H195.168L189.168 26.048V32.048ZM189.168 42.224V48.224L195.168 42.224H189.168ZM175.344 42.224V36.224L169.344 42.224H175.344ZM175.344 49.072H169.344L175.344 55.072V49.072ZM197.872 49.072V55.072L203.872 49.072H197.872ZM197.872 25.2H203.872L197.872 19.2V25.2ZM184.432 51.952L181.982 46.4751L179.332 55.1126L184.432 51.952ZM192.368 66.48L186.797 68.7084L195.087 71.8286L192.368 66.48ZM200.048 62.576L202.767 67.9246L205.469 60.0036L200.048 62.576ZM191.728 48.688L196.653 45.2616L189.278 43.2111L191.728 48.688ZM200.432 25.2V19.2L194.432 25.2H200.432ZM200.432 67.76H194.432L200.432 73.76V67.76ZM209.136 67.76V73.76L215.136 67.76H209.136ZM209.136 33.584V27.584L203.136 33.584H209.136ZM221.36 33.584V39.584L227.36 33.584H221.36ZM221.36 25.2H227.36L221.36 19.2V25.2ZM217.008 25.2V19.2L211.008 25.2H217.008ZM209.52 52.144L209.853 46.1533L204.095 54.7061L209.52 52.144ZM212.08 60.656L206.129 61.419L212.08 66.656V60.656ZM222.512 59.184L219.829 53.8175L219.777 53.8438L222.512 59.184ZM225.84 25.2H231.84L225.84 19.2V25.2ZM172.976 67.056L167.266 68.898L176.121 72.166L172.976 67.056ZM192.176 61.616L193.619 67.4398L198.173 61.4226L192.176 61.616ZM192.688 53.424L198.589 54.511L191.389 47.5664L192.688 53.424ZM175.664 57.2L174.365 51.3424L172.078 52.3895L175.664 57.2ZM172.144 59.824L168.558 55.0135L166.183 60.5098L172.144 59.824ZM180.208 59.12L183.587 64.0783L186.208 59.12H180.208ZM180.208 25.2H186.208L180.208 19.2V25.2ZM171.76 25.2V19.2L165.76 25.2H171.76ZM168.944 59.952L165.308 55.1794L164.429 63.903L168.944 59.952ZM177.648 10.544V4.54402L171.648 10.544H177.648ZM177.648 18.288H171.648L177.648 24.288V18.288ZM197.552 18.288V24.288L203.552 18.288H197.552ZM197.552 10.544H203.552L197.552 4.54402V10.544ZM203.632 10.544V4.54402L197.632 10.544H203.632ZM203.632 18.288H197.632L203.632 24.288V18.288ZM227.568 18.288V24.288L233.568 18.288H227.568ZM227.568 10.544H233.568L227.568 4.54402V10.544ZM177.136 6.64001L178.912 0.908843L171.589 4.35203L177.136 6.64001ZM167.344 20.272L163.495 15.6689L163.028 24.4396L167.344 20.272ZM173.488 28.272L168.419 31.4823L177.582 32.6584L173.488 28.272ZM186.224 9.45602L191.734 11.8317L188 3.72484L186.224 9.45602ZM203.696 6.64001L205.198 0.830968L197.922 5.00827L203.696 6.64001ZM195.056 22.128L190.887 17.8129L191.362 26.8562L195.056 22.128ZM202.288 29.04L197.732 32.9448L206.706 33.0998L202.288 29.04ZM213.104 9.07202L218.825 10.8811L214.606 3.26297L213.104 9.07202ZM180.912 21.424L177.13 16.7659L177.03 25.9991L180.912 21.424ZM186.928 27.568L182.021 31.021L190.811 32.1418L186.928 27.568ZM193.712 21.808L197.595 26.3818L198.38 18.038L193.712 21.808ZM187.376 16.176L190.999 11.3935L183.594 11.5179L187.376 16.176ZM209.904 20.848L206.03 16.2659L205.953 25.3635L209.904 20.848ZM215.6 26.864L210.578 30.1475L219.548 31.3822L215.6 26.864ZM222.192 21.104L226.14 25.6222L226.877 17.3558L222.192 21.104ZM216.112 15.6L219.712 10.8L212.238 11.0179L216.112 15.6ZM245.168 25.136V19.136L239.168 25.136H245.168ZM245.168 33.904H239.168L245.168 39.904V33.904ZM278.64 33.904V39.904L284.64 33.904H278.64ZM278.64 25.136H284.64L278.64 19.136V25.136ZM245.168 39.792V33.792L239.168 39.792H245.168ZM245.168 48.56H239.168L245.168 54.56V48.56ZM278.64 48.56V54.56L284.64 48.56H278.64ZM278.64 39.792H284.64L278.64 33.792V39.792ZM245.168 54.32V48.32L239.168 54.32H245.168ZM245.168 63.408H239.168L245.168 69.408V63.408ZM278.64 63.408V69.408L284.64 63.408H278.64ZM278.64 54.32H284.64L278.64 48.32V54.32ZM238.384 10.48V4.48001L232.384 10.48H238.384ZM238.384 67.184H232.384L238.384 73.184V67.184ZM247.792 67.184V73.184L253.792 67.184H247.792ZM247.792 19.568V13.568L241.792 19.568H247.792ZM275.312 19.568H281.312L275.312 13.568V19.568ZM275.312 67.184H269.312L275.312 73.184V67.184ZM285.232 67.184V73.184L291.232 67.184H285.232ZM285.232 10.48H291.232L285.232 4.48001V10.48ZM299.632 24.24V18.24L293.632 24.24H299.632ZM299.632 68.016H293.632L299.632 74.016V68.016ZM308.016 68.016V74.016L314.016 68.016H308.016ZM308.016 24.24H314.016L308.016 18.24V24.24ZM313.648 43.952V37.952L307.648 43.952H313.648ZM313.648 64.432H307.648L313.648 70.432V64.432ZM321.968 64.432V70.432L327.968 64.432H321.968ZM321.968 43.952H327.968L321.968 37.952V43.952ZM317.296 43.952V37.952L311.296 43.952H317.296ZM317.296 48.88H311.296L317.296 54.88V48.88ZM330.032 48.88H336.032L330.032 42.88V48.88ZM330.032 57.328V63.328L336.032 57.328H330.032ZM317.296 57.328V51.328L311.296 57.328H317.296ZM317.296 62.256H311.296L317.296 68.256V62.256ZM338.16 62.256V68.256L344.16 62.256H338.16ZM338.16 43.952H344.16L338.16 37.952V43.952ZM304.176 24.24V18.24L298.176 24.24H304.176ZM304.176 29.424H298.176L304.176 35.424V29.424ZM316.144 29.424H322.144L316.144 23.424V29.424ZM316.144 36.848V42.848L322.144 36.848H316.144ZM304.176 36.848V30.848L298.176 36.848H304.176ZM304.176 41.968H298.176L304.176 47.968V41.968ZM324.464 41.968V47.968L330.464 41.968H324.464ZM324.464 24.24H330.464L324.464 18.24V24.24ZM304.176 30.704V24.704L298.176 30.704H304.176ZM304.176 35.504H298.176L304.176 41.504V35.504ZM318.32 35.504V41.504L324.32 35.504H318.32ZM318.32 30.704H324.32L318.32 24.704V30.704ZM317.36 50.672V44.672L311.36 50.672H317.36ZM317.36 55.472H311.36L317.36 61.472V55.472ZM333.808 55.472V61.472L339.808 55.472H333.808ZM333.808 50.672H339.808L333.808 44.672V50.672ZM332.4 30.704V24.704L326.4 30.704H332.4ZM332.4 35.504H326.4L332.4 41.504V35.504ZM346.864 35.504V41.504L352.864 35.504H346.864ZM346.864 30.704H352.864L346.864 24.704V30.704ZM345.84 24.24H351.84L345.84 18.24V24.24ZM327.28 24.24V18.24L321.28 24.24H327.28ZM327.28 41.968H321.28L327.28 47.968V41.968ZM345.84 41.968V47.968L351.84 41.968H345.84ZM345.84 36.848H351.84L345.84 30.848V36.848ZM335.6 36.848H329.6L335.6 42.848V36.848ZM335.6 29.424V23.424L329.6 29.424H335.6ZM345.84 29.424V35.424L351.84 29.424H345.84ZM343.792 24.24V18.24L337.792 24.24H343.792ZM335.856 60.016L336.316 54.0337L330.489 62.6993L335.856 60.016ZM338.352 68.016L332.389 68.6786L338.271 74.0155L338.352 68.016ZM349.104 66.608L346.421 61.2415L346.315 61.2956L349.104 66.608ZM352.432 24.24H358.432L352.432 18.24V24.24ZM305.072 10.8V4.80002L299.072 10.8H305.072ZM305.072 17.776H299.072L305.072 23.776V17.776ZM324.976 17.776V23.776L330.976 17.776H324.976ZM324.976 10.8H330.976L324.976 4.80002V10.8ZM331.568 10.8V4.80002L325.568 10.8H331.568ZM331.568 17.712H325.568L331.568 23.712V17.712ZM355.824 17.712V23.712L361.824 17.712H355.824ZM355.824 10.8H361.824L355.824 4.80002V10.8ZM304.88 6.64001L306.641 0.904365L299.41 4.17463L304.88 6.64001ZM295.344 18.672L291.705 13.9013L291.453 23.2395L295.344 18.672ZM301.36 25.072L296.675 28.8202L305.292 29.604L301.36 25.072ZM313.008 9.13602L318.454 11.6541L314.769 3.40037L313.008 9.13602ZM331.44 6.64001L332.937 0.829665L325.763 4.69789L331.44 6.64001ZM323.12 19.504L319.215 14.9485L319.985 24.6196L323.12 19.504ZM330.032 24.944L325.881 29.2759L334.239 29.2222L330.032 24.944ZM339.888 8.81602L345.518 10.8902L341.385 3.00567L339.888 8.81602ZM308.272 20.016L304.273 15.5432L304.357 24.5626L308.272 20.016ZM314.864 26.736L310.004 30.2551L318.958 31.1223L314.864 26.736ZM320.624 21.36L324.718 25.7463L325.325 17.6316L320.624 21.36ZM313.712 15.152L317.249 10.3053L309.713 10.6792L313.712 15.152ZM336.176 20.08L332.325 15.4789L332.536 24.8497L336.176 20.08ZM343.152 26.48L338.434 30.1869L347.106 30.9926L343.152 26.48ZM349.36 21.04L353.314 25.5526L353.836 17.0439L349.36 21.04ZM342.064 15.152L345.452 10.2002L338.213 10.5509L342.064 15.152ZM397.744 34.288V28.288L391.744 34.288H397.744ZM397.744 68.016H391.744L397.744 74.016V68.016ZM407.664 68.016V74.016L413.664 68.016H407.664ZM407.664 34.288H413.664L407.664 28.288V34.288ZM373.552 34.416V28.416L367.552 34.416H373.552ZM361.456 61.168L358.6 55.8912L358.311 66.278L361.456 61.168ZM369.392 68.144L364.626 71.7887L372.397 73.3372L369.392 68.144ZM383.408 34.416H389.408L383.408 28.416V34.416ZM389.488 6.19202L392.968 1.30402L384.496 2.86382L389.488 6.19202ZM358.512 27.12L356.883 21.3453L353.982 31.0541L358.512 27.12ZM364.208 36.144L358.741 38.617L366.383 41.736L364.208 36.144ZM397.04 11.568L401.974 14.9817L400.52 6.68002L397.04 11.568ZM394.416 11.696L399.183 8.05299L392.217 6.11357L394.416 11.696ZM385.968 15.024L383.769 9.44157L381.037 18.4427L385.968 15.024ZM415.024 35.12L413.387 40.8925L420.339 37.9041L415.024 35.12ZM421.68 26.224L425.796 30.5896L422.887 20.3467L421.68 26.224ZM170.816 34.288V40.752H182.816V34.288H170.816ZM176.816 46.752H191.856V34.752H176.816V46.752ZM197.856 40.752V34.288H185.856V40.752H197.856ZM191.856 28.288H176.816V40.288H191.856V28.288ZM169.472 25.2V32.048H181.472V25.2H169.472ZM175.472 38.048H189.168V26.048H175.472V38.048ZM183.168 32.048V42.224H195.168V32.048H183.168ZM189.168 36.224H175.344V48.224H189.168V36.224ZM169.344 42.224V49.072H181.344V42.224H169.344ZM175.344 55.072H197.872V43.072H175.344V55.072ZM203.872 49.072V25.2H191.872V49.072H203.872ZM197.872 19.2H175.472V31.2H197.872V19.2ZM179.332 55.1126C182.177 59.7032 185.484 65.4252 186.797 68.7084L197.939 64.2517C196.18 59.8549 192.319 53.2888 189.532 48.7914L179.332 55.1126ZM195.087 71.8286L202.767 67.9246L197.329 57.2274L189.649 61.1314L195.087 71.8286ZM205.469 60.0036C203.486 55.8254 199.834 49.8331 196.653 45.2616L186.803 52.1144C189.766 56.3749 193.026 61.7746 194.627 65.1485L205.469 60.0036ZM189.278 43.2111L181.982 46.4751L186.882 57.4289L194.178 54.1649L189.278 43.2111ZM194.432 25.2V67.76H206.432V25.2H194.432ZM200.432 73.76H209.136V61.76H200.432V73.76ZM215.136 67.76V33.584H203.136V67.76H215.136ZM209.136 39.584H221.36V27.584H209.136V39.584ZM227.36 33.584V25.2H215.36V33.584H227.36ZM221.36 19.2H200.432V31.2H221.36V19.2ZM211.008 25.2V51.248H223.008V25.2H211.008ZM211.008 51.248C211.008 51.0036 211.029 48.9932 212.895 47.4387C213.715 46.7554 214.533 46.484 215.011 46.3737C215.464 46.2691 215.773 46.272 215.792 46.272V58.272C216.45 58.272 218.652 58.2618 220.577 56.6573C222.827 54.7828 223.008 52.2604 223.008 51.248H211.008ZM215.792 46.272C214.929 46.272 211.962 46.2704 209.853 46.1533L209.187 58.1348C211.686 58.2736 214.991 58.272 215.792 58.272V46.272ZM204.095 54.7061C204.951 56.5209 205.899 59.6279 206.129 61.419L218.031 59.893C217.621 56.6922 216.265 52.3752 214.945 49.582L204.095 54.7061ZM212.08 66.656C216.269 66.656 221.115 66.6408 225.247 64.5243L219.777 53.8438C218.661 54.4152 216.851 54.656 212.08 54.656V66.656ZM225.195 64.5506C227.824 63.2362 229.715 61.1991 230.769 58.5117C231.693 56.1584 231.84 53.6221 231.84 51.44H219.84C219.84 52.3074 219.804 52.9404 219.745 53.4124C219.686 53.882 219.616 54.0848 219.599 54.1283C219.593 54.1432 219.637 54.034 219.759 53.902C219.877 53.7744 219.943 53.7601 219.829 53.8175L225.195 64.5506ZM231.84 51.44V25.2H219.84V51.44H231.84ZM225.84 19.2H217.008V31.2H225.84V19.2ZM176.121 72.166C176.179 72.13 176.584 71.863 179.308 71.0948C181.947 70.3507 186.225 69.2723 193.619 67.4398L190.733 55.7922C183.407 57.6077 178.917 58.7374 176.052 59.5452C173.272 60.329 171.437 60.958 169.831 61.9461L176.121 72.166ZM198.173 61.4226C198.117 59.6771 198.247 56.3675 198.589 54.511L186.787 52.337C186.233 55.3445 186.107 59.587 186.179 61.8095L198.173 61.4226ZM191.389 47.5664L174.365 51.3424L176.963 63.0577L193.987 59.2817L191.389 47.5664ZM172.078 52.3895L168.558 55.0135L175.73 64.6345L179.25 62.0105L172.078 52.3895ZM166.183 60.5098L167.015 67.7418L178.937 66.3703L178.105 59.1383L166.183 60.5098ZM178.976 67.056C178.976 67.8466 178.751 68.3309 178.721 68.3942C178.68 68.4828 178.699 68.4183 178.869 68.1959C179.217 67.741 179.807 67.1306 180.579 66.4434C181.321 65.7835 182.087 65.1809 182.68 64.7353C182.973 64.5159 183.213 64.3422 183.374 64.2273C183.455 64.1701 183.515 64.1279 183.552 64.1024C183.57 64.0897 183.583 64.0811 183.589 64.0771C183.591 64.075 183.593 64.0741 183.593 64.0743C183.592 64.0744 183.592 64.0748 183.591 64.0754C183.59 64.0758 183.59 64.0762 183.589 64.0767C183.589 64.0769 183.588 64.0773 183.588 64.0774C183.587 64.0779 183.587 64.0783 180.208 59.12C176.829 54.1617 176.829 54.1622 176.828 54.1627C176.828 54.1629 176.827 54.1634 176.826 54.1638C176.825 54.1646 176.824 54.1655 176.822 54.1664C176.82 54.1683 176.817 54.1704 176.813 54.1729C176.806 54.1779 176.797 54.1841 176.786 54.1914C176.765 54.2062 176.736 54.2257 176.702 54.2498C176.632 54.298 176.537 54.3646 176.42 54.4479C176.186 54.6143 175.861 54.8492 175.476 55.1387C174.713 55.7112 173.671 56.5286 172.605 57.4767C171.569 58.3974 170.351 59.5831 169.343 60.8981C168.524 61.9677 166.976 64.2036 166.976 67.056H178.976ZM186.208 59.12V25.2H174.208V59.12H186.208ZM180.208 19.2H171.76V31.2H180.208V19.2ZM165.76 25.2V53.744H177.76V25.2H165.76ZM165.76 53.744C165.76 54.8028 165.278 55.2022 165.308 55.1794L172.58 64.7246C175.298 62.6538 177.76 58.8293 177.76 53.744H165.76ZM164.429 63.903C164.71 64.2246 165.325 65.1015 166.009 66.3028C166.693 67.5055 167.132 68.4829 167.266 68.898L178.686 65.214C178.18 63.6452 177.275 61.8386 176.439 60.3693C175.603 58.8986 174.522 57.2154 173.459 56.001L164.429 63.903ZM171.648 10.544V18.288H183.648V10.544H171.648ZM177.648 24.288H197.552V12.288H177.648V24.288ZM203.552 18.288V10.544H191.552V18.288H203.552ZM197.552 4.54402H177.648V16.544H197.552V4.54402ZM197.632 10.544V18.288H209.632V10.544H197.632ZM203.632 24.288H227.568V12.288H203.632V24.288ZM233.568 18.288V10.544H221.568V18.288H233.568ZM227.568 4.54402H203.632V16.544H227.568V4.54402ZM171.589 4.35203C169.817 8.64969 166.594 13.0781 163.495 15.6689L171.193 24.8752C175.902 20.9379 180.231 14.8703 182.683 8.928L171.589 4.35203ZM163.028 24.4396C164.45 25.9133 167.342 29.782 168.419 31.4823L178.557 25.0617C177.202 22.922 173.821 18.3427 171.66 16.1045L163.028 24.4396ZM177.582 32.6584C183.101 27.5076 188.465 19.4124 191.734 11.8317L180.714 7.08031C177.967 13.4517 173.475 20.0765 169.394 23.8857L177.582 32.6584ZM188 3.72484L178.912 0.908843L175.36 12.3712L184.448 15.1872L188 3.72484ZM197.922 5.00827C196.464 10.168 193.708 15.0875 190.887 17.8129L199.225 26.4432C203.956 21.8725 207.6 14.888 209.47 8.27176L197.922 5.00827ZM191.362 26.8562C193.086 28.2027 196.447 31.4447 197.732 32.9448L206.844 25.1353C205.057 23.0513 201.122 19.2534 198.75 17.3999L191.362 26.8562ZM206.706 33.0998C211.812 27.5435 216.274 18.9459 218.825 10.8811L207.383 7.26289C205.198 14.1741 201.468 21.0645 197.87 24.9803L206.706 33.0998ZM214.606 3.26297L205.198 0.830968L202.194 12.4491L211.602 14.8811L214.606 3.26297ZM177.03 25.9991C179.051 27.7139 181.259 29.9383 182.021 31.021L191.835 24.1151C190.165 21.7418 186.997 18.7181 184.794 16.849L177.03 25.9991ZM190.811 32.1418L197.595 26.3818L189.829 17.2343L183.045 22.9943L190.811 32.1418ZM198.38 18.038C196.514 15.7284 193.067 12.9597 190.999 11.3935L183.753 20.9586C185.909 22.5923 188.222 24.5596 189.044 25.578L198.38 18.038ZM183.594 11.5179L177.13 16.7659L184.694 26.0821L191.158 20.8341L183.594 11.5179ZM205.953 25.3635C207.956 27.116 209.972 29.221 210.578 30.1475L220.622 23.5805C219.052 21.179 215.948 18.164 213.855 16.3326L205.953 25.3635ZM219.548 31.3822L226.14 25.6222L218.244 16.5858L211.652 22.3458L219.548 31.3822ZM226.877 17.3558C225.105 15.1411 221.851 12.4041 219.712 10.8L212.512 20.4C214.469 21.868 216.719 23.8669 217.507 24.8522L226.877 17.3558ZM212.238 11.0179L206.03 16.2659L213.778 25.4301L219.986 20.1821L212.238 11.0179ZM239.168 25.136V33.904H251.168V25.136H239.168ZM245.168 39.904H278.64V27.904H245.168V39.904ZM284.64 33.904V25.136H272.64V33.904H284.64ZM278.64 19.136H245.168V31.136H278.64V19.136ZM239.168 39.792V48.56H251.168V39.792H239.168ZM245.168 54.56H278.64V42.56H245.168V54.56ZM284.64 48.56V39.792H272.64V48.56H284.64ZM278.64 33.792H245.168V45.792H278.64V33.792ZM239.168 54.32V63.408H251.168V54.32H239.168ZM245.168 69.408H278.64V57.408H245.168V69.408ZM284.64 63.408V54.32H272.64V63.408H284.64ZM278.64 48.32H245.168V60.32H278.64V48.32ZM232.384 10.48V67.184H244.384V10.48H232.384ZM238.384 73.184H247.792V61.184H238.384V73.184ZM253.792 67.184V19.568H241.792V67.184H253.792ZM247.792 25.568H275.312V13.568H247.792V25.568ZM269.312 19.568V67.184H281.312V19.568H269.312ZM275.312 73.184H285.232V61.184H275.312V73.184ZM291.232 67.184V10.48H279.232V67.184H291.232ZM285.232 4.48001H238.384V16.48H285.232V4.48001ZM293.632 24.24V68.016H305.632V24.24H293.632ZM299.632 74.016H308.016V62.016H299.632V74.016ZM314.016 68.016V24.24H302.016V68.016H314.016ZM308.016 18.24H299.632V30.24H308.016V18.24ZM307.648 43.952V64.432H319.648V43.952H307.648ZM313.648 70.432H321.968V58.432H313.648V70.432ZM327.968 64.432V43.952H315.968V64.432H327.968ZM321.968 37.952H313.648V49.952H321.968V37.952ZM311.296 43.952V48.88H323.296V43.952H311.296ZM317.296 54.88H330.032V42.88H317.296V54.88ZM324.032 48.88V57.328H336.032V48.88H324.032ZM330.032 51.328H317.296V63.328H330.032V51.328ZM311.296 57.328V62.256H323.296V57.328H311.296ZM317.296 68.256H338.16V56.256H317.296V68.256ZM344.16 62.256V43.952H332.16V62.256H344.16ZM338.16 37.952H317.296V49.952H338.16V37.952ZM298.176 24.24V29.424H310.176V24.24H298.176ZM304.176 35.424H316.144V23.424H304.176V35.424ZM310.144 29.424V36.848H322.144V29.424H310.144ZM316.144 30.848H304.176V42.848H316.144V30.848ZM298.176 36.848V41.968H310.176V36.848H298.176ZM304.176 47.968H324.464V35.968H304.176V47.968ZM330.464 41.968V24.24H318.464V41.968H330.464ZM324.464 18.24H304.176V30.24H324.464V18.24ZM298.176 30.704V35.504H310.176V30.704H298.176ZM304.176 41.504H318.32V29.504H304.176V41.504ZM324.32 35.504V30.704H312.32V35.504H324.32ZM318.32 24.704H304.176V36.704H318.32V24.704ZM311.36 50.672V55.472H323.36V50.672H311.36ZM317.36 61.472H333.808V49.472H317.36V61.472ZM339.808 55.472V50.672H327.808V55.472H339.808ZM333.808 44.672H317.36V56.672H333.808V44.672ZM326.4 30.704V35.504H338.4V30.704H326.4ZM332.4 41.504H346.864V29.504H332.4V41.504ZM352.864 35.504V30.704H340.864V35.504H352.864ZM346.864 24.704H332.4V36.704H346.864V24.704ZM345.84 18.24H327.28V30.24H345.84V18.24ZM321.28 24.24V41.968H333.28V24.24H321.28ZM327.28 47.968H345.84V35.968H327.28V47.968ZM351.84 41.968V36.848H339.84V41.968H351.84ZM345.84 30.848H335.6V42.848H345.84V30.848ZM341.6 36.848V29.424H329.6V36.848H341.6ZM335.6 35.424H345.84V23.424H335.6V35.424ZM351.84 29.424V24.24H339.84V29.424H351.84ZM337.792 24.24V58.992H349.792V24.24H337.792ZM337.792 58.992C337.792 58.9157 337.792 58.454 337.98 57.8259C338.195 57.1103 338.655 56.1858 339.548 55.3997C340.402 54.6486 341.273 54.3575 341.77 54.2431C342.018 54.186 342.212 54.1635 342.323 54.1538C342.435 54.144 342.504 54.144 342.512 54.144V66.144C343.1 66.144 345.473 66.1704 347.476 64.4083C349.716 62.4369 349.792 59.8272 349.792 58.992H337.792ZM342.512 54.144C341.408 54.144 338.51 54.2025 336.316 54.0337L335.396 65.9983C338.194 66.2136 341.824 66.144 342.512 66.144V54.144ZM330.489 62.6993C331.336 64.3919 332.227 67.2271 332.389 68.6786L344.315 67.3534C343.965 64.1969 342.552 59.9922 341.223 57.3327L330.489 62.6993ZM338.271 74.0155C342.695 74.0753 347.754 74.0935 351.893 71.9204L346.315 61.2956C345.334 61.8106 343.481 62.0848 338.433 62.0166L338.271 74.0155ZM351.787 71.9746C354.233 70.7519 356.137 68.8698 357.252 66.2374C358.241 63.9057 358.432 61.3809 358.432 59.12H346.432C346.432 59.9542 346.391 60.5469 346.331 60.9699C346.272 61.3886 346.207 61.548 346.204 61.5546C346.204 61.5549 346.207 61.546 346.216 61.5295C346.225 61.5129 346.238 61.4904 346.255 61.4636C346.292 61.4073 346.338 61.3488 346.39 61.2954C346.501 61.1804 346.552 61.1758 346.421 61.2415L351.787 71.9746ZM358.432 59.12V24.24H346.432V59.12H358.432ZM352.432 18.24H343.792V30.24H352.432V18.24ZM299.072 10.8V17.776H311.072V10.8H299.072ZM305.072 23.776H324.976V11.776H305.072V23.776ZM330.976 17.776V10.8H318.976V17.776H330.976ZM324.976 4.80002H305.072V16.8H324.976V4.80002ZM325.568 10.8V17.712H337.568V10.8H325.568ZM331.568 23.712H355.824V11.712H331.568V23.712ZM361.824 17.712V10.8H349.824V17.712H361.824ZM355.824 4.80002H331.568V16.8H355.824V4.80002ZM299.41 4.17463C297.775 7.80199 294.696 11.6203 291.705 13.9013L298.983 23.4427C303.544 19.9637 307.889 14.566 310.35 9.1054L299.41 4.17463ZM291.453 23.2395C292.771 24.3624 295.509 27.3631 296.675 28.8202L306.045 21.3239C304.651 19.5809 301.373 15.9257 299.235 14.1046L291.453 23.2395ZM305.292 29.604C310.365 25.2025 315.393 18.2755 318.454 11.6541L307.562 6.61795C305.119 11.9005 301.059 17.3895 297.428 20.5401L305.292 29.604ZM314.769 3.40037L306.641 0.904365L303.119 12.3757L311.247 14.8717L314.769 3.40037ZM325.763 4.69789C324.372 8.7651 321.828 12.7092 319.215 14.9485L327.025 24.0596C331.58 20.1548 335.18 14.2429 337.117 8.58214L325.763 4.69789ZM319.985 24.6196C321.509 25.5538 324.563 28.0132 325.881 29.2759L334.183 20.6121C332.429 18.9308 328.699 15.8862 326.255 14.3884L319.985 24.6196ZM334.239 29.2222C338.857 24.6812 343.052 17.5833 345.518 10.8902L334.258 6.74179C332.244 12.2087 328.887 17.6548 325.825 20.6659L334.239 29.2222ZM341.385 3.00567L332.937 0.829665L329.943 12.4504L338.391 14.6264L341.385 3.00567ZM304.357 24.5626C306.583 26.4793 309.087 28.988 310.004 30.2551L319.724 23.217C317.953 20.772 314.569 17.5208 312.187 15.4694L304.357 24.5626ZM318.958 31.1223L324.718 25.7463L316.53 16.9737L310.77 22.3497L318.958 31.1223ZM325.325 17.6316C323.342 15.1316 319.745 12.1268 317.249 10.3053L310.175 19.9988C312.415 21.6332 314.962 23.8764 315.923 25.0884L325.325 17.6316ZM309.713 10.6792L304.273 15.5432L312.271 24.4888L317.711 19.6248L309.713 10.6792ZM332.536 24.8497C334.885 26.6426 337.516 29.0187 338.434 30.1869L347.87 22.7731C345.972 20.3573 342.331 17.2295 339.816 15.3103L332.536 24.8497ZM347.106 30.9926L353.314 25.5526L345.406 16.5274L339.198 21.9674L347.106 30.9926ZM353.836 17.0439C351.689 14.6393 347.848 11.8395 345.452 10.2002L338.676 20.1039C341.144 21.7925 343.831 23.8568 344.884 25.0361L353.836 17.0439ZM338.213 10.5509L332.325 15.4789L340.027 24.6811L345.915 19.7531L338.213 10.5509ZM391.744 34.288V68.016H403.744V34.288H391.744ZM397.744 74.016H407.664V62.016H397.744V74.016ZM413.664 68.016V34.288H401.664V68.016H413.664ZM407.664 28.288H397.744V40.288H407.664V28.288ZM367.552 34.416V40.944H379.552V34.416H367.552ZM367.552 40.944C367.552 43.763 367.268 46.3107 366.157 48.6645C365.101 50.9045 363.05 53.4829 358.6 55.8912L364.312 66.4449C370.742 62.9652 374.739 58.5995 377.011 53.7835C379.228 49.0814 379.552 44.461 379.552 40.944H367.552ZM358.311 66.278C360.3 67.5018 363.485 70.2973 364.626 71.7887L374.158 64.4993C371.971 61.6387 367.604 57.9063 364.601 56.0581L358.311 66.278ZM372.397 73.3372C379.875 69.0099 384.268 63.3578 386.689 57.3805C389.048 51.5558 389.408 45.7312 389.408 41.2H377.408C377.408 45.1809 377.064 49.1803 375.567 52.8755C374.132 56.4183 371.517 59.9822 366.387 62.9509L372.397 73.3372ZM389.408 41.2V34.416H377.408V41.2H389.408ZM383.408 28.416H373.552V40.416H383.408V28.416ZM384.496 2.86382C379.433 10.4581 368.291 18.1278 356.883 21.3453L360.141 32.8947C373.693 29.0723 387.511 19.974 394.48 9.52022L384.496 2.86382ZM353.982 31.0541C355.65 32.9754 357.722 36.3648 358.741 38.617L369.675 33.671C368.261 30.5472 365.598 26.1286 363.042 23.1859L353.982 31.0541ZM366.383 41.736C379.921 36.471 394.114 26.3428 401.974 14.9817L392.106 8.15437C385.886 17.1453 373.839 25.961 362.033 30.552L366.383 41.736ZM400.52 6.68002L392.968 1.30402L386.008 11.08L393.56 16.456L400.52 6.68002ZM392.217 6.11357L383.769 9.44157L388.167 20.6065L396.615 17.2785L392.217 6.11357ZM381.037 18.4427C388.552 29.2818 399.751 37.0266 413.387 40.8925L416.661 29.3475C405.465 26.1734 396.696 19.9662 390.899 11.6053L381.037 18.4427ZM420.339 37.9041C421.473 35.7389 424.093 32.1953 425.796 30.5896L417.564 21.8585C414.787 24.4768 411.391 29.1252 409.709 32.336L420.339 37.9041ZM422.887 20.3467C411.786 18.0665 403.144 13.236 399.183 8.05299L389.649 15.339C396.056 23.724 407.894 29.5175 420.473 32.1013L422.887 20.3467Z" fill="#005493" mask="url(#path-2-outside-1_13_4)"/>
<defs>
<linearGradient id="paint0_linear_13_4" x1="0" y1="61" x2="588" y2="61" gradientUnits="userSpaceOnUse">
<stop stop-color="#FFE419" stop-opacity="0"/>
<stop offset="0.5" stop-color="#FFE419"/>
<stop offset="1" stop-color="#FFE419" stop-opacity="0"/>
</linearGradient>
</defs>
</svg>
