<svg width="588" height="81" viewBox="0 0 588 81" fill="none" xmlns="http://www.w3.org/2000/svg">
<rect y="41" width="588" height="40" fill="url(#paint0_linear_15_9)"/>
<mask id="path-2-outside-1_15_9" maskUnits="userSpaceOnUse" x="140.184" y="0.128052" width="310" height="75" fill="black">
<rect fill="white" x="140.184" y="0.128052" width="310" height="75"/>
<path d="M174.216 53.1681V58.7361H195.592V53.1681H174.216ZM174.216 60.4001V66.4801H195.592V60.4001H174.216ZM169.928 45.4241V68.1441H178.376V51.5041H191.752V68.1441H200.648V45.4241H169.928ZM176.584 31.1521H193.928V32.9441H176.584V31.1521ZM176.584 24.3681H193.928V26.1601H176.584V24.3681ZM168.584 18.9921V38.3201H202.312V18.9921H168.584ZM181 21.2961V36.2721H188.552V21.2961H181ZM178.056 11.2481L173.704 17.3281H189.064V11.2481H178.056ZM175.496 7.28005C173.384 11.7601 169.48 16.6881 163.72 20.4641C165.576 21.5521 168.328 24.048 169.608 25.8401C176.136 20.9121 180.424 15.1521 183.752 8.75205L175.496 7.28005ZM170.312 36.7201C168.648 39.6641 165.896 42.8001 162.76 44.5921L168.456 49.7121C172.04 47.1521 174.728 43.3761 176.648 39.7921L170.312 36.7201ZM176.968 39.6001C177.8 41.6481 178.632 44.3361 178.888 46.0641L185.096 43.8881C184.776 42.2241 183.816 39.6001 182.856 37.6801L176.968 39.6001ZM184.904 39.9201C185.928 41.7761 187.016 44.3361 187.4 45.9361L193.288 43.1201C192.776 41.5841 191.56 39.2161 190.472 37.4881L184.904 39.9201ZM192.712 39.6641C195.016 42.4801 197.96 46.4481 199.24 48.8801L205.512 44.9121C204.104 42.4801 201.032 38.7681 198.664 36.1441L192.712 39.6641ZM186.248 11.2481V12.5921C185.416 14.5121 183.432 17.6481 181.768 19.5041C183.048 20.5921 185.224 22.9601 186.248 24.4961C189.192 21.9361 192.392 18.0321 194.76 14.6401L189.768 10.8001L188.168 11.2481H186.248ZM151.432 13.5521V21.8081H156.296V42.7361H151.432V50.9281H164.104V13.5521H151.432ZM146.184 13.5521V56.4961H153.736V13.5521H146.184Z"/>
<path d="M213.96 12.528V21.0401H219.208V42.9281H213.96V51.4401H226.248V12.528H213.96ZM209.736 12.528V56.8801H216.712V12.528H209.736ZM250.44 8.11205C251.528 11.2481 252.552 15.5361 252.808 18.2241L261 15.9201C260.552 13.2321 259.464 9.20005 258.184 6.12805L250.44 8.11205ZM243.976 17.5201V25.5201H267.912V17.5201H243.976ZM244.68 28.4641C246.024 37.6801 246.728 49.5201 246.536 56.5601L254.344 54.8321C254.408 47.8561 253.384 36.2721 251.848 27.1841L244.68 28.4641ZM258.888 26.6081C258.312 37.2961 256.52 51.3761 254.6 60.2721L261.64 61.7441C263.752 53.1681 266.056 39.6001 267.464 28.0161L258.888 26.6081ZM241.928 57.9041V65.9681H268.744V57.9041H241.928ZM227.72 19.632V27.6961H243.016V19.632H227.72ZM226.44 39.0241L228.808 47.6001C233.544 45.8081 239.048 43.6961 244.168 41.5841L242.76 34.0961C236.744 36.0161 230.6 37.9361 226.44 39.0241ZM231.496 7.47205V58.9921C231.496 59.7601 231.24 60.0161 230.536 60.0161C229.832 60.0161 227.912 60.0161 225.992 59.9521C227.08 62.1921 228.168 65.8401 228.36 68.0161C232.136 68.0801 234.824 67.6961 236.808 66.2881C238.856 64.9441 239.432 62.7041 239.432 58.9921V7.47205H231.496Z"/>
<path d="M290.473 62.0001H308.457C318.825 62.0001 327.081 57.6481 327.081 47.9201C327.081 41.5841 323.433 38.0001 318.633 36.7201V36.4641C322.473 34.9921 324.841 30.3841 324.841 26.1601C324.841 17.0081 316.969 14.32 307.113 14.32H290.473V62.0001ZM301.929 33.2641V23.0881H306.665C311.465 23.0881 313.705 24.4961 313.705 27.8881C313.705 31.1521 311.529 33.2641 306.665 33.2641H301.929ZM301.929 53.2321V41.6481H307.625C313.193 41.6481 315.945 43.2481 315.945 47.1521C315.945 51.2481 313.129 53.2321 307.625 53.2321H301.929Z"/>
<path d="M334.973 62.0001H346.429V14.32H334.973V62.0001Z"/>
<path d="M357.348 62.0001H375.332C385.7 62.0001 393.956 57.6481 393.956 47.9201C393.956 41.5841 390.308 38.0001 385.508 36.7201V36.4641C389.348 34.9921 391.716 30.3841 391.716 26.1601C391.716 17.0081 383.844 14.32 373.988 14.32H357.348V62.0001ZM368.804 33.2641V23.0881H373.54C378.34 23.0881 380.58 24.4961 380.58 27.8881C380.58 31.1521 378.404 33.2641 373.54 33.2641H368.804ZM368.804 53.2321V41.6481H374.5C380.068 41.6481 382.82 43.2481 382.82 47.1521C382.82 51.2481 380.004 53.2321 374.5 53.2321H368.804Z"/>
<path d="M421.496 62.8961C434.488 62.8961 443.32 53.5521 443.32 37.9361C443.32 22.3841 434.488 13.4881 421.496 13.4881C408.504 13.4881 399.672 22.3201 399.672 37.9361C399.672 53.5521 408.504 62.8961 421.496 62.8961ZM421.496 53.0401C415.224 53.0401 411.384 47.1521 411.384 37.9361C411.384 28.7201 415.224 23.2801 421.496 23.2801C427.768 23.2801 431.672 28.7201 431.672 37.9361C431.672 47.1521 427.768 53.0401 421.496 53.0401Z"/>
</mask>
<path d="M174.216 53.1681V58.7361H195.592V53.1681H174.216ZM174.216 60.4001V66.4801H195.592V60.4001H174.216ZM169.928 45.4241V68.1441H178.376V51.5041H191.752V68.1441H200.648V45.4241H169.928ZM176.584 31.1521H193.928V32.9441H176.584V31.1521ZM176.584 24.3681H193.928V26.1601H176.584V24.3681ZM168.584 18.9921V38.3201H202.312V18.9921H168.584ZM181 21.2961V36.2721H188.552V21.2961H181ZM178.056 11.2481L173.704 17.3281H189.064V11.2481H178.056ZM175.496 7.28005C173.384 11.7601 169.48 16.6881 163.72 20.4641C165.576 21.5521 168.328 24.048 169.608 25.8401C176.136 20.9121 180.424 15.1521 183.752 8.75205L175.496 7.28005ZM170.312 36.7201C168.648 39.6641 165.896 42.8001 162.76 44.5921L168.456 49.7121C172.04 47.1521 174.728 43.3761 176.648 39.7921L170.312 36.7201ZM176.968 39.6001C177.8 41.6481 178.632 44.3361 178.888 46.0641L185.096 43.8881C184.776 42.2241 183.816 39.6001 182.856 37.6801L176.968 39.6001ZM184.904 39.9201C185.928 41.7761 187.016 44.3361 187.4 45.9361L193.288 43.1201C192.776 41.5841 191.56 39.2161 190.472 37.4881L184.904 39.9201ZM192.712 39.6641C195.016 42.4801 197.96 46.4481 199.24 48.8801L205.512 44.9121C204.104 42.4801 201.032 38.7681 198.664 36.1441L192.712 39.6641ZM186.248 11.2481V12.5921C185.416 14.5121 183.432 17.6481 181.768 19.5041C183.048 20.5921 185.224 22.9601 186.248 24.4961C189.192 21.9361 192.392 18.0321 194.76 14.6401L189.768 10.8001L188.168 11.2481H186.248ZM151.432 13.5521V21.8081H156.296V42.7361H151.432V50.9281H164.104V13.5521H151.432ZM146.184 13.5521V56.4961H153.736V13.5521H146.184Z" fill="white"/>
<path d="M213.96 12.528V21.0401H219.208V42.9281H213.96V51.4401H226.248V12.528H213.96ZM209.736 12.528V56.8801H216.712V12.528H209.736ZM250.44 8.11205C251.528 11.2481 252.552 15.5361 252.808 18.2241L261 15.9201C260.552 13.2321 259.464 9.20005 258.184 6.12805L250.44 8.11205ZM243.976 17.5201V25.5201H267.912V17.5201H243.976ZM244.68 28.4641C246.024 37.6801 246.728 49.5201 246.536 56.5601L254.344 54.8321C254.408 47.8561 253.384 36.2721 251.848 27.1841L244.68 28.4641ZM258.888 26.6081C258.312 37.2961 256.52 51.3761 254.6 60.2721L261.64 61.7441C263.752 53.1681 266.056 39.6001 267.464 28.0161L258.888 26.6081ZM241.928 57.9041V65.9681H268.744V57.9041H241.928ZM227.72 19.632V27.6961H243.016V19.632H227.72ZM226.44 39.0241L228.808 47.6001C233.544 45.8081 239.048 43.6961 244.168 41.5841L242.76 34.0961C236.744 36.0161 230.6 37.9361 226.44 39.0241ZM231.496 7.47205V58.9921C231.496 59.7601 231.24 60.0161 230.536 60.0161C229.832 60.0161 227.912 60.0161 225.992 59.9521C227.08 62.1921 228.168 65.8401 228.36 68.0161C232.136 68.0801 234.824 67.6961 236.808 66.2881C238.856 64.9441 239.432 62.7041 239.432 58.9921V7.47205H231.496Z" fill="white"/>
<path d="M290.473 62.0001H308.457C318.825 62.0001 327.081 57.6481 327.081 47.9201C327.081 41.5841 323.433 38.0001 318.633 36.7201V36.4641C322.473 34.9921 324.841 30.3841 324.841 26.1601C324.841 17.0081 316.969 14.32 307.113 14.32H290.473V62.0001ZM301.929 33.2641V23.0881H306.665C311.465 23.0881 313.705 24.4961 313.705 27.8881C313.705 31.1521 311.529 33.2641 306.665 33.2641H301.929ZM301.929 53.2321V41.6481H307.625C313.193 41.6481 315.945 43.2481 315.945 47.1521C315.945 51.2481 313.129 53.2321 307.625 53.2321H301.929Z" fill="white"/>
<path d="M334.973 62.0001H346.429V14.32H334.973V62.0001Z" fill="white"/>
<path d="M357.348 62.0001H375.332C385.7 62.0001 393.956 57.6481 393.956 47.9201C393.956 41.5841 390.308 38.0001 385.508 36.7201V36.4641C389.348 34.9921 391.716 30.3841 391.716 26.1601C391.716 17.0081 383.844 14.32 373.988 14.32H357.348V62.0001ZM368.804 33.2641V23.0881H373.54C378.34 23.0881 380.58 24.4961 380.58 27.8881C380.58 31.1521 378.404 33.2641 373.54 33.2641H368.804ZM368.804 53.2321V41.6481H374.5C380.068 41.6481 382.82 43.2481 382.82 47.1521C382.82 51.2481 380.004 53.2321 374.5 53.2321H368.804Z" fill="white"/>
<path d="M421.496 62.8961C434.488 62.8961 443.32 53.5521 443.32 37.9361C443.32 22.3841 434.488 13.4881 421.496 13.4881C408.504 13.4881 399.672 22.3201 399.672 37.9361C399.672 53.5521 408.504 62.8961 421.496 62.8961ZM421.496 53.0401C415.224 53.0401 411.384 47.1521 411.384 37.9361C411.384 28.7201 415.224 23.2801 421.496 23.2801C427.768 23.2801 431.672 28.7201 431.672 37.9361C431.672 47.1521 427.768 53.0401 421.496 53.0401Z" fill="white"/>
<path d="M174.216 53.1681V58.7361H195.592V53.1681H174.216ZM174.216 60.4001V66.4801H195.592V60.4001H174.216ZM169.928 45.4241V68.1441H178.376V51.5041H191.752V68.1441H200.648V45.4241H169.928ZM176.584 31.1521H193.928V32.9441H176.584V31.1521ZM176.584 24.3681H193.928V26.1601H176.584V24.3681ZM168.584 18.9921V38.3201H202.312V18.9921H168.584ZM181 21.2961V36.2721H188.552V21.2961H181ZM178.056 11.2481L173.704 17.3281H189.064V11.2481H178.056ZM175.496 7.28005C173.384 11.7601 169.48 16.6881 163.72 20.4641C165.576 21.5521 168.328 24.048 169.608 25.8401C176.136 20.9121 180.424 15.1521 183.752 8.75205L175.496 7.28005ZM170.312 36.7201C168.648 39.6641 165.896 42.8001 162.76 44.5921L168.456 49.7121C172.04 47.1521 174.728 43.3761 176.648 39.7921L170.312 36.7201ZM176.968 39.6001C177.8 41.6481 178.632 44.3361 178.888 46.0641L185.096 43.8881C184.776 42.2241 183.816 39.6001 182.856 37.6801L176.968 39.6001ZM184.904 39.9201C185.928 41.7761 187.016 44.3361 187.4 45.9361L193.288 43.1201C192.776 41.5841 191.56 39.2161 190.472 37.4881L184.904 39.9201ZM192.712 39.6641C195.016 42.4801 197.96 46.4481 199.24 48.8801L205.512 44.9121C204.104 42.4801 201.032 38.7681 198.664 36.1441L192.712 39.6641ZM186.248 11.2481V12.5921C185.416 14.5121 183.432 17.6481 181.768 19.5041C183.048 20.5921 185.224 22.9601 186.248 24.4961C189.192 21.9361 192.392 18.0321 194.76 14.6401L189.768 10.8001L188.168 11.2481H186.248ZM151.432 13.5521V21.8081H156.296V42.7361H151.432V50.9281H164.104V13.5521H151.432ZM146.184 13.5521V56.4961H153.736V13.5521H146.184Z" stroke="#005493" stroke-width="12" stroke-linejoin="bevel" mask="url(#path-2-outside-1_15_9)"/>
<path d="M213.96 12.528V21.0401H219.208V42.9281H213.96V51.4401H226.248V12.528H213.96ZM209.736 12.528V56.8801H216.712V12.528H209.736ZM250.44 8.11205C251.528 11.2481 252.552 15.5361 252.808 18.2241L261 15.9201C260.552 13.2321 259.464 9.20005 258.184 6.12805L250.44 8.11205ZM243.976 17.5201V25.5201H267.912V17.5201H243.976ZM244.68 28.4641C246.024 37.6801 246.728 49.5201 246.536 56.5601L254.344 54.8321C254.408 47.8561 253.384 36.2721 251.848 27.1841L244.68 28.4641ZM258.888 26.6081C258.312 37.2961 256.52 51.3761 254.6 60.2721L261.64 61.7441C263.752 53.1681 266.056 39.6001 267.464 28.0161L258.888 26.6081ZM241.928 57.9041V65.9681H268.744V57.9041H241.928ZM227.72 19.632V27.6961H243.016V19.632H227.72ZM226.44 39.0241L228.808 47.6001C233.544 45.8081 239.048 43.6961 244.168 41.5841L242.76 34.0961C236.744 36.0161 230.6 37.9361 226.44 39.0241ZM231.496 7.47205V58.9921C231.496 59.7601 231.24 60.0161 230.536 60.0161C229.832 60.0161 227.912 60.0161 225.992 59.9521C227.08 62.1921 228.168 65.8401 228.36 68.0161C232.136 68.0801 234.824 67.6961 236.808 66.2881C238.856 64.9441 239.432 62.7041 239.432 58.9921V7.47205H231.496Z" stroke="#005493" stroke-width="12" stroke-linejoin="bevel" mask="url(#path-2-outside-1_15_9)"/>
<path d="M290.473 62.0001H308.457C318.825 62.0001 327.081 57.6481 327.081 47.9201C327.081 41.5841 323.433 38.0001 318.633 36.7201V36.4641C322.473 34.9921 324.841 30.3841 324.841 26.1601C324.841 17.0081 316.969 14.32 307.113 14.32H290.473V62.0001ZM301.929 33.2641V23.0881H306.665C311.465 23.0881 313.705 24.4961 313.705 27.8881C313.705 31.1521 311.529 33.2641 306.665 33.2641H301.929ZM301.929 53.2321V41.6481H307.625C313.193 41.6481 315.945 43.2481 315.945 47.1521C315.945 51.2481 313.129 53.2321 307.625 53.2321H301.929Z" stroke="#005493" stroke-width="12" stroke-linejoin="bevel" mask="url(#path-2-outside-1_15_9)"/>
<path d="M334.973 62.0001H346.429V14.32H334.973V62.0001Z" stroke="#005493" stroke-width="12" stroke-linejoin="bevel" mask="url(#path-2-outside-1_15_9)"/>
<path d="M357.348 62.0001H375.332C385.7 62.0001 393.956 57.6481 393.956 47.9201C393.956 41.5841 390.308 38.0001 385.508 36.7201V36.4641C389.348 34.9921 391.716 30.3841 391.716 26.1601C391.716 17.0081 383.844 14.32 373.988 14.32H357.348V62.0001ZM368.804 33.2641V23.0881H373.54C378.34 23.0881 380.58 24.4961 380.58 27.8881C380.58 31.1521 378.404 33.2641 373.54 33.2641H368.804ZM368.804 53.2321V41.6481H374.5C380.068 41.6481 382.82 43.2481 382.82 47.1521C382.82 51.2481 380.004 53.2321 374.5 53.2321H368.804Z" stroke="#005493" stroke-width="12" stroke-linejoin="bevel" mask="url(#path-2-outside-1_15_9)"/>
<path d="M421.496 62.8961C434.488 62.8961 443.32 53.5521 443.32 37.9361C443.32 22.3841 434.488 13.4881 421.496 13.4881C408.504 13.4881 399.672 22.3201 399.672 37.9361C399.672 53.5521 408.504 62.8961 421.496 62.8961ZM421.496 53.0401C415.224 53.0401 411.384 47.1521 411.384 37.9361C411.384 28.7201 415.224 23.2801 421.496 23.2801C427.768 23.2801 431.672 28.7201 431.672 37.9361C431.672 47.1521 427.768 53.0401 421.496 53.0401Z" stroke="#005493" stroke-width="12" stroke-linejoin="bevel" mask="url(#path-2-outside-1_15_9)"/>
<defs>
<linearGradient id="paint0_linear_15_9" x1="0" y1="61" x2="588" y2="61" gradientUnits="userSpaceOnUse">
<stop stop-color="#FFE419" stop-opacity="0"/>
<stop offset="0.5" stop-color="#FFE419"/>
<stop offset="1" stop-color="#FFE419" stop-opacity="0"/>
</linearGradient>
</defs>
</svg>
