<svg width="588" height="73" viewBox="0 0 588 73" fill="none" xmlns="http://www.w3.org/2000/svg">
<rect y="32.68" width="588" height="40" fill="url(#paint0_linear_12_5312)"/>
<path d="M218.817 53.68H229.057V37.36C229.057 32.624 228.161 25.52 227.585 20.848H227.841L231.681 32.24L238.145 49.648H244.417L250.817 32.24L254.785 20.848H255.105C254.465 25.52 253.569 32.624 253.569 37.36V53.68H264.001V6H251.585L244.289 26.608C243.393 29.36 242.625 32.368 241.665 35.248H241.345C240.449 32.368 239.681 29.36 238.721 26.608L231.169 6H218.817V53.68Z" fill="white"/>
<path d="M274.942 53.68H292.926C303.294 53.68 311.55 49.328 311.55 39.6C311.55 33.264 307.902 29.68 303.102 28.4V28.144C306.942 26.672 309.31 22.064 309.31 17.84C309.31 8.688 301.438 6 291.582 6H274.942V53.68ZM286.398 24.944V14.768H291.134C295.934 14.768 298.174 16.176 298.174 19.568C298.174 22.832 295.998 24.944 291.134 24.944H286.398ZM286.398 44.912V33.328H292.094C297.662 33.328 300.414 34.928 300.414 38.832C300.414 42.928 297.598 44.912 292.094 44.912H286.398Z" fill="white"/>
<path d="M326.095 53.68H337.551V15.536H350.479V6H313.231V15.536H326.095V53.68Z" fill="white"/>
<path d="M357.817 53.68H369.273V6H357.817V53.68Z" fill="white"/>
<path fill-rule="evenodd" clip-rule="evenodd" d="M218.817 59.68L212.817 53.68V6L218.817 0H231.169L236.802 3.9355L241.455 16.6328L245.929 3.99757L251.585 0H264.001L269.471 5.4705L274.942 0H291.582C296.848 0 302.541 0.681126 307.103 3.26974C307.699 3.60818 308.28 3.98146 308.839 4.39177L313.231 0H350.479L354.148 3.66875L357.817 0H369.273L375.273 6V53.68L369.273 59.68H357.817L351.817 53.68V20.1985L350.479 21.536H343.551V53.68L337.551 59.68H326.095L320.095 53.68V21.536H314.913C314.509 23.4539 313.793 25.3951 312.754 27.1768C313.106 27.5322 313.445 27.9079 313.769 28.3046C316.264 31.3533 317.55 35.2229 317.55 39.6C317.55 46.4439 314.509 51.8144 309.519 55.2364C304.815 58.4615 298.822 59.68 292.926 59.68H274.942L269.471 54.2095L264.001 59.68H253.569L247.569 53.68V53.4486L244.417 55.648H238.145L235.057 53.5006V53.68L229.057 59.68H218.817ZM229.057 37.36C229.057 36.1297 228.996 34.7396 228.896 33.2738C228.894 33.2428 228.892 33.2117 228.89 33.1806C228.658 29.8136 228.223 26.0585 227.841 22.9286C227.772 22.3637 227.704 21.8192 227.64 21.3011L227.585 20.848H227.841L231.681 32.24L238.145 49.648H244.417L250.817 32.24L254.785 20.848H255.105C255.1 20.8833 255.095 20.9188 255.09 20.9544C254.992 21.6673 254.889 22.4351 254.785 23.2412C254.383 26.3299 253.957 29.9803 253.731 33.2552C253.73 33.2735 253.728 33.2918 253.727 33.3101C253.628 34.7625 253.569 36.1399 253.569 37.36V53.68H264.001V6H251.585L244.289 26.608C243.868 27.8988 243.476 29.2458 243.079 30.6096C242.641 32.1161 242.196 33.6431 241.701 35.137C241.689 35.174 241.677 35.211 241.665 35.248H241.345C241.332 35.2084 241.32 35.1687 241.308 35.129C240.978 34.0649 240.666 32.984 240.354 31.9057C239.832 30.1024 239.313 28.3065 238.721 26.608L231.169 6H218.817V53.68H229.057V37.36ZM308.811 31.7381C307.351 30.1212 305.404 29.0328 303.211 28.4297C303.175 28.4196 303.138 28.4098 303.102 28.4V28.144C303.127 28.1342 303.152 28.1243 303.178 28.1143C305.159 27.3293 306.743 25.7069 307.805 23.7383C308.776 21.9367 309.31 19.8451 309.31 17.84C309.31 17.7638 309.309 17.6881 309.308 17.6129C309.297 16.8789 309.235 16.1873 309.125 15.536C308.826 13.7758 308.174 12.3103 307.231 11.0997C304.259 7.28424 298.394 6 291.582 6H274.942V53.68H292.926C303.294 53.68 311.55 49.328 311.55 39.6C311.55 36.218 310.51 33.6201 308.811 31.7381ZM326.095 15.536V53.68H337.551V15.536H350.479V6H313.231V15.536H326.095ZM292.398 24.892C291.998 24.9264 291.577 24.944 291.134 24.944H286.398V14.768H291.134C291.577 14.768 291.998 14.78 292.398 14.8044C296.328 15.0448 298.174 16.4891 298.174 19.568C298.174 22.5344 296.376 24.5492 292.398 24.892ZM292.398 44.9099C292.297 44.9113 292.196 44.912 292.094 44.912H286.398V33.328H292.094C292.196 33.328 292.297 33.3285 292.398 33.3296C297.762 33.3876 300.414 34.9997 300.414 38.832C300.414 42.8519 297.701 44.8376 292.398 44.9099ZM369.273 53.68H357.817V6H369.273V53.68Z" fill="#005493"/>
<defs>
<linearGradient id="paint0_linear_12_5312" x1="0" y1="52.68" x2="588" y2="52.68" gradientUnits="userSpaceOnUse">
<stop stop-color="#00E1FF" stop-opacity="0"/>
<stop offset="0.5" stop-color="#00E1FF"/>
<stop offset="1" stop-color="#00E1FF" stop-opacity="0"/>
</linearGradient>
</defs>
</svg>
