<svg width="588" height="81" viewBox="0 0 588 81" fill="none" xmlns="http://www.w3.org/2000/svg">
<rect y="41" width="588" height="40" fill="url(#paint0_linear_13_2)"/>
<mask id="path-2-outside-1_13_2" maskUnits="userSpaceOnUse" x="163.392" y="0.704102" width="253" height="74" fill="black">
<rect fill="white" x="163.392" y="0.704102" width="253" height="74"/>
<path d="M181.296 22.4481V29.6801H214.448V22.4481H181.296ZM169.392 57.9681V66.2881H226.48V57.9681H169.392ZM188.144 47.1521H207.088V49.2001H188.144V47.1521ZM188.144 38.8321H207.088V40.8161H188.144V38.8321ZM179.184 31.9841V56.0481H216.496V31.9841H179.184ZM170.288 12.0801V27.4401H179.376V20.2081H216.24V27.4401H225.776V12.0801H170.288ZM191.6 9.2641C192.752 11.7601 193.904 15.1521 194.16 17.2001L203.824 14.3841C203.376 12.2081 202.032 9.0721 200.688 6.7041L191.6 9.2641Z"/>
<path d="M261.936 30.9601H281.392V32.8161H261.936V30.9601ZM261.936 24.4961H281.392V26.3521H261.936V24.4961ZM253.488 19.6321V37.6801H290.288V19.6321H253.488ZM251.12 39.6641L251.824 46.4481C261.36 46.2561 274.992 45.9361 287.856 45.4881L288.112 39.2801C274.736 39.4721 260.4 39.6641 251.12 39.6641ZM279.088 37.8081C281.968 40.6881 285.36 44.7841 286.768 47.4081L293.36 43.8241C291.696 41.1361 288.112 37.2961 285.232 34.6081L279.088 37.8081ZM267.12 7.7921V43.5041L276.144 42.5441V7.7921H267.12ZM249.712 47.8561V54.8321H292.4V47.8561H249.712ZM275.76 43.5681V59.6961C275.76 60.4001 275.44 60.6561 274.544 60.6561C273.712 60.6561 270.384 60.6561 268.016 60.5281C269.04 62.7041 270.128 65.9041 270.512 68.2081C274.992 68.2081 278.512 68.2081 281.2 67.0561C284.016 65.9041 284.72 63.8561 284.72 59.9521V43.5681H275.76ZM254.704 56.6881C257.392 59.3761 260.592 63.1521 261.936 65.5841L269.296 60.9761C267.696 58.4801 264.24 54.9601 261.552 52.5281L254.704 56.6881ZM250.864 11.3121V17.9041H291.824V11.3121H250.864ZM244.208 7.5361C241.136 16.3681 235.824 25.2001 230.32 30.7681C231.856 33.0721 234.352 38.2561 235.184 40.5601C242.16 33.1361 248.88 21.2321 252.976 10.2881L244.208 7.5361ZM238.32 25.9041V68.0161H247.152V17.0721L238.32 25.9041Z"/>
<path d="M345.2 8.3041C342.064 13.3601 335.856 18.3521 330.544 21.2321C332.848 22.9601 335.6 25.7121 337.072 27.6961C343.28 23.7921 349.552 18.2241 354.032 11.8241L345.2 8.3041ZM346.544 25.7761C343.152 31.0881 336.368 36.4001 330.8 39.4721C333.104 41.2001 335.792 43.9521 337.2 46.0001C343.6 41.8401 350.32 35.9521 355.056 29.2961L346.544 25.7761ZM347.504 43.3761C343.856 50.6081 336.816 56.6881 329.712 60.2081C332.016 62.1281 334.704 65.2001 336.112 67.5041C344.24 62.5761 351.408 55.5361 356.144 46.5121L347.504 43.3761ZM296.432 30.8321V37.8081H333.36V30.8321H296.432ZM308.976 45.1681H321.072V47.3441H308.976V45.1681ZM300.4 39.2801V53.1681H330.096V39.2801H300.4ZM319.152 55.4081C321.008 58.8641 323.12 63.5361 323.952 66.4161L330.864 63.2161C329.904 60.4001 327.536 55.9841 325.616 52.6561L319.152 55.4081ZM307.888 21.6161H321.968V23.1521H307.888V21.6161ZM307.888 14.9601H321.968V16.4961H307.888V14.9601ZM299.12 9.5201V28.5921H331.184V9.5201H299.12ZM310.256 49.8401V60.0801C310.256 60.6561 310.064 60.8481 309.424 60.8481C308.848 60.8481 306.864 60.8481 305.392 60.7841C306.416 62.8321 307.504 65.8401 307.888 68.1441C311.28 68.1441 314.096 68.0801 316.4 66.9921C318.832 65.8401 319.344 63.9841 319.344 60.3361V49.8401H310.256ZM301.936 52.7201C300.656 55.7921 298.544 59.2481 296.432 61.6161C298.16 62.7681 301.232 65.1361 302.64 66.4801C305.008 63.6641 307.824 58.9921 309.552 55.0241L301.936 52.7201ZM310 29.5521C310.768 31.1521 311.536 33.3921 311.728 34.8001L321.072 32.9441C320.816 31.4081 319.856 29.3601 318.896 27.8241L310 29.5521Z"/>
<path d="M372.528 21.1041V30.4481H407.408V21.1041H372.528ZM397.744 7.2801V26.6081H407.408V7.2801H397.744ZM369.328 8.4961V30.2561C369.328 40.6881 368.432 52.4641 360.624 60.8481C362.736 62.4481 366.128 66.0321 367.664 68.2721C377.648 57.9041 378.736 43.3761 378.736 30.2561V8.4961H369.328ZM372.336 37.7441V47.0881H399.6V68.0161H409.456V37.7441H372.336Z"/>
</mask>
<path d="M181.296 22.4481V29.6801H214.448V22.4481H181.296ZM169.392 57.9681V66.2881H226.48V57.9681H169.392ZM188.144 47.1521H207.088V49.2001H188.144V47.1521ZM188.144 38.8321H207.088V40.8161H188.144V38.8321ZM179.184 31.9841V56.0481H216.496V31.9841H179.184ZM170.288 12.0801V27.4401H179.376V20.2081H216.24V27.4401H225.776V12.0801H170.288ZM191.6 9.2641C192.752 11.7601 193.904 15.1521 194.16 17.2001L203.824 14.3841C203.376 12.2081 202.032 9.0721 200.688 6.7041L191.6 9.2641Z" fill="white"/>
<path d="M261.936 30.9601H281.392V32.8161H261.936V30.9601ZM261.936 24.4961H281.392V26.3521H261.936V24.4961ZM253.488 19.6321V37.6801H290.288V19.6321H253.488ZM251.12 39.6641L251.824 46.4481C261.36 46.2561 274.992 45.9361 287.856 45.4881L288.112 39.2801C274.736 39.4721 260.4 39.6641 251.12 39.6641ZM279.088 37.8081C281.968 40.6881 285.36 44.7841 286.768 47.4081L293.36 43.8241C291.696 41.1361 288.112 37.2961 285.232 34.6081L279.088 37.8081ZM267.12 7.7921V43.5041L276.144 42.5441V7.7921H267.12ZM249.712 47.8561V54.8321H292.4V47.8561H249.712ZM275.76 43.5681V59.6961C275.76 60.4001 275.44 60.6561 274.544 60.6561C273.712 60.6561 270.384 60.6561 268.016 60.5281C269.04 62.7041 270.128 65.9041 270.512 68.2081C274.992 68.2081 278.512 68.2081 281.2 67.0561C284.016 65.9041 284.72 63.8561 284.72 59.9521V43.5681H275.76ZM254.704 56.6881C257.392 59.3761 260.592 63.1521 261.936 65.5841L269.296 60.9761C267.696 58.4801 264.24 54.9601 261.552 52.5281L254.704 56.6881ZM250.864 11.3121V17.9041H291.824V11.3121H250.864ZM244.208 7.5361C241.136 16.3681 235.824 25.2001 230.32 30.7681C231.856 33.0721 234.352 38.2561 235.184 40.5601C242.16 33.1361 248.88 21.2321 252.976 10.2881L244.208 7.5361ZM238.32 25.9041V68.0161H247.152V17.0721L238.32 25.9041Z" fill="white"/>
<path d="M345.2 8.3041C342.064 13.3601 335.856 18.3521 330.544 21.2321C332.848 22.9601 335.6 25.7121 337.072 27.6961C343.28 23.7921 349.552 18.2241 354.032 11.8241L345.2 8.3041ZM346.544 25.7761C343.152 31.0881 336.368 36.4001 330.8 39.4721C333.104 41.2001 335.792 43.9521 337.2 46.0001C343.6 41.8401 350.32 35.9521 355.056 29.2961L346.544 25.7761ZM347.504 43.3761C343.856 50.6081 336.816 56.6881 329.712 60.2081C332.016 62.1281 334.704 65.2001 336.112 67.5041C344.24 62.5761 351.408 55.5361 356.144 46.5121L347.504 43.3761ZM296.432 30.8321V37.8081H333.36V30.8321H296.432ZM308.976 45.1681H321.072V47.3441H308.976V45.1681ZM300.4 39.2801V53.1681H330.096V39.2801H300.4ZM319.152 55.4081C321.008 58.8641 323.12 63.5361 323.952 66.4161L330.864 63.2161C329.904 60.4001 327.536 55.9841 325.616 52.6561L319.152 55.4081ZM307.888 21.6161H321.968V23.1521H307.888V21.6161ZM307.888 14.9601H321.968V16.4961H307.888V14.9601ZM299.12 9.5201V28.5921H331.184V9.5201H299.12ZM310.256 49.8401V60.0801C310.256 60.6561 310.064 60.8481 309.424 60.8481C308.848 60.8481 306.864 60.8481 305.392 60.7841C306.416 62.8321 307.504 65.8401 307.888 68.1441C311.28 68.1441 314.096 68.0801 316.4 66.9921C318.832 65.8401 319.344 63.9841 319.344 60.3361V49.8401H310.256ZM301.936 52.7201C300.656 55.7921 298.544 59.2481 296.432 61.6161C298.16 62.7681 301.232 65.1361 302.64 66.4801C305.008 63.6641 307.824 58.9921 309.552 55.0241L301.936 52.7201ZM310 29.5521C310.768 31.1521 311.536 33.3921 311.728 34.8001L321.072 32.9441C320.816 31.4081 319.856 29.3601 318.896 27.8241L310 29.5521Z" fill="white"/>
<path d="M372.528 21.1041V30.4481H407.408V21.1041H372.528ZM397.744 7.2801V26.6081H407.408V7.2801H397.744ZM369.328 8.4961V30.2561C369.328 40.6881 368.432 52.4641 360.624 60.8481C362.736 62.4481 366.128 66.0321 367.664 68.2721C377.648 57.9041 378.736 43.3761 378.736 30.2561V8.4961H369.328ZM372.336 37.7441V47.0881H399.6V68.0161H409.456V37.7441H372.336Z" fill="white"/>
<path d="M181.296 22.4481V29.6801H214.448V22.4481H181.296ZM169.392 57.9681V66.2881H226.48V57.9681H169.392ZM188.144 47.1521H207.088V49.2001H188.144V47.1521ZM188.144 38.8321H207.088V40.8161H188.144V38.8321ZM179.184 31.9841V56.0481H216.496V31.9841H179.184ZM170.288 12.0801V27.4401H179.376V20.2081H216.24V27.4401H225.776V12.0801H170.288ZM191.6 9.2641C192.752 11.7601 193.904 15.1521 194.16 17.2001L203.824 14.3841C203.376 12.2081 202.032 9.0721 200.688 6.7041L191.6 9.2641Z" stroke="#005493" stroke-width="12" stroke-linejoin="bevel" mask="url(#path-2-outside-1_13_2)"/>
<path d="M261.936 30.9601H281.392V32.8161H261.936V30.9601ZM261.936 24.4961H281.392V26.3521H261.936V24.4961ZM253.488 19.6321V37.6801H290.288V19.6321H253.488ZM251.12 39.6641L251.824 46.4481C261.36 46.2561 274.992 45.9361 287.856 45.4881L288.112 39.2801C274.736 39.4721 260.4 39.6641 251.12 39.6641ZM279.088 37.8081C281.968 40.6881 285.36 44.7841 286.768 47.4081L293.36 43.8241C291.696 41.1361 288.112 37.2961 285.232 34.6081L279.088 37.8081ZM267.12 7.7921V43.5041L276.144 42.5441V7.7921H267.12ZM249.712 47.8561V54.8321H292.4V47.8561H249.712ZM275.76 43.5681V59.6961C275.76 60.4001 275.44 60.6561 274.544 60.6561C273.712 60.6561 270.384 60.6561 268.016 60.5281C269.04 62.7041 270.128 65.9041 270.512 68.2081C274.992 68.2081 278.512 68.2081 281.2 67.0561C284.016 65.9041 284.72 63.8561 284.72 59.9521V43.5681H275.76ZM254.704 56.6881C257.392 59.3761 260.592 63.1521 261.936 65.5841L269.296 60.9761C267.696 58.4801 264.24 54.9601 261.552 52.5281L254.704 56.6881ZM250.864 11.3121V17.9041H291.824V11.3121H250.864ZM244.208 7.5361C241.136 16.3681 235.824 25.2001 230.32 30.7681C231.856 33.0721 234.352 38.2561 235.184 40.5601C242.16 33.1361 248.88 21.2321 252.976 10.2881L244.208 7.5361ZM238.32 25.9041V68.0161H247.152V17.0721L238.32 25.9041Z" stroke="#005493" stroke-width="12" stroke-linejoin="bevel" mask="url(#path-2-outside-1_13_2)"/>
<path d="M345.2 8.3041C342.064 13.3601 335.856 18.3521 330.544 21.2321C332.848 22.9601 335.6 25.7121 337.072 27.6961C343.28 23.7921 349.552 18.2241 354.032 11.8241L345.2 8.3041ZM346.544 25.7761C343.152 31.0881 336.368 36.4001 330.8 39.4721C333.104 41.2001 335.792 43.9521 337.2 46.0001C343.6 41.8401 350.32 35.9521 355.056 29.2961L346.544 25.7761ZM347.504 43.3761C343.856 50.6081 336.816 56.6881 329.712 60.2081C332.016 62.1281 334.704 65.2001 336.112 67.5041C344.24 62.5761 351.408 55.5361 356.144 46.5121L347.504 43.3761ZM296.432 30.8321V37.8081H333.36V30.8321H296.432ZM308.976 45.1681H321.072V47.3441H308.976V45.1681ZM300.4 39.2801V53.1681H330.096V39.2801H300.4ZM319.152 55.4081C321.008 58.8641 323.12 63.5361 323.952 66.4161L330.864 63.2161C329.904 60.4001 327.536 55.9841 325.616 52.6561L319.152 55.4081ZM307.888 21.6161H321.968V23.1521H307.888V21.6161ZM307.888 14.9601H321.968V16.4961H307.888V14.9601ZM299.12 9.5201V28.5921H331.184V9.5201H299.12ZM310.256 49.8401V60.0801C310.256 60.6561 310.064 60.8481 309.424 60.8481C308.848 60.8481 306.864 60.8481 305.392 60.7841C306.416 62.8321 307.504 65.8401 307.888 68.1441C311.28 68.1441 314.096 68.0801 316.4 66.9921C318.832 65.8401 319.344 63.9841 319.344 60.3361V49.8401H310.256ZM301.936 52.7201C300.656 55.7921 298.544 59.2481 296.432 61.6161C298.16 62.7681 301.232 65.1361 302.64 66.4801C305.008 63.6641 307.824 58.9921 309.552 55.0241L301.936 52.7201ZM310 29.5521C310.768 31.1521 311.536 33.3921 311.728 34.8001L321.072 32.9441C320.816 31.4081 319.856 29.3601 318.896 27.8241L310 29.5521Z" stroke="#005493" stroke-width="12" stroke-linejoin="bevel" mask="url(#path-2-outside-1_13_2)"/>
<path d="M372.528 21.1041V30.4481H407.408V21.1041H372.528ZM397.744 7.2801V26.6081H407.408V7.2801H397.744ZM369.328 8.4961V30.2561C369.328 40.6881 368.432 52.4641 360.624 60.8481C362.736 62.4481 366.128 66.0321 367.664 68.2721C377.648 57.9041 378.736 43.3761 378.736 30.2561V8.4961H369.328ZM372.336 37.7441V47.0881H399.6V68.0161H409.456V37.7441H372.336Z" stroke="#005493" stroke-width="12" stroke-linejoin="bevel" mask="url(#path-2-outside-1_13_2)"/>
<defs>
<linearGradient id="paint0_linear_13_2" x1="0" y1="61" x2="588" y2="61" gradientUnits="userSpaceOnUse">
<stop stop-color="#00E1FF" stop-opacity="0"/>
<stop offset="0.5" stop-color="#00E1FF"/>
<stop offset="1" stop-color="#00E1FF" stop-opacity="0"/>
</linearGradient>
</defs>
</svg>
