<svg width="588" height="75" viewBox="0 0 588 75" fill="none" xmlns="http://www.w3.org/2000/svg">
<rect y="19.9688" width="588" height="39.1717" fill="url(#paint0_linear_15_11)"/>
<mask id="path-2-outside-1_15_11" maskUnits="userSpaceOnUse" x="109.504" y="0.320068" width="373" height="74" fill="black">
<rect fill="white" x="109.504" y="0.320068" width="373" height="74"/>
<path d="M115.504 62.0001H125.744V45.6801C125.744 40.9441 124.848 33.8401 124.272 29.1681H124.528L128.368 40.5601L134.832 57.9681H141.104L147.504 40.5601L151.472 29.1681H151.792C151.152 33.8401 150.256 40.9441 150.256 45.6801V62.0001H160.688V14.3201H148.272L140.976 34.9281C140.08 37.6801 139.312 40.6881 138.352 43.5681H138.032C137.136 40.6881 136.368 37.6801 135.408 34.9281L127.856 14.3201H115.504V62.0001Z"/>
<path d="M171.629 62.0001H189.613C199.981 62.0001 208.237 57.6481 208.237 47.9201C208.237 41.5841 204.589 38.0001 199.789 36.7201V36.4641C203.629 34.9921 205.997 30.3841 205.997 26.1601C205.997 17.0081 198.125 14.3201 188.269 14.3201H171.629V62.0001ZM183.085 33.2641V23.0881H187.821C192.621 23.0881 194.861 24.4961 194.861 27.8881C194.861 31.1521 192.685 33.2641 187.821 33.2641H183.085ZM183.085 53.2321V41.6481H188.781C194.349 41.6481 197.101 43.2481 197.101 47.1521C197.101 51.2481 194.285 53.2321 188.781 53.2321H183.085Z"/>
<path d="M222.783 62.0001H234.238V23.8561H247.167V14.3201H209.918V23.8561H222.783V62.0001Z"/>
<path d="M254.504 62.0001H265.96V14.3201H254.504V62.0001Z"/>
<path d="M313.072 8.17607V56.7521C313.072 58.0321 312.56 58.4801 311.088 58.4801C309.68 58.5441 304.816 58.5441 300.848 58.2881C302.32 60.8481 304.048 65.2641 304.56 67.9521C310.896 68.0161 315.568 67.6961 318.896 66.2241C322.16 64.6881 323.312 62.1921 323.312 56.8161V8.17607H313.072ZM328.432 25.2641C333.296 34.8001 337.968 46.9601 339.184 54.8321L349.424 50.8001C347.824 42.6081 342.64 30.9601 337.584 21.8721L328.432 25.2641ZM296.304 22.6401C295.088 30.8961 291.952 42.2241 287.088 48.6241C289.648 49.6481 293.936 51.8241 296.24 53.4881C301.36 46.3841 304.752 34.2241 306.928 24.4321L296.304 22.6401Z"/>
<path d="M377.2 28.9761H381.232V33.0081H377.2V28.9761ZM377.2 40.3681H381.232V44.4001H377.2V40.3681ZM377.2 17.6481H381.232V21.6161H377.2V17.6481ZM369.456 9.64807V52.4001H389.36V9.64807H369.456ZM380.016 55.7281C382.192 58.9281 384.944 63.2801 386.032 66.0321L393.456 61.6161C392.176 58.9281 389.232 54.7681 386.992 51.8241L380.016 55.7281ZM370.672 52.5921C369.136 56.5601 366.384 60.8481 363.504 63.6001C365.552 64.6881 369.072 66.9281 370.8 68.3361C373.744 65.0721 377.072 59.7601 379.056 54.8961L370.672 52.5921ZM401.904 7.28007V57.9681C401.904 58.9281 401.584 59.2481 400.56 59.2481C399.536 59.2481 396.528 59.2481 393.584 59.1201C394.736 61.6161 395.888 65.5841 396.144 68.0161C401.072 68.0161 404.656 67.6961 407.152 66.2241C409.584 64.8161 410.288 62.4481 410.288 57.9681V7.28007H401.904ZM391.664 13.8081V51.2481H399.6V13.8081H391.664ZM353.712 14.5761C357.168 16.1761 361.648 18.9281 363.632 20.9121L369.136 13.4881C366.896 11.5041 362.352 9.13607 358.896 7.79207L353.712 14.5761ZM351.408 31.6001C354.864 33.1361 359.216 35.7601 361.2 37.6801L366.64 30.1921C364.464 28.2721 359.92 26.0321 356.528 24.7521L351.408 31.6001ZM352.368 62.7681L360.816 67.4401C363.376 60.9761 365.872 53.8081 367.984 46.8321L360.432 42.0321C357.936 49.7121 354.736 57.7121 352.368 62.7681Z"/>
<path d="M422.96 20.2081V26.9281H440.304V20.2081H422.96ZM422.96 29.6801V36.4001H440.56V29.6801H422.96ZM428.528 15.6001V44.4001H435.44V15.6001H428.528ZM430.192 48.8801C430.96 51.5041 431.92 54.8961 432.24 57.1361L435.44 55.9841C435.12 53.8721 434.096 50.5441 433.264 47.9201L430.192 48.8801ZM426.416 49.4561C427.056 52.7841 427.568 57.0721 427.696 59.9521L431.28 59.3121C431.088 56.4961 430.512 52.2081 429.872 48.9441L426.416 49.4561ZM422.512 49.7761C422.768 53.5521 422.768 58.4161 422.64 61.6801L426.416 61.2961C426.48 58.0321 426.352 53.2321 426.032 49.4561L422.512 49.7761ZM417.712 48.3681C417.328 52.6561 416.432 58.4161 415.28 62.0641L420.08 63.7281C421.104 60.1441 421.808 54.1921 422.256 49.9041L417.712 48.3681ZM434.864 39.1521V40.3681C434.608 54.5121 434.352 59.3761 433.648 60.5281C433.2 61.1681 432.752 61.2961 432.048 61.2961C431.344 61.2961 430.192 61.2961 428.784 61.1041C429.744 62.8961 430.448 65.7761 430.576 67.8241C432.688 67.8881 434.672 67.8241 436.016 67.5041C437.552 67.2481 438.704 66.6721 439.792 65.1361C441.2 63.1521 441.584 57.1361 441.904 41.9041C441.968 41.0721 441.968 39.1521 441.968 39.1521H434.864ZM441.2 9.52007H418.48V46.6401H438.384V39.1521H425.584V17.0081H441.2V9.52007ZM448.944 36.2721H451.312V41.1361H448.944V36.2721ZM443.12 30.6401V46.8321H457.52V30.6401H443.12ZM464.88 36.2721H467.632V41.1361H464.88V36.2721ZM458.992 30.6401V46.8321H473.904V30.6401H458.992ZM447.216 47.5361C446.064 53.6801 443.696 59.4401 439.984 63.0881C441.712 64.2401 444.72 66.8001 446 68.1441C450.16 63.6641 453.296 56.5601 454.896 48.9441L447.216 47.5361ZM448.88 21.2961V28.2081H467.632V21.2961H448.88ZM447.344 58.0961C449.84 59.7601 453.104 62.2561 454.576 63.9201L459.12 57.9041C457.52 56.2401 454.192 54.0001 451.696 52.5921L447.344 58.0961ZM462.768 47.4081C461.936 53.5521 460.08 59.5041 456.816 63.2161C458.672 64.3681 462.064 66.8641 463.472 68.2721C467.12 63.6641 469.68 56.4321 470.896 48.8161L462.768 47.4081ZM461.744 60.7201C464.752 62.7681 468.912 65.7761 470.832 67.7601L476.144 61.4241C474.032 59.5681 469.808 56.8161 466.8 55.0241L461.744 60.7201ZM456.24 6.32007C452.784 11.8241 446.384 17.5841 439.536 21.0401C441.2 22.3841 443.888 25.3281 445.104 26.9921C452.656 22.8321 459.952 16.6881 464.496 9.20007L456.24 6.32007ZM460.208 8.49607L454 12.4001C458.864 17.5201 466.544 23.4081 473.648 26.8001C474.16 24.4961 475.632 20.3361 476.848 18.1601C470.768 16.1761 463.92 12.0801 460.208 8.49607Z"/>
</mask>
<path d="M115.504 62.0001H125.744V45.6801C125.744 40.9441 124.848 33.8401 124.272 29.1681H124.528L128.368 40.5601L134.832 57.9681H141.104L147.504 40.5601L151.472 29.1681H151.792C151.152 33.8401 150.256 40.9441 150.256 45.6801V62.0001H160.688V14.3201H148.272L140.976 34.9281C140.08 37.6801 139.312 40.6881 138.352 43.5681H138.032C137.136 40.6881 136.368 37.6801 135.408 34.9281L127.856 14.3201H115.504V62.0001Z" fill="white"/>
<path d="M171.629 62.0001H189.613C199.981 62.0001 208.237 57.6481 208.237 47.9201C208.237 41.5841 204.589 38.0001 199.789 36.7201V36.4641C203.629 34.9921 205.997 30.3841 205.997 26.1601C205.997 17.0081 198.125 14.3201 188.269 14.3201H171.629V62.0001ZM183.085 33.2641V23.0881H187.821C192.621 23.0881 194.861 24.4961 194.861 27.8881C194.861 31.1521 192.685 33.2641 187.821 33.2641H183.085ZM183.085 53.2321V41.6481H188.781C194.349 41.6481 197.101 43.2481 197.101 47.1521C197.101 51.2481 194.285 53.2321 188.781 53.2321H183.085Z" fill="white"/>
<path d="M222.783 62.0001H234.238V23.8561H247.167V14.3201H209.918V23.8561H222.783V62.0001Z" fill="white"/>
<path d="M254.504 62.0001H265.96V14.3201H254.504V62.0001Z" fill="white"/>
<path d="M313.072 8.17607V56.7521C313.072 58.0321 312.56 58.4801 311.088 58.4801C309.68 58.5441 304.816 58.5441 300.848 58.2881C302.32 60.8481 304.048 65.2641 304.56 67.9521C310.896 68.0161 315.568 67.6961 318.896 66.2241C322.16 64.6881 323.312 62.1921 323.312 56.8161V8.17607H313.072ZM328.432 25.2641C333.296 34.8001 337.968 46.9601 339.184 54.8321L349.424 50.8001C347.824 42.6081 342.64 30.9601 337.584 21.8721L328.432 25.2641ZM296.304 22.6401C295.088 30.8961 291.952 42.2241 287.088 48.6241C289.648 49.6481 293.936 51.8241 296.24 53.4881C301.36 46.3841 304.752 34.2241 306.928 24.4321L296.304 22.6401Z" fill="white"/>
<path d="M377.2 28.9761H381.232V33.0081H377.2V28.9761ZM377.2 40.3681H381.232V44.4001H377.2V40.3681ZM377.2 17.6481H381.232V21.6161H377.2V17.6481ZM369.456 9.64807V52.4001H389.36V9.64807H369.456ZM380.016 55.7281C382.192 58.9281 384.944 63.2801 386.032 66.0321L393.456 61.6161C392.176 58.9281 389.232 54.7681 386.992 51.8241L380.016 55.7281ZM370.672 52.5921C369.136 56.5601 366.384 60.8481 363.504 63.6001C365.552 64.6881 369.072 66.9281 370.8 68.3361C373.744 65.0721 377.072 59.7601 379.056 54.8961L370.672 52.5921ZM401.904 7.28007V57.9681C401.904 58.9281 401.584 59.2481 400.56 59.2481C399.536 59.2481 396.528 59.2481 393.584 59.1201C394.736 61.6161 395.888 65.5841 396.144 68.0161C401.072 68.0161 404.656 67.6961 407.152 66.2241C409.584 64.8161 410.288 62.4481 410.288 57.9681V7.28007H401.904ZM391.664 13.8081V51.2481H399.6V13.8081H391.664ZM353.712 14.5761C357.168 16.1761 361.648 18.9281 363.632 20.9121L369.136 13.4881C366.896 11.5041 362.352 9.13607 358.896 7.79207L353.712 14.5761ZM351.408 31.6001C354.864 33.1361 359.216 35.7601 361.2 37.6801L366.64 30.1921C364.464 28.2721 359.92 26.0321 356.528 24.7521L351.408 31.6001ZM352.368 62.7681L360.816 67.4401C363.376 60.9761 365.872 53.8081 367.984 46.8321L360.432 42.0321C357.936 49.7121 354.736 57.7121 352.368 62.7681Z" fill="white"/>
<path d="M422.96 20.2081V26.9281H440.304V20.2081H422.96ZM422.96 29.6801V36.4001H440.56V29.6801H422.96ZM428.528 15.6001V44.4001H435.44V15.6001H428.528ZM430.192 48.8801C430.96 51.5041 431.92 54.8961 432.24 57.1361L435.44 55.9841C435.12 53.8721 434.096 50.5441 433.264 47.9201L430.192 48.8801ZM426.416 49.4561C427.056 52.7841 427.568 57.0721 427.696 59.9521L431.28 59.3121C431.088 56.4961 430.512 52.2081 429.872 48.9441L426.416 49.4561ZM422.512 49.7761C422.768 53.5521 422.768 58.4161 422.64 61.6801L426.416 61.2961C426.48 58.0321 426.352 53.2321 426.032 49.4561L422.512 49.7761ZM417.712 48.3681C417.328 52.6561 416.432 58.4161 415.28 62.0641L420.08 63.7281C421.104 60.1441 421.808 54.1921 422.256 49.9041L417.712 48.3681ZM434.864 39.1521V40.3681C434.608 54.5121 434.352 59.3761 433.648 60.5281C433.2 61.1681 432.752 61.2961 432.048 61.2961C431.344 61.2961 430.192 61.2961 428.784 61.1041C429.744 62.8961 430.448 65.7761 430.576 67.8241C432.688 67.8881 434.672 67.8241 436.016 67.5041C437.552 67.2481 438.704 66.6721 439.792 65.1361C441.2 63.1521 441.584 57.1361 441.904 41.9041C441.968 41.0721 441.968 39.1521 441.968 39.1521H434.864ZM441.2 9.52007H418.48V46.6401H438.384V39.1521H425.584V17.0081H441.2V9.52007ZM448.944 36.2721H451.312V41.1361H448.944V36.2721ZM443.12 30.6401V46.8321H457.52V30.6401H443.12ZM464.88 36.2721H467.632V41.1361H464.88V36.2721ZM458.992 30.6401V46.8321H473.904V30.6401H458.992ZM447.216 47.5361C446.064 53.6801 443.696 59.4401 439.984 63.0881C441.712 64.2401 444.72 66.8001 446 68.1441C450.16 63.6641 453.296 56.5601 454.896 48.9441L447.216 47.5361ZM448.88 21.2961V28.2081H467.632V21.2961H448.88ZM447.344 58.0961C449.84 59.7601 453.104 62.2561 454.576 63.9201L459.12 57.9041C457.52 56.2401 454.192 54.0001 451.696 52.5921L447.344 58.0961ZM462.768 47.4081C461.936 53.5521 460.08 59.5041 456.816 63.2161C458.672 64.3681 462.064 66.8641 463.472 68.2721C467.12 63.6641 469.68 56.4321 470.896 48.8161L462.768 47.4081ZM461.744 60.7201C464.752 62.7681 468.912 65.7761 470.832 67.7601L476.144 61.4241C474.032 59.5681 469.808 56.8161 466.8 55.0241L461.744 60.7201ZM456.24 6.32007C452.784 11.8241 446.384 17.5841 439.536 21.0401C441.2 22.3841 443.888 25.3281 445.104 26.9921C452.656 22.8321 459.952 16.6881 464.496 9.20007L456.24 6.32007ZM460.208 8.49607L454 12.4001C458.864 17.5201 466.544 23.4081 473.648 26.8001C474.16 24.4961 475.632 20.3361 476.848 18.1601C470.768 16.1761 463.92 12.0801 460.208 8.49607Z" fill="white"/>
<path d="M115.504 62.0001H125.744V45.6801C125.744 40.9441 124.848 33.8401 124.272 29.1681H124.528L128.368 40.5601L134.832 57.9681H141.104L147.504 40.5601L151.472 29.1681H151.792C151.152 33.8401 150.256 40.9441 150.256 45.6801V62.0001H160.688V14.3201H148.272L140.976 34.9281C140.08 37.6801 139.312 40.6881 138.352 43.5681H138.032C137.136 40.6881 136.368 37.6801 135.408 34.9281L127.856 14.3201H115.504V62.0001Z" stroke="#005493" stroke-width="12" stroke-linejoin="bevel" mask="url(#path-2-outside-1_15_11)"/>
<path d="M171.629 62.0001H189.613C199.981 62.0001 208.237 57.6481 208.237 47.9201C208.237 41.5841 204.589 38.0001 199.789 36.7201V36.4641C203.629 34.9921 205.997 30.3841 205.997 26.1601C205.997 17.0081 198.125 14.3201 188.269 14.3201H171.629V62.0001ZM183.085 33.2641V23.0881H187.821C192.621 23.0881 194.861 24.4961 194.861 27.8881C194.861 31.1521 192.685 33.2641 187.821 33.2641H183.085ZM183.085 53.2321V41.6481H188.781C194.349 41.6481 197.101 43.2481 197.101 47.1521C197.101 51.2481 194.285 53.2321 188.781 53.2321H183.085Z" stroke="#005493" stroke-width="12" stroke-linejoin="bevel" mask="url(#path-2-outside-1_15_11)"/>
<path d="M222.783 62.0001H234.238V23.8561H247.167V14.3201H209.918V23.8561H222.783V62.0001Z" stroke="#005493" stroke-width="12" stroke-linejoin="bevel" mask="url(#path-2-outside-1_15_11)"/>
<path d="M254.504 62.0001H265.96V14.3201H254.504V62.0001Z" stroke="#005493" stroke-width="12" stroke-linejoin="bevel" mask="url(#path-2-outside-1_15_11)"/>
<path d="M313.072 8.17607V56.7521C313.072 58.0321 312.56 58.4801 311.088 58.4801C309.68 58.5441 304.816 58.5441 300.848 58.2881C302.32 60.8481 304.048 65.2641 304.56 67.9521C310.896 68.0161 315.568 67.6961 318.896 66.2241C322.16 64.6881 323.312 62.1921 323.312 56.8161V8.17607H313.072ZM328.432 25.2641C333.296 34.8001 337.968 46.9601 339.184 54.8321L349.424 50.8001C347.824 42.6081 342.64 30.9601 337.584 21.8721L328.432 25.2641ZM296.304 22.6401C295.088 30.8961 291.952 42.2241 287.088 48.6241C289.648 49.6481 293.936 51.8241 296.24 53.4881C301.36 46.3841 304.752 34.2241 306.928 24.4321L296.304 22.6401Z" stroke="#005493" stroke-width="12" stroke-linejoin="bevel" mask="url(#path-2-outside-1_15_11)"/>
<path d="M377.2 28.9761H381.232V33.0081H377.2V28.9761ZM377.2 40.3681H381.232V44.4001H377.2V40.3681ZM377.2 17.6481H381.232V21.6161H377.2V17.6481ZM369.456 9.64807V52.4001H389.36V9.64807H369.456ZM380.016 55.7281C382.192 58.9281 384.944 63.2801 386.032 66.0321L393.456 61.6161C392.176 58.9281 389.232 54.7681 386.992 51.8241L380.016 55.7281ZM370.672 52.5921C369.136 56.5601 366.384 60.8481 363.504 63.6001C365.552 64.6881 369.072 66.9281 370.8 68.3361C373.744 65.0721 377.072 59.7601 379.056 54.8961L370.672 52.5921ZM401.904 7.28007V57.9681C401.904 58.9281 401.584 59.2481 400.56 59.2481C399.536 59.2481 396.528 59.2481 393.584 59.1201C394.736 61.6161 395.888 65.5841 396.144 68.0161C401.072 68.0161 404.656 67.6961 407.152 66.2241C409.584 64.8161 410.288 62.4481 410.288 57.9681V7.28007H401.904ZM391.664 13.8081V51.2481H399.6V13.8081H391.664ZM353.712 14.5761C357.168 16.1761 361.648 18.9281 363.632 20.9121L369.136 13.4881C366.896 11.5041 362.352 9.13607 358.896 7.79207L353.712 14.5761ZM351.408 31.6001C354.864 33.1361 359.216 35.7601 361.2 37.6801L366.64 30.1921C364.464 28.2721 359.92 26.0321 356.528 24.7521L351.408 31.6001ZM352.368 62.7681L360.816 67.4401C363.376 60.9761 365.872 53.8081 367.984 46.8321L360.432 42.0321C357.936 49.7121 354.736 57.7121 352.368 62.7681Z" stroke="#005493" stroke-width="12" stroke-linejoin="bevel" mask="url(#path-2-outside-1_15_11)"/>
<path d="M422.96 20.2081V26.9281H440.304V20.2081H422.96ZM422.96 29.6801V36.4001H440.56V29.6801H422.96ZM428.528 15.6001V44.4001H435.44V15.6001H428.528ZM430.192 48.8801C430.96 51.5041 431.92 54.8961 432.24 57.1361L435.44 55.9841C435.12 53.8721 434.096 50.5441 433.264 47.9201L430.192 48.8801ZM426.416 49.4561C427.056 52.7841 427.568 57.0721 427.696 59.9521L431.28 59.3121C431.088 56.4961 430.512 52.2081 429.872 48.9441L426.416 49.4561ZM422.512 49.7761C422.768 53.5521 422.768 58.4161 422.64 61.6801L426.416 61.2961C426.48 58.0321 426.352 53.2321 426.032 49.4561L422.512 49.7761ZM417.712 48.3681C417.328 52.6561 416.432 58.4161 415.28 62.0641L420.08 63.7281C421.104 60.1441 421.808 54.1921 422.256 49.9041L417.712 48.3681ZM434.864 39.1521V40.3681C434.608 54.5121 434.352 59.3761 433.648 60.5281C433.2 61.1681 432.752 61.2961 432.048 61.2961C431.344 61.2961 430.192 61.2961 428.784 61.1041C429.744 62.8961 430.448 65.7761 430.576 67.8241C432.688 67.8881 434.672 67.8241 436.016 67.5041C437.552 67.2481 438.704 66.6721 439.792 65.1361C441.2 63.1521 441.584 57.1361 441.904 41.9041C441.968 41.0721 441.968 39.1521 441.968 39.1521H434.864ZM441.2 9.52007H418.48V46.6401H438.384V39.1521H425.584V17.0081H441.2V9.52007ZM448.944 36.2721H451.312V41.1361H448.944V36.2721ZM443.12 30.6401V46.8321H457.52V30.6401H443.12ZM464.88 36.2721H467.632V41.1361H464.88V36.2721ZM458.992 30.6401V46.8321H473.904V30.6401H458.992ZM447.216 47.5361C446.064 53.6801 443.696 59.4401 439.984 63.0881C441.712 64.2401 444.72 66.8001 446 68.1441C450.16 63.6641 453.296 56.5601 454.896 48.9441L447.216 47.5361ZM448.88 21.2961V28.2081H467.632V21.2961H448.88ZM447.344 58.0961C449.84 59.7601 453.104 62.2561 454.576 63.9201L459.12 57.9041C457.52 56.2401 454.192 54.0001 451.696 52.5921L447.344 58.0961ZM462.768 47.4081C461.936 53.5521 460.08 59.5041 456.816 63.2161C458.672 64.3681 462.064 66.8641 463.472 68.2721C467.12 63.6641 469.68 56.4321 470.896 48.8161L462.768 47.4081ZM461.744 60.7201C464.752 62.7681 468.912 65.7761 470.832 67.7601L476.144 61.4241C474.032 59.5681 469.808 56.8161 466.8 55.0241L461.744 60.7201ZM456.24 6.32007C452.784 11.8241 446.384 17.5841 439.536 21.0401C441.2 22.3841 443.888 25.3281 445.104 26.9921C452.656 22.8321 459.952 16.6881 464.496 9.20007L456.24 6.32007ZM460.208 8.49607L454 12.4001C458.864 17.5201 466.544 23.4081 473.648 26.8001C474.16 24.4961 475.632 20.3361 476.848 18.1601C470.768 16.1761 463.92 12.0801 460.208 8.49607Z" stroke="#005493" stroke-width="12" stroke-linejoin="bevel" mask="url(#path-2-outside-1_15_11)"/>
<defs>
<linearGradient id="paint0_linear_15_11" x1="0" y1="39.5546" x2="588" y2="39.5546" gradientUnits="userSpaceOnUse">
<stop stop-color="#00E1FF" stop-opacity="0"/>
<stop offset="0.5" stop-color="#00E1FF"/>
<stop offset="1" stop-color="#00E1FF" stop-opacity="0"/>
</linearGradient>
</defs>
</svg>
