<svg width="588" height="74" viewBox="0 0 588 74" fill="none" xmlns="http://www.w3.org/2000/svg">
<rect y="30.2554" width="588" height="39.1717" fill="url(#paint0_linear_12_5236)"/>
<mask id="path-2-outside-1_12_5236" maskUnits="userSpaceOnUse" x="162.408" y="-0.104004" width="263" height="74" fill="black">
<rect fill="white" x="162.408" y="-0.104004" width="263" height="74"/>
<path d="M182.128 26.824V35.336H214.128V26.824H182.128ZM181.552 56.072V64.648H213.872V56.072H181.552ZM177.456 39.624V66.952H186.992V47.752H209.968V66.696H219.952V39.624H177.456ZM198.256 5.896C191.344 15.944 179.056 23.432 167.408 27.976C170.032 30.408 172.72 33.928 174.256 36.616C186.288 30.728 198.384 21.896 206.576 10.184L198.256 5.896ZM201.84 10.696L193.904 14.792C204.784 26.248 213.808 31.432 222.768 35.464C224.048 32.52 226.736 29.064 229.104 26.888C220.464 24.136 211.376 19.72 201.84 10.696Z"/>
<path d="M232.624 38.344V46.472H262.32V38.344H232.624ZM242.8 42.504C240.432 47.304 235.504 53.192 230.576 56.52C231.92 59.016 233.84 63.048 234.608 65.736C240.496 61.256 245.616 52.744 248.88 45.576L242.8 42.504ZM250.992 45.192L246.768 49.032C250.032 52.168 255.344 58.056 257.84 61.576L263.28 54.024C261.488 52.424 253.552 46.6 250.992 45.192ZM271.536 6.344C269.232 11.144 264.944 16.264 258.352 20.04C260.208 21.192 262.896 23.944 264.176 25.8C271.664 20.744 276.464 14.728 279.984 7.816L271.536 6.344ZM273.648 10.376L268.72 17.416H284.656V10.376H273.648ZM282.416 10.376V11.72C279.536 22.28 271.344 29.704 260.784 32.776C262.384 34.312 264.496 37.128 265.52 39.112C278.192 34.696 287.408 26.952 291.376 12.296L285.616 10.12L284.016 10.376H282.416ZM265.776 22.088C268.144 23.944 271.088 26.632 272.368 28.424L278.896 23.56C277.36 21.704 274.288 19.208 271.92 17.608L265.776 22.088ZM273.648 32.328C271.216 37.128 266.608 41.992 259.12 45.512C260.848 46.792 263.472 49.736 264.56 51.72C273.136 46.92 278.512 41.032 282.224 33.864L273.648 32.328ZM273.52 37.064L268.208 44.424H285.68V37.064H273.52ZM283.632 37.064V38.344C280.752 49.736 272.048 56.968 259.632 59.72C261.296 61.512 263.344 64.968 264.304 67.272C278.832 63.048 288.688 54.92 292.72 38.792L286.96 36.808L285.36 37.064H283.632ZM265.84 49.608C268.336 51.656 271.472 54.664 272.816 56.648L279.6 51.464C278 49.48 274.736 46.728 272.24 44.872L265.84 49.608ZM241.52 25.352H254.192V27.912H241.52V25.352ZM241.52 16.008H254.192V18.568H241.52V16.008ZM234.032 8.712V35.208H262V8.712H234.032ZM244.08 11.976V30.984H243.312V67.016H251.952V30.984H251.184V11.976H244.08Z"/>
<path d="M319.664 6.28C319.344 17.8 321.008 45.128 295.28 59.4C298.416 61.512 301.424 64.52 303.088 67.016C329.584 50.632 329.968 20.552 330.416 6.28H319.664ZM329.648 14.024L320.624 15.048C321.584 21.896 323.44 53.704 350.192 66.568C351.536 63.944 354.16 60.744 357.04 58.504C331.824 47.304 330.096 19.528 329.648 14.024Z"/>
<path d="M383.408 18.888V25.352H393.84V18.888H383.408ZM402.096 18.888V25.352H412.528V18.888H402.096ZM409.84 9.544V56.584C409.84 57.8 409.392 58.184 408.176 58.184C406.896 58.248 402.416 58.248 398.832 57.992C400.048 60.296 401.456 64.392 401.776 66.888C407.792 66.888 411.952 66.696 414.896 65.224C417.776 63.816 418.672 61.448 418.672 56.712V9.544H409.84ZM377.968 9.544V66.888H386.544V9.544H377.968ZM383.92 9.544V16.456H389.744V27.848H383.92V34.76H396.656V9.544H383.92ZM414.128 9.544H398.96V34.76H414.128V27.848H406.192V16.456H414.128V9.544ZM370.608 6.28C367.984 15.368 363.44 24.456 358.512 30.28C359.92 32.776 362.16 38.216 362.864 40.52C369.52 32.712 375.536 20.104 379.184 8.84L370.608 6.28ZM365.552 24.904V67.016H374.384V16.456L374.128 16.328L365.552 24.904Z"/>
</mask>
<path d="M182.128 26.824V35.336H214.128V26.824H182.128ZM181.552 56.072V64.648H213.872V56.072H181.552ZM177.456 39.624V66.952H186.992V47.752H209.968V66.696H219.952V39.624H177.456ZM198.256 5.896C191.344 15.944 179.056 23.432 167.408 27.976C170.032 30.408 172.72 33.928 174.256 36.616C186.288 30.728 198.384 21.896 206.576 10.184L198.256 5.896ZM201.84 10.696L193.904 14.792C204.784 26.248 213.808 31.432 222.768 35.464C224.048 32.52 226.736 29.064 229.104 26.888C220.464 24.136 211.376 19.72 201.84 10.696Z" fill="white"/>
<path d="M232.624 38.344V46.472H262.32V38.344H232.624ZM242.8 42.504C240.432 47.304 235.504 53.192 230.576 56.52C231.92 59.016 233.84 63.048 234.608 65.736C240.496 61.256 245.616 52.744 248.88 45.576L242.8 42.504ZM250.992 45.192L246.768 49.032C250.032 52.168 255.344 58.056 257.84 61.576L263.28 54.024C261.488 52.424 253.552 46.6 250.992 45.192ZM271.536 6.344C269.232 11.144 264.944 16.264 258.352 20.04C260.208 21.192 262.896 23.944 264.176 25.8C271.664 20.744 276.464 14.728 279.984 7.816L271.536 6.344ZM273.648 10.376L268.72 17.416H284.656V10.376H273.648ZM282.416 10.376V11.72C279.536 22.28 271.344 29.704 260.784 32.776C262.384 34.312 264.496 37.128 265.52 39.112C278.192 34.696 287.408 26.952 291.376 12.296L285.616 10.12L284.016 10.376H282.416ZM265.776 22.088C268.144 23.944 271.088 26.632 272.368 28.424L278.896 23.56C277.36 21.704 274.288 19.208 271.92 17.608L265.776 22.088ZM273.648 32.328C271.216 37.128 266.608 41.992 259.12 45.512C260.848 46.792 263.472 49.736 264.56 51.72C273.136 46.92 278.512 41.032 282.224 33.864L273.648 32.328ZM273.52 37.064L268.208 44.424H285.68V37.064H273.52ZM283.632 37.064V38.344C280.752 49.736 272.048 56.968 259.632 59.72C261.296 61.512 263.344 64.968 264.304 67.272C278.832 63.048 288.688 54.92 292.72 38.792L286.96 36.808L285.36 37.064H283.632ZM265.84 49.608C268.336 51.656 271.472 54.664 272.816 56.648L279.6 51.464C278 49.48 274.736 46.728 272.24 44.872L265.84 49.608ZM241.52 25.352H254.192V27.912H241.52V25.352ZM241.52 16.008H254.192V18.568H241.52V16.008ZM234.032 8.712V35.208H262V8.712H234.032ZM244.08 11.976V30.984H243.312V67.016H251.952V30.984H251.184V11.976H244.08Z" fill="white"/>
<path d="M319.664 6.28C319.344 17.8 321.008 45.128 295.28 59.4C298.416 61.512 301.424 64.52 303.088 67.016C329.584 50.632 329.968 20.552 330.416 6.28H319.664ZM329.648 14.024L320.624 15.048C321.584 21.896 323.44 53.704 350.192 66.568C351.536 63.944 354.16 60.744 357.04 58.504C331.824 47.304 330.096 19.528 329.648 14.024Z" fill="white"/>
<path d="M383.408 18.888V25.352H393.84V18.888H383.408ZM402.096 18.888V25.352H412.528V18.888H402.096ZM409.84 9.544V56.584C409.84 57.8 409.392 58.184 408.176 58.184C406.896 58.248 402.416 58.248 398.832 57.992C400.048 60.296 401.456 64.392 401.776 66.888C407.792 66.888 411.952 66.696 414.896 65.224C417.776 63.816 418.672 61.448 418.672 56.712V9.544H409.84ZM377.968 9.544V66.888H386.544V9.544H377.968ZM383.92 9.544V16.456H389.744V27.848H383.92V34.76H396.656V9.544H383.92ZM414.128 9.544H398.96V34.76H414.128V27.848H406.192V16.456H414.128V9.544ZM370.608 6.28C367.984 15.368 363.44 24.456 358.512 30.28C359.92 32.776 362.16 38.216 362.864 40.52C369.52 32.712 375.536 20.104 379.184 8.84L370.608 6.28ZM365.552 24.904V67.016H374.384V16.456L374.128 16.328L365.552 24.904Z" fill="white"/>
<path d="M182.128 26.824V35.336H214.128V26.824H182.128ZM181.552 56.072V64.648H213.872V56.072H181.552ZM177.456 39.624V66.952H186.992V47.752H209.968V66.696H219.952V39.624H177.456ZM198.256 5.896C191.344 15.944 179.056 23.432 167.408 27.976C170.032 30.408 172.72 33.928 174.256 36.616C186.288 30.728 198.384 21.896 206.576 10.184L198.256 5.896ZM201.84 10.696L193.904 14.792C204.784 26.248 213.808 31.432 222.768 35.464C224.048 32.52 226.736 29.064 229.104 26.888C220.464 24.136 211.376 19.72 201.84 10.696Z" stroke="#005493" stroke-width="12" stroke-linejoin="bevel" mask="url(#path-2-outside-1_12_5236)"/>
<path d="M232.624 38.344V46.472H262.32V38.344H232.624ZM242.8 42.504C240.432 47.304 235.504 53.192 230.576 56.52C231.92 59.016 233.84 63.048 234.608 65.736C240.496 61.256 245.616 52.744 248.88 45.576L242.8 42.504ZM250.992 45.192L246.768 49.032C250.032 52.168 255.344 58.056 257.84 61.576L263.28 54.024C261.488 52.424 253.552 46.6 250.992 45.192ZM271.536 6.344C269.232 11.144 264.944 16.264 258.352 20.04C260.208 21.192 262.896 23.944 264.176 25.8C271.664 20.744 276.464 14.728 279.984 7.816L271.536 6.344ZM273.648 10.376L268.72 17.416H284.656V10.376H273.648ZM282.416 10.376V11.72C279.536 22.28 271.344 29.704 260.784 32.776C262.384 34.312 264.496 37.128 265.52 39.112C278.192 34.696 287.408 26.952 291.376 12.296L285.616 10.12L284.016 10.376H282.416ZM265.776 22.088C268.144 23.944 271.088 26.632 272.368 28.424L278.896 23.56C277.36 21.704 274.288 19.208 271.92 17.608L265.776 22.088ZM273.648 32.328C271.216 37.128 266.608 41.992 259.12 45.512C260.848 46.792 263.472 49.736 264.56 51.72C273.136 46.92 278.512 41.032 282.224 33.864L273.648 32.328ZM273.52 37.064L268.208 44.424H285.68V37.064H273.52ZM283.632 37.064V38.344C280.752 49.736 272.048 56.968 259.632 59.72C261.296 61.512 263.344 64.968 264.304 67.272C278.832 63.048 288.688 54.92 292.72 38.792L286.96 36.808L285.36 37.064H283.632ZM265.84 49.608C268.336 51.656 271.472 54.664 272.816 56.648L279.6 51.464C278 49.48 274.736 46.728 272.24 44.872L265.84 49.608ZM241.52 25.352H254.192V27.912H241.52V25.352ZM241.52 16.008H254.192V18.568H241.52V16.008ZM234.032 8.712V35.208H262V8.712H234.032ZM244.08 11.976V30.984H243.312V67.016H251.952V30.984H251.184V11.976H244.08Z" stroke="#005493" stroke-width="12" stroke-linejoin="bevel" mask="url(#path-2-outside-1_12_5236)"/>
<path d="M319.664 6.28C319.344 17.8 321.008 45.128 295.28 59.4C298.416 61.512 301.424 64.52 303.088 67.016C329.584 50.632 329.968 20.552 330.416 6.28H319.664ZM329.648 14.024L320.624 15.048C321.584 21.896 323.44 53.704 350.192 66.568C351.536 63.944 354.16 60.744 357.04 58.504C331.824 47.304 330.096 19.528 329.648 14.024Z" stroke="#005493" stroke-width="12" stroke-linejoin="bevel" mask="url(#path-2-outside-1_12_5236)"/>
<path d="M383.408 18.888V25.352H393.84V18.888H383.408ZM402.096 18.888V25.352H412.528V18.888H402.096ZM409.84 9.544V56.584C409.84 57.8 409.392 58.184 408.176 58.184C406.896 58.248 402.416 58.248 398.832 57.992C400.048 60.296 401.456 64.392 401.776 66.888C407.792 66.888 411.952 66.696 414.896 65.224C417.776 63.816 418.672 61.448 418.672 56.712V9.544H409.84ZM377.968 9.544V66.888H386.544V9.544H377.968ZM383.92 9.544V16.456H389.744V27.848H383.92V34.76H396.656V9.544H383.92ZM414.128 9.544H398.96V34.76H414.128V27.848H406.192V16.456H414.128V9.544ZM370.608 6.28C367.984 15.368 363.44 24.456 358.512 30.28C359.92 32.776 362.16 38.216 362.864 40.52C369.52 32.712 375.536 20.104 379.184 8.84L370.608 6.28ZM365.552 24.904V67.016H374.384V16.456L374.128 16.328L365.552 24.904Z" stroke="#005493" stroke-width="12" stroke-linejoin="bevel" mask="url(#path-2-outside-1_12_5236)"/>
<defs>
<linearGradient id="paint0_linear_12_5236" x1="0" y1="49.8412" x2="588" y2="49.8412" gradientUnits="userSpaceOnUse">
<stop stop-color="#00E1FF" stop-opacity="0"/>
<stop offset="0.5" stop-color="#00E1FF"/>
<stop offset="1" stop-color="#00E1FF" stop-opacity="0"/>
</linearGradient>
</defs>
</svg>
